<svg xmlns="http://www.w3.org/2000/svg" xmlns:xlink="http://www.w3.org/1999/xlink" width="908" height="421.584" viewBox="0 0 908 421.584">
  <defs>
    <filter id="Rechteck_2" x="0" y="0" width="908" height="421.584" filterUnits="userSpaceOnUse">
      <feOffset dy="3" input="SourceAlpha"/>
      <feGaussianBlur stdDeviation="3" result="blur"/>
      <feFlood flood-opacity="0.161"/>
      <feComposite operator="in" in2="blur"/>
      <feComposite in="SourceGraphic"/>
    </filter>
    <clipPath id="clip-path">
      <path id="Pfad_301" data-name="Pfad 301" d="M46.777,126.25H98.7V179.1H46.777Zm0,0" transform="translate(-46.777 -126.25)"/>
    </clipPath>
    <clipPath id="clip-path-2">
      <path id="Pfad_306" data-name="Pfad 306" d="M91.777,126.25H143.7V179.1H91.777Zm0,0" transform="translate(-91.777 -126.25)"/>
    </clipPath>
    <clipPath id="clip-path-3">
      <path id="Pfad_309" data-name="Pfad 309" d="M69.277,126.25H121.2V179.1H69.277Zm0,0" transform="translate(-69.277 -126.25)"/>
    </clipPath>
    <clipPath id="clip-path-4">
      <path id="Pfad_312" data-name="Pfad 312" d="M24.277,126.25H76.2V179.1H24.277Zm0,0" transform="translate(-24.277 -126.25)"/>
    </clipPath>
    <clipPath id="clip-path-5">
      <path id="Pfad_315" data-name="Pfad 315" d="M91.777,81.25H143.7V134.1H91.777Zm0,0" transform="translate(-91.777 -81.25)"/>
    </clipPath>
    <clipPath id="clip-path-6">
      <path id="Pfad_318" data-name="Pfad 318" d="M91.777,103.75H143.7V156.6H91.777Zm0,0" transform="translate(-91.777 -103.75)"/>
    </clipPath>
    <clipPath id="clip-path-7">
      <path id="Pfad_321" data-name="Pfad 321" d="M91.777,58.75H143.7V111.6H91.777Zm0,0" transform="translate(-91.777 -58.75)"/>
    </clipPath>
  </defs>
  <g id="Gruppe_39" data-name="Gruppe 39" transform="translate(1132 1630)">
    <g transform="matrix(1, 0, 0, 1, -1132, -1630)" filter="url(#Rechteck_2)">
      <rect id="Rechteck_2-2" data-name="Rechteck 2" width="890" height="403.584" transform="translate(9 6)" fill="#fff"/>
    </g>
    <g id="Gruppe_35" data-name="Gruppe 35" transform="translate(-1086 -1582.361)">
      <g id="Gruppe_30" data-name="Gruppe 30" transform="translate(0 0)">
        <g id="Gruppe_19" data-name="Gruppe 19" transform="translate(0 55.503)">
          <g id="Gruppe_9" data-name="Gruppe 9" transform="translate(103.836 211.385)" clip-path="url(#clip-path)">
            <path id="Pfad_300" data-name="Pfad 300" stroke="#000" d="M60.527,295h51.918v52.846H60.527Zm0,0" fill="#fff" transform="translate(-60.527 -295)" stroke-linecap="round" stroke-linejoin="round" stroke-miterlimit="10" stroke-width="2.5" stroke-dasharray="1 4"/>
          </g>
          <path id="Pfad_302" data-name="Pfad 302" d="M55.367,142.218a17.834,17.834,0,0,1,.676-5.413,6.749,6.749,0,0,1,1.983-3.165,5.179,5.179,0,0,1,3.38-1.1,5.344,5.344,0,0,1,2.659.642,4.98,4.98,0,0,1,1.848,1.743,9.637,9.637,0,0,1,1.127,2.8,17.948,17.948,0,0,1,.451,4.5,17.632,17.632,0,0,1-.676,5.367,6.832,6.832,0,0,1-2.028,3.165,5.078,5.078,0,0,1-3.38,1.1,5,5,0,0,1-4.191-1.973Q55.363,147.54,55.367,142.218Zm2.344,0c0,3.092.343,5.165,1.037,6.193a3.092,3.092,0,0,0,5.318,0c.721-1.028,1.082-3.1,1.082-6.193q0-4.679-1.082-6.193a3.192,3.192,0,0,0-2.659-1.56,2.961,2.961,0,0,0-2.524,1.33Q57.706,137.544,57.711,142.218Zm0,0" transform="translate(68.289 93.617)"/>
          <path id="Pfad_303" data-name="Pfad 303" stroke="#000" d="M15.527,295H67.445v52.846H15.527Zm0,0" fill="#fff" transform="translate(-15.527 -83.615)" stroke-linecap="round" stroke-linejoin="round" stroke-miterlimit="10" stroke-width="1.25" stroke-dasharray="1 4"/>
          <path id="Pfad_304" data-name="Pfad 304" d="M10.367,142.218a17.834,17.834,0,0,1,.676-5.413,6.749,6.749,0,0,1,1.983-3.165,5.179,5.179,0,0,1,3.38-1.1,5.343,5.343,0,0,1,2.659.642,4.98,4.98,0,0,1,1.848,1.743,9.638,9.638,0,0,1,1.127,2.8,17.948,17.948,0,0,1,.451,4.5,17.632,17.632,0,0,1-.676,5.367,6.832,6.832,0,0,1-2.028,3.165,5.078,5.078,0,0,1-3.38,1.1,5,5,0,0,1-4.191-1.973Q10.363,147.54,10.367,142.218Zm2.344,0c0,3.092.343,5.165,1.037,6.193a3.092,3.092,0,0,0,5.318,0c.721-1.028,1.082-3.1,1.082-6.193q0-4.679-1.082-6.193a3.192,3.192,0,0,0-2.659-1.56,2.961,2.961,0,0,0-2.524,1.33Q12.706,137.544,12.711,142.218Zm0,0" transform="translate(9.454 93.617)"/>
          <g id="Gruppe_10" data-name="Gruppe 10" transform="translate(207.672 211.385)" clip-path="url(#clip-path-2)">
            <path id="Pfad_305" data-name="Pfad 305" stroke="#000" d="M105.527,295h51.918v52.846H105.527Zm0,0" fill="#fff" transform="translate(-105.527 -295)" stroke-linecap="round" stroke-linejoin="round" stroke-miterlimit="10" stroke-width="2.5" stroke-dasharray="1 4"/>
          </g>
          <path id="Pfad_307" data-name="Pfad 307" d="M100.367,142.218a17.834,17.834,0,0,1,.676-5.413,6.749,6.749,0,0,1,1.983-3.165,5.179,5.179,0,0,1,3.38-1.1,5.344,5.344,0,0,1,2.659.642,4.98,4.98,0,0,1,1.848,1.743,9.637,9.637,0,0,1,1.127,2.8,17.949,17.949,0,0,1,.451,4.5,17.633,17.633,0,0,1-.676,5.367,6.832,6.832,0,0,1-2.028,3.165,5.078,5.078,0,0,1-3.38,1.1,5,5,0,0,1-4.191-1.973Q100.363,147.54,100.367,142.218Zm2.344,0c0,3.092.342,5.165,1.037,6.193a3.092,3.092,0,0,0,5.318,0c.721-1.028,1.082-3.1,1.082-6.193q0-4.679-1.082-6.193a3.192,3.192,0,0,0-2.659-1.56,2.961,2.961,0,0,0-2.524,1.33Q102.706,137.544,102.711,142.218Zm0,0" transform="translate(127.125 93.617)"/>
          <g id="Gruppe_11" data-name="Gruppe 11" transform="translate(155.754 211.385)" clip-path="url(#clip-path-3)">
            <path id="Pfad_308" data-name="Pfad 308" stroke="#000" d="M83.027,295h51.918v52.846H83.027Zm0,0" fill="#fff" transform="translate(-83.027 -295)" stroke-linecap="round" stroke-linejoin="round" stroke-miterlimit="10" stroke-width="2.5" stroke-dasharray="1 4"/>
          </g>
          <path id="Pfad_310" data-name="Pfad 310" d="M77.867,142.218a17.833,17.833,0,0,1,.676-5.413,6.749,6.749,0,0,1,1.983-3.165,5.178,5.178,0,0,1,3.38-1.1,5.343,5.343,0,0,1,2.659.642,4.98,4.98,0,0,1,1.848,1.743,9.638,9.638,0,0,1,1.127,2.8,17.948,17.948,0,0,1,.451,4.5,17.632,17.632,0,0,1-.676,5.367,6.832,6.832,0,0,1-2.028,3.165,5.078,5.078,0,0,1-3.38,1.1,5,5,0,0,1-4.191-1.973Q77.863,147.54,77.867,142.218Zm2.344,0c0,3.092.343,5.165,1.037,6.193a3.092,3.092,0,0,0,5.318,0c.721-1.028,1.082-3.1,1.082-6.193q0-4.679-1.082-6.193a3.192,3.192,0,0,0-2.659-1.56,2.961,2.961,0,0,0-2.524,1.33Q80.206,137.544,80.211,142.218Zm0,0" transform="translate(97.707 93.617)"/>
          <g id="Gruppe_12" data-name="Gruppe 12" transform="translate(51.918 211.385)" clip-path="url(#clip-path-4)">
            <path id="Pfad_311" data-name="Pfad 311" stroke="#000" d="M38.027,295H89.945v52.846H38.027Zm0,0" fill="#fff" transform="translate(-38.027 -295)" stroke-linecap="round" stroke-linejoin="round" stroke-miterlimit="10" stroke-width="2.5" stroke-dasharray="1 4"/>
          </g>
          <path id="Pfad_313" data-name="Pfad 313" d="M32.867,142.218a17.834,17.834,0,0,1,.676-5.413,6.749,6.749,0,0,1,1.983-3.165,5.179,5.179,0,0,1,3.38-1.1,5.343,5.343,0,0,1,2.659.642,4.98,4.98,0,0,1,1.848,1.743,9.638,9.638,0,0,1,1.127,2.8,17.948,17.948,0,0,1,.451,4.5,17.632,17.632,0,0,1-.676,5.367,6.832,6.832,0,0,1-2.028,3.165,5.078,5.078,0,0,1-3.38,1.1,5,5,0,0,1-4.191-1.973Q32.863,147.54,32.867,142.218Zm2.344,0c0,3.092.343,5.165,1.037,6.193a3.092,3.092,0,0,0,5.318,0c.721-1.028,1.082-3.1,1.082-6.193q0-4.679-1.082-6.193a3.192,3.192,0,0,0-2.659-1.56,2.961,2.961,0,0,0-2.524,1.33Q35.206,137.544,35.211,142.218Zm0,0" transform="translate(38.872 93.617)"/>
          <g id="Gruppe_13" data-name="Gruppe 13" transform="translate(207.672 105.692)" clip-path="url(#clip-path-5)">
            <path id="Pfad_314" data-name="Pfad 314" stroke="#000" d="M105.527,250h51.918v52.846H105.527Zm0,0" fill="#fff" transform="translate(-105.527 -250)" stroke-linecap="round" stroke-linejoin="round" stroke-miterlimit="10" stroke-width="2.5" stroke-dasharray="1 4"/>
          </g>
          <path id="Pfad_316" data-name="Pfad 316" d="M100.367,97.218a17.834,17.834,0,0,1,.676-5.413,6.749,6.749,0,0,1,1.983-3.165,5.178,5.178,0,0,1,3.38-1.1,5.344,5.344,0,0,1,2.659.642,4.979,4.979,0,0,1,1.848,1.743,9.637,9.637,0,0,1,1.127,2.8,17.949,17.949,0,0,1,.451,4.5,17.633,17.633,0,0,1-.676,5.367,6.832,6.832,0,0,1-2.028,3.165,5.078,5.078,0,0,1-3.38,1.1,5,5,0,0,1-4.191-1.973Q100.363,102.54,100.367,97.218Zm2.344,0c0,3.092.342,5.165,1.037,6.193a3.092,3.092,0,0,0,5.318,0c.721-1.028,1.082-3.1,1.082-6.193q0-4.679-1.082-6.193a3.192,3.192,0,0,0-2.659-1.56,2.961,2.961,0,0,0-2.524,1.33Q102.706,92.544,102.711,97.218Zm0,0" transform="translate(127.125 32.925)"/>
          <g id="Gruppe_14" data-name="Gruppe 14" transform="translate(207.672 158.539)" clip-path="url(#clip-path-6)">
            <path id="Pfad_317" data-name="Pfad 317" stroke="#000" d="M105.527,272.5h51.918v52.846H105.527Zm0,0" fill="#fff" transform="translate(-105.527 -272.5)" stroke-linecap="round" stroke-linejoin="round" stroke-miterlimit="10" stroke-width="2.5" stroke-dasharray="1 4"/>
          </g>
          <path id="Pfad_319" data-name="Pfad 319" d="M100.367,119.718a17.834,17.834,0,0,1,.676-5.413,6.749,6.749,0,0,1,1.983-3.165,5.178,5.178,0,0,1,3.38-1.1,5.344,5.344,0,0,1,2.659.642,4.979,4.979,0,0,1,1.848,1.743,9.637,9.637,0,0,1,1.127,2.8,17.949,17.949,0,0,1,.451,4.5,17.633,17.633,0,0,1-.676,5.367,6.833,6.833,0,0,1-2.028,3.165,5.078,5.078,0,0,1-3.38,1.1,5,5,0,0,1-4.191-1.973Q100.363,125.04,100.367,119.718Zm2.344,0c0,3.092.342,5.165,1.037,6.193a3.092,3.092,0,0,0,5.318,0c.721-1.028,1.082-3.1,1.082-6.193q0-4.679-1.082-6.193a3.192,3.192,0,0,0-2.659-1.56,2.961,2.961,0,0,0-2.524,1.33Q102.706,115.044,102.711,119.718Zm0,0" transform="translate(127.125 63.271)"/>
          <g id="Gruppe_15" data-name="Gruppe 15" transform="translate(207.672 52.846)" clip-path="url(#clip-path-7)">
            <path id="Pfad_320" data-name="Pfad 320" stroke="#000" d="M105.527,227.5h51.918v52.846H105.527Zm0,0" fill="#fff" transform="translate(-105.527 -227.5)" stroke-linecap="round" stroke-linejoin="round" stroke-miterlimit="10" stroke-width="2.5" stroke-dasharray="1 4"/>
          </g>
          <path id="Pfad_322" data-name="Pfad 322" d="M100.367,74.718a17.834,17.834,0,0,1,.676-5.413,6.749,6.749,0,0,1,1.983-3.165,5.178,5.178,0,0,1,3.38-1.1,5.344,5.344,0,0,1,2.659.642,4.979,4.979,0,0,1,1.848,1.743,9.637,9.637,0,0,1,1.127,2.8,17.949,17.949,0,0,1,.451,4.5,17.633,17.633,0,0,1-.676,5.367,6.833,6.833,0,0,1-2.028,3.165,5.078,5.078,0,0,1-3.38,1.1,5,5,0,0,1-4.191-1.973Q100.363,80.04,100.367,74.718Zm2.344,0c0,3.092.342,5.165,1.037,6.193a3.092,3.092,0,0,0,5.318,0c.721-1.028,1.082-3.1,1.082-6.193q0-4.679-1.082-6.193a3.192,3.192,0,0,0-2.659-1.56,2.961,2.961,0,0,0-2.524,1.33Q102.706,70.044,102.711,74.718Zm0,0" transform="translate(127.125 2.578)"/>
          <path id="Pfad_323" data-name="Pfad 323" stroke="#000" d="M105.527,205h51.918v52.846H105.527Zm0,0" fill="#fff" transform="translate(102.144 -205)" stroke-linecap="round" stroke-linejoin="round" stroke-miterlimit="10" stroke-width="1.25" stroke-dasharray="1 4"/>
          <path id="Pfad_324" data-name="Pfad 324" d="M100.367,52.218a17.834,17.834,0,0,1,.676-5.413,6.749,6.749,0,0,1,1.983-3.165,5.178,5.178,0,0,1,3.38-1.1,5.344,5.344,0,0,1,2.659.642,4.98,4.98,0,0,1,1.848,1.743,9.637,9.637,0,0,1,1.127,2.8,17.949,17.949,0,0,1,.451,4.5,17.633,17.633,0,0,1-.676,5.367,6.832,6.832,0,0,1-2.028,3.165,5.078,5.078,0,0,1-3.38,1.1,5,5,0,0,1-4.191-1.973Q100.363,57.54,100.367,52.218Zm2.344,0c0,3.092.342,5.165,1.037,6.193a3.092,3.092,0,0,0,5.318,0c.721-1.028,1.082-3.1,1.082-6.193q0-4.679-1.082-6.193a3.192,3.192,0,0,0-2.659-1.56,2.961,2.961,0,0,0-2.524,1.33Q102.706,47.544,102.711,52.218Zm0,0" transform="translate(127.125 -27.768)"/>
          <path id="Pfad_325" data-name="Pfad 325" stroke="#000" d="M15.527,250H67.445v52.846H15.527Zm0,0" fill="#fff" transform="translate(-15.527 -144.308)" stroke-linecap="round" stroke-linejoin="round" stroke-miterlimit="10" stroke-width="1.25" stroke-dasharray="1 4"/>
          <path id="Pfad_326" data-name="Pfad 326" d="M10.367,97.218a17.833,17.833,0,0,1,.676-5.413,6.749,6.749,0,0,1,1.983-3.165,5.178,5.178,0,0,1,3.38-1.1,5.344,5.344,0,0,1,2.659.642,4.979,4.979,0,0,1,1.848,1.743,9.638,9.638,0,0,1,1.127,2.8,17.948,17.948,0,0,1,.451,4.5,17.632,17.632,0,0,1-.676,5.367,6.832,6.832,0,0,1-2.028,3.165,5.078,5.078,0,0,1-3.38,1.1,5,5,0,0,1-4.191-1.973Q10.363,102.54,10.367,97.218Zm2.344,0c0,3.092.343,5.165,1.037,6.193a3.092,3.092,0,0,0,5.318,0c.721-1.028,1.082-3.1,1.082-6.193q0-4.679-1.082-6.193a3.192,3.192,0,0,0-2.659-1.56,2.961,2.961,0,0,0-2.524,1.33Q12.706,92.544,12.711,97.218Zm0,0" transform="translate(9.454 32.925)"/>
          <path id="Pfad_327" data-name="Pfad 327" d="M60.527,227.5h51.918v52.846H60.527Zm0,0" transform="translate(43.309 -174.654)" fill="#fff" stroke="#000" stroke-linecap="round" stroke-linejoin="round" stroke-miterlimit="10" stroke-width="1.25"/>
          <path id="Pfad_328" data-name="Pfad 328" d="M62.979,84.031h-2.3V69.214a11.258,11.258,0,0,1-2.163,1.651,13.966,13.966,0,0,1-2.389,1.147V69.764a13.2,13.2,0,0,0,3.335-2.156,8.536,8.536,0,0,0,2.028-2.569h1.487Zm0,0" transform="translate(69.285 2.578)"/>
          <path id="Pfad_329" data-name="Pfad 329" stroke="#000" d="M38.027,227.5H89.945v52.846H38.027Zm0,0" fill="#b2d9ff" transform="translate(13.891 -174.654)" stroke-linecap="round" stroke-linejoin="round" stroke-miterlimit="10" stroke-width="1.25" stroke-dasharray="4 4"/>
          <path id="Pfad_330" data-name="Pfad 330" d="M32.867,74.718a17.833,17.833,0,0,1,.676-5.413,6.749,6.749,0,0,1,1.983-3.165,5.178,5.178,0,0,1,3.38-1.1,5.343,5.343,0,0,1,2.659.642,4.979,4.979,0,0,1,1.848,1.743,9.638,9.638,0,0,1,1.127,2.8,17.949,17.949,0,0,1,.451,4.5,17.632,17.632,0,0,1-.676,5.367,6.832,6.832,0,0,1-2.028,3.165,5.078,5.078,0,0,1-3.38,1.1,5,5,0,0,1-4.191-1.973Q32.863,80.04,32.867,74.718Zm2.344,0c0,3.092.343,5.165,1.037,6.193a3.092,3.092,0,0,0,5.318,0c.721-1.028,1.082-3.1,1.082-6.193q0-4.679-1.082-6.193a3.192,3.192,0,0,0-2.659-1.56,2.961,2.961,0,0,0-2.524,1.33Q35.206,70.044,35.211,74.718Zm0,0" transform="translate(38.872 2.578)"/>
          <path id="Pfad_331" data-name="Pfad 331" stroke="#000" d="M15.527,272.5H67.445v52.846H15.527Zm0,0" fill="#fff" transform="translate(-15.527 -113.961)" stroke-linecap="round" stroke-linejoin="round" stroke-miterlimit="10" stroke-width="1.25" stroke-dasharray="1 4"/>
          <path id="Pfad_332" data-name="Pfad 332" d="M10.367,119.718a17.834,17.834,0,0,1,.676-5.413,6.749,6.749,0,0,1,1.983-3.165,5.178,5.178,0,0,1,3.38-1.1,5.344,5.344,0,0,1,2.659.642,4.98,4.98,0,0,1,1.848,1.743,9.638,9.638,0,0,1,1.127,2.8,17.949,17.949,0,0,1,.451,4.5,17.632,17.632,0,0,1-.676,5.367,6.832,6.832,0,0,1-2.028,3.165,5.078,5.078,0,0,1-3.38,1.1,5,5,0,0,1-4.191-1.973Q10.363,125.04,10.367,119.718Zm2.344,0c0,3.092.343,5.165,1.037,6.193a3.092,3.092,0,0,0,5.318,0c.721-1.028,1.082-3.1,1.082-6.193q0-4.679-1.082-6.193a3.192,3.192,0,0,0-2.659-1.56,2.961,2.961,0,0,0-2.524,1.33Q12.706,115.044,12.711,119.718Zm0,0" transform="translate(9.454 63.271)"/>
          <path id="Pfad_333" data-name="Pfad 333" stroke="#000" d="M38.027,205H89.945v52.846H38.027Zm0,0" fill="#b2d9ff" transform="translate(13.891 -205)" stroke-linecap="round" stroke-linejoin="round" stroke-miterlimit="10" stroke-width="1.25" stroke-dasharray="1 4"/>
          <path id="Pfad_334" data-name="Pfad 334" d="M32.867,52.218a17.833,17.833,0,0,1,.676-5.413,6.749,6.749,0,0,1,1.983-3.165,5.178,5.178,0,0,1,3.38-1.1,5.344,5.344,0,0,1,2.659.642,4.98,4.98,0,0,1,1.848,1.743,9.638,9.638,0,0,1,1.127,2.8,17.949,17.949,0,0,1,.451,4.5,17.632,17.632,0,0,1-.676,5.367,6.832,6.832,0,0,1-2.028,3.165,5.078,5.078,0,0,1-3.38,1.1,5,5,0,0,1-4.191-1.973Q32.863,57.54,32.867,52.218Zm2.344,0c0,3.092.343,5.165,1.037,6.193a3.092,3.092,0,0,0,5.318,0c.721-1.028,1.082-3.1,1.082-6.193q0-4.679-1.082-6.193a3.192,3.192,0,0,0-2.659-1.56,2.961,2.961,0,0,0-2.524,1.33Q35.206,47.544,35.211,52.218Zm0,0" transform="translate(38.872 -27.768)"/>
          <path id="Pfad_335" data-name="Pfad 335" d="M38.027,250H89.945v52.846H38.027Zm0,0" transform="translate(13.891 -144.308)" fill="#fff" stroke="#000" stroke-linecap="round" stroke-linejoin="round" stroke-miterlimit="10" stroke-width="1.25"/>
          <path id="Pfad_336" data-name="Pfad 336" d="M32.867,101.53l2.3-.321a5.321,5.321,0,0,0,1.307,2.844,3.307,3.307,0,0,0,2.344.872,3.577,3.577,0,0,0,2.659-1.1A3.9,3.9,0,0,0,42.6,100.98a3.5,3.5,0,0,0-1.037-2.615A3.378,3.378,0,0,0,39,97.31a5.962,5.962,0,0,0-1.622.275l.27-2.064a1.525,1.525,0,0,0,.361.046,4.523,4.523,0,0,0,2.614-.78A2.641,2.641,0,0,0,41.791,92.4a2.834,2.834,0,0,0-.856-2.11,3.3,3.3,0,0,0-4.417.046,4.414,4.414,0,0,0-1.127,2.523l-2.3-.413a6.249,6.249,0,0,1,1.893-3.624,5.521,5.521,0,0,1,3.7-1.284,5.74,5.74,0,0,1,2.794.688,4.648,4.648,0,0,1,1.983,1.789,4.737,4.737,0,0,1,.676,2.431,3.923,3.923,0,0,1-.676,2.248A4.318,4.318,0,0,1,41.565,96.3a4.176,4.176,0,0,1,2.569,1.606,4.911,4.911,0,0,1,.9,3.028,5.656,5.656,0,0,1-1.8,4.22,6.136,6.136,0,0,1-4.462,1.7,5.8,5.8,0,0,1-4.056-1.468A5.7,5.7,0,0,1,32.867,101.53Zm0,0" transform="translate(38.872 32.925)"/>
          <path id="Pfad_337" data-name="Pfad 337" stroke="#000" d="M15.527,227.5H67.445v52.846H15.527Zm0,0" fill="#b2d9ff" transform="translate(-15.527 -174.654)" stroke-linecap="round" stroke-linejoin="round" stroke-miterlimit="10" stroke-width="1.25" stroke-dasharray="1 4"/>
          <path id="Pfad_338" data-name="Pfad 338" d="M10.367,74.718a17.833,17.833,0,0,1,.676-5.413,6.749,6.749,0,0,1,1.983-3.165,5.178,5.178,0,0,1,3.38-1.1,5.343,5.343,0,0,1,2.659.642,4.979,4.979,0,0,1,1.848,1.743,9.637,9.637,0,0,1,1.127,2.8,17.948,17.948,0,0,1,.451,4.5,17.632,17.632,0,0,1-.676,5.367,6.832,6.832,0,0,1-2.028,3.165,5.078,5.078,0,0,1-3.38,1.1,5,5,0,0,1-4.191-1.973Q10.363,80.04,10.367,74.718Zm2.344,0c0,3.092.343,5.165,1.037,6.193a3.092,3.092,0,0,0,5.318,0c.721-1.028,1.082-3.1,1.082-6.193q0-4.679-1.082-6.193a3.192,3.192,0,0,0-2.659-1.56,2.961,2.961,0,0,0-2.524,1.33Q12.706,70.044,12.711,74.718Zm0,0" transform="translate(9.454 2.578)"/>
          <path id="Pfad_339" data-name="Pfad 339" d="M83.027,272.5h51.918v52.846H83.027Zm0,0" transform="translate(72.726 -113.961)" fill="#fff" stroke="#000" stroke-linecap="round" stroke-linejoin="round" stroke-miterlimit="10" stroke-width="1.25"/>
          <path id="Pfad_340" data-name="Pfad 340" d="M81.408,118.755a3.745,3.745,0,0,1-2.794-3.853,4.548,4.548,0,0,1,1.442-3.441,5.981,5.981,0,0,1,7.8.046,4.646,4.646,0,0,1,1.487,3.486,3.985,3.985,0,0,1-.676,2.294,4.138,4.138,0,0,1-2.073,1.468,5.2,5.2,0,0,1,2.614,1.881,4.923,4.923,0,0,1,.9,2.982,5.416,5.416,0,0,1-1.713,4.083,6,6,0,0,1-4.417,1.651,6.168,6.168,0,0,1-4.462-1.651,5.585,5.585,0,0,1-1.667-4.129,5.071,5.071,0,0,1,.9-3.074A4.769,4.769,0,0,1,81.408,118.755Zm-.451-3.9a3.1,3.1,0,0,0,.811,2.2,3.044,3.044,0,0,0,2.208.826,2.96,2.96,0,1,0-2.163-5.046A2.717,2.717,0,0,0,80.957,114.856Zm-.766,8.716a4.318,4.318,0,0,0,.451,1.927,3.451,3.451,0,0,0,1.4,1.422,3.874,3.874,0,0,0,1.983.5,3.525,3.525,0,0,0,2.659-1.055,3.607,3.607,0,0,0,1.082-2.707,3.832,3.832,0,0,0-1.082-2.8,3.7,3.7,0,0,0-2.749-1.1,3.635,3.635,0,0,0-2.7,1.1A3.8,3.8,0,0,0,80.191,123.572Zm0,0" transform="translate(97.682 63.271)"/>
          <path id="Pfad_341" data-name="Pfad 341" d="M83.027,250h51.918v52.846H83.027Zm0,0" transform="translate(72.726 -144.308)" fill="#fff" stroke="#000" stroke-linecap="round" stroke-linejoin="round" stroke-miterlimit="10" stroke-width="1.25"/>
          <path id="Pfad_342" data-name="Pfad 342" d="M77.867,101.392l2.389-.229a4.592,4.592,0,0,0,1.217,2.707,3.4,3.4,0,0,0,2.344.872A3.625,3.625,0,0,0,86.61,103.5a4.741,4.741,0,0,0,1.172-3.349,4.354,4.354,0,0,0-1.127-3.165,3.766,3.766,0,0,0-2.839-1.147,3.828,3.828,0,0,0-2.028.55,4.519,4.519,0,0,0-1.4,1.284L78.273,97.4l1.8-9.725h9.239v2.248H81.878l-.991,5.046A6.18,6.18,0,0,1,84.4,93.823a5.566,5.566,0,0,1,4.1,1.7,6.048,6.048,0,0,1,1.667,4.4,7.047,7.047,0,0,1-1.442,4.45,5.9,5.9,0,0,1-4.912,2.294,6.025,6.025,0,0,1-4.146-1.422A5.779,5.779,0,0,1,77.867,101.392Zm0,0" transform="translate(97.707 33.109)"/>
          <path id="Pfad_343" data-name="Pfad 343" stroke="#000" d="M15.527,205H67.445v52.846H15.527Zm0,0" fill="#b2d9ff" transform="translate(-15.527 -205)" stroke-linecap="round" stroke-linejoin="round" stroke-miterlimit="10" stroke-width="1.25" stroke-dasharray="1 4"/>
          <path id="Pfad_344" data-name="Pfad 344" d="M10.367,52.218a17.833,17.833,0,0,1,.676-5.413,6.749,6.749,0,0,1,1.983-3.165,5.178,5.178,0,0,1,3.38-1.1,5.344,5.344,0,0,1,2.659.642,4.98,4.98,0,0,1,1.848,1.743,9.637,9.637,0,0,1,1.127,2.8,17.948,17.948,0,0,1,.451,4.5,17.632,17.632,0,0,1-.676,5.367,6.832,6.832,0,0,1-2.028,3.165,5.078,5.078,0,0,1-3.38,1.1,5,5,0,0,1-4.191-1.973Q10.363,57.54,10.367,52.218Zm2.344,0c0,3.092.343,5.165,1.037,6.193a3.092,3.092,0,0,0,5.318,0c.721-1.028,1.082-3.1,1.082-6.193q0-4.679-1.082-6.193a3.192,3.192,0,0,0-2.659-1.56,2.961,2.961,0,0,0-2.524,1.33Q12.706,47.544,12.711,52.218Zm0,0" transform="translate(9.454 -27.768)"/>
          <path id="Pfad_345" data-name="Pfad 345" d="M83.027,227.5h51.918v52.846H83.027Zm0,0" transform="translate(72.726 -174.654)" fill="#fff" stroke="#000" stroke-linecap="round" stroke-linejoin="round" stroke-miterlimit="10" stroke-width="1.25"/>
          <path id="Pfad_346" data-name="Pfad 346" d="M90.034,81.783v2.248H77.73A4.881,4.881,0,0,1,78,82.425,9.052,9.052,0,0,1,79.533,79.9a24.776,24.776,0,0,1,2.974-2.844,25.086,25.086,0,0,0,4.056-4.037,4.756,4.756,0,0,0,1.082-2.8,3.01,3.01,0,0,0-.991-2.294,3.325,3.325,0,0,0-2.479-.963,3.606,3.606,0,0,0-2.659,1.009,3.844,3.844,0,0,0-.991,2.8L78.181,70.5a5.759,5.759,0,0,1,1.8-4.037,6.1,6.1,0,0,1,4.236-1.422,5.694,5.694,0,0,1,4.191,1.514,4.939,4.939,0,0,1,1.577,3.716,5.917,5.917,0,0,1-.451,2.248,8.572,8.572,0,0,1-1.532,2.34,34.653,34.653,0,0,1-3.47,3.3c-1.379,1.174-2.271,1.963-2.659,2.385a9.319,9.319,0,0,0-.946,1.239Zm0,0" transform="translate(97.529 2.578)"/>
          <path id="Pfad_347" data-name="Pfad 347" stroke="#000" d="M83.027,205h51.918v52.846H83.027Zm0,0" fill="#fff" transform="translate(72.726 -205)" stroke-linecap="round" stroke-linejoin="round" stroke-miterlimit="10" stroke-width="1.25" stroke-dasharray="1 4"/>
          <path id="Pfad_348" data-name="Pfad 348" d="M77.867,52.218a17.833,17.833,0,0,1,.676-5.413,6.749,6.749,0,0,1,1.983-3.165,5.178,5.178,0,0,1,3.38-1.1,5.344,5.344,0,0,1,2.659.642,4.98,4.98,0,0,1,1.848,1.743,9.638,9.638,0,0,1,1.127,2.8,17.948,17.948,0,0,1,.451,4.5,17.632,17.632,0,0,1-.676,5.367,6.832,6.832,0,0,1-2.028,3.165,5.078,5.078,0,0,1-3.38,1.1,5,5,0,0,1-4.191-1.973Q77.863,57.54,77.867,52.218Zm2.344,0c0,3.092.343,5.165,1.037,6.193a3.092,3.092,0,0,0,5.318,0c.721-1.028,1.082-3.1,1.082-6.193q0-4.679-1.082-6.193a3.192,3.192,0,0,0-2.659-1.56,2.961,2.961,0,0,0-2.524,1.33Q80.206,47.544,80.211,52.218Zm0,0" transform="translate(97.707 -27.768)"/>
          <path id="Pfad_349" data-name="Pfad 349" d="M60.527,272.5h51.918v52.846H60.527Zm0,0" transform="translate(43.309 -113.961)" fill="#fff" stroke="#000" stroke-linecap="round" stroke-linejoin="round" stroke-miterlimit="10" stroke-width="1.25"/>
          <path id="Pfad_350" data-name="Pfad 350" d="M55.426,112.424v-2.248H67.459v1.789a27,27,0,0,0-3.515,5.138,30.288,30.288,0,0,0-2.7,6.56,24.067,24.067,0,0,0-.856,5.184H58.04a23.693,23.693,0,0,1,.856-5.367,28.652,28.652,0,0,1,2.344-6.1,29.464,29.464,0,0,1,3.29-4.954Zm0,0" transform="translate(68.366 63.455)"/>
          <path id="Pfad_351" data-name="Pfad 351" d="M60.527,250h51.918v52.846H60.527Zm0,0" transform="translate(43.309 -144.308)" fill="#fff" stroke="#000" stroke-linecap="round" stroke-linejoin="round" stroke-miterlimit="10" stroke-width="1.25"/>
          <path id="Pfad_352" data-name="Pfad 352" d="M63.1,106.478v-4.541H55.035v-2.11l8.473-12.248H65.4V99.826h2.524v2.11H65.4v4.541Zm0-6.652V91.294l-5.814,8.532Zm0,0" transform="translate(67.855 32.977)"/>
          <path id="Pfad_353" data-name="Pfad 353" stroke="#000" d="M60.527,205h51.918v52.846H60.527Zm0,0" fill="#fff" transform="translate(43.309 -205)" stroke-linecap="round" stroke-linejoin="round" stroke-miterlimit="10" stroke-width="1.25" stroke-dasharray="1 4"/>
          <path id="Pfad_354" data-name="Pfad 354" d="M55.367,52.218a17.834,17.834,0,0,1,.676-5.413,6.749,6.749,0,0,1,1.983-3.165,5.178,5.178,0,0,1,3.38-1.1,5.344,5.344,0,0,1,2.659.642,4.98,4.98,0,0,1,1.848,1.743,9.637,9.637,0,0,1,1.127,2.8,17.948,17.948,0,0,1,.451,4.5,17.632,17.632,0,0,1-.676,5.367,6.832,6.832,0,0,1-2.028,3.165,5.078,5.078,0,0,1-3.38,1.1,5,5,0,0,1-4.191-1.973Q55.363,57.54,55.367,52.218Zm2.344,0c0,3.092.343,5.165,1.037,6.193a3.092,3.092,0,0,0,5.318,0c.721-1.028,1.082-3.1,1.082-6.193q0-4.679-1.082-6.193a3.192,3.192,0,0,0-2.659-1.56,2.961,2.961,0,0,0-2.524,1.33Q57.706,47.544,57.711,52.218Zm0,0" transform="translate(68.289 -27.768)"/>
          <path id="Pfad_355" data-name="Pfad 355" d="M38.027,272.5H89.945v52.846H38.027Zm0,0" transform="translate(13.891 -113.961)" fill="#fff" stroke="#000" stroke-linecap="round" stroke-linejoin="round" stroke-miterlimit="10" stroke-width="1.25"/>
          <path id="Pfad_356" data-name="Pfad 356" d="M44.771,114.764l-2.3.184a4.216,4.216,0,0,0-.856-2.018,2.962,2.962,0,0,0-2.253-.963,3.208,3.208,0,0,0-1.938.6,5.566,5.566,0,0,0-1.713,2.34,13.214,13.214,0,0,0-.631,4.358,5.206,5.206,0,0,1,1.983-1.835,5.4,5.4,0,0,1,2.524-.642,5.132,5.132,0,0,1,3.876,1.7,6.13,6.13,0,0,1,1.622,4.4,7.444,7.444,0,0,1-.766,3.349,5.864,5.864,0,0,1-9.69,1.009q-1.8-2.147-1.8-7.065,0-5.45,1.983-7.982a5.682,5.682,0,0,1,4.687-2.156,5.106,5.106,0,0,1,3.56,1.284A5.447,5.447,0,0,1,44.771,114.764Zm-9.329,8.12a5.586,5.586,0,0,0,.5,2.34,3.9,3.9,0,0,0,1.4,1.651,3.592,3.592,0,0,0,1.893.55,3.21,3.21,0,0,0,2.479-1.147,4.771,4.771,0,0,0,1.037-3.257,4.3,4.3,0,0,0-1.037-3.074,3.267,3.267,0,0,0-2.569-1.147,3.511,3.511,0,0,0-2.614,1.147A4.027,4.027,0,0,0,35.442,122.884Zm0,0" transform="translate(38.82 63.271)"/>
        </g>
        <text id="Input_Padding" data-name="Input + Padding" transform="translate(49 18.361)" font-size="20" font-family="ArialMT, Arial"><tspan x="0" y="0">Input + Padding</tspan></text>
      </g>
      <g id="Gruppe_31" data-name="Gruppe 31" transform="translate(330.256 145.929)">
        <path id="Pfad_423" data-name="Pfad 423" d="M155.625,180H311.379v79.269H155.625Zm0,0" transform="translate(-155.625 -180)" fill="#fff" stroke="#000" stroke-linecap="round" stroke-linejoin="round" stroke-miterlimit="10" stroke-width="1.25"/>
        <text id="with_Stride_1x1_" data-name="with Stride
(1x1) " transform="translate(25.744 30.432)" font-size="20" font-family="ArialMT, Arial"><tspan x="0" y="0">with Stride</tspan><tspan x="0" y="23">(1x1) </tspan></text>
      </g>
      <g id="Gruppe_9-2" data-name="Gruppe 9" transform="translate(659.935 266.888)" clip-path="url(#clip-path)">
        <path id="Pfad_300-2" data-name="Pfad 300" stroke="#000" d="M60.527,295h51.918v52.846H60.527Zm0,0" fill="#fff" transform="translate(-60.527 -295)" stroke-linecap="round" stroke-linejoin="round" stroke-miterlimit="10" stroke-width="2.5" stroke-dasharray="1 4"/>
      </g>
      <path id="Pfad_302-2" data-name="Pfad 302" d="M55.367,142.218a17.834,17.834,0,0,1,.676-5.413,6.749,6.749,0,0,1,1.983-3.165,5.179,5.179,0,0,1,3.38-1.1,5.344,5.344,0,0,1,2.659.642,4.98,4.98,0,0,1,1.848,1.743,9.637,9.637,0,0,1,1.127,2.8,17.948,17.948,0,0,1,.451,4.5,17.632,17.632,0,0,1-.676,5.367,6.832,6.832,0,0,1-2.028,3.165,5.078,5.078,0,0,1-3.38,1.1,5,5,0,0,1-4.191-1.973Q55.363,147.54,55.367,142.218Zm2.344,0c0,3.092.343,5.165,1.037,6.193a3.092,3.092,0,0,0,5.318,0c.721-1.028,1.082-3.1,1.082-6.193q0-4.679-1.082-6.193a3.192,3.192,0,0,0-2.659-1.56,2.961,2.961,0,0,0-2.524,1.33Q57.706,137.544,57.711,142.218Zm0,0" transform="translate(624.388 149.12)"/>
      <path id="Pfad_303-2" data-name="Pfad 303" stroke="#000" d="M15.527,295H67.445v52.846H15.527Zm0,0" fill="#fff" transform="translate(540.572 -28.112)" stroke-linecap="round" stroke-linejoin="round" stroke-miterlimit="10" stroke-width="1.25" stroke-dasharray="1 4"/>
      <path id="Pfad_304-2" data-name="Pfad 304" d="M10.367,142.218a17.834,17.834,0,0,1,.676-5.413,6.749,6.749,0,0,1,1.983-3.165,5.179,5.179,0,0,1,3.38-1.1,5.343,5.343,0,0,1,2.659.642,4.98,4.98,0,0,1,1.848,1.743,9.638,9.638,0,0,1,1.127,2.8,17.948,17.948,0,0,1,.451,4.5,17.632,17.632,0,0,1-.676,5.367,6.832,6.832,0,0,1-2.028,3.165,5.078,5.078,0,0,1-3.38,1.1,5,5,0,0,1-4.191-1.973Q10.363,147.54,10.367,142.218Zm2.344,0c0,3.092.343,5.165,1.037,6.193a3.092,3.092,0,0,0,5.318,0c.721-1.028,1.082-3.1,1.082-6.193q0-4.679-1.082-6.193a3.192,3.192,0,0,0-2.659-1.56,2.961,2.961,0,0,0-2.524,1.33Q12.706,137.544,12.711,142.218Zm0,0" transform="translate(565.552 149.12)"/>
      <g id="Gruppe_10-2" data-name="Gruppe 10" transform="translate(763.771 266.888)" clip-path="url(#clip-path-2)">
        <path id="Pfad_305-2" data-name="Pfad 305" stroke="#000" d="M105.527,295h51.918v52.846H105.527Zm0,0" fill="#fff" transform="translate(-105.527 -295)" stroke-linecap="round" stroke-linejoin="round" stroke-miterlimit="10" stroke-width="2.5" stroke-dasharray="1 4"/>
      </g>
      <path id="Pfad_307-2" data-name="Pfad 307" d="M100.367,142.218a17.834,17.834,0,0,1,.676-5.413,6.749,6.749,0,0,1,1.983-3.165,5.179,5.179,0,0,1,3.38-1.1,5.344,5.344,0,0,1,2.659.642,4.98,4.98,0,0,1,1.848,1.743,9.637,9.637,0,0,1,1.127,2.8,17.949,17.949,0,0,1,.451,4.5,17.633,17.633,0,0,1-.676,5.367,6.832,6.832,0,0,1-2.028,3.165,5.078,5.078,0,0,1-3.38,1.1,5,5,0,0,1-4.191-1.973Q100.363,147.54,100.367,142.218Zm2.344,0c0,3.092.342,5.165,1.037,6.193a3.092,3.092,0,0,0,5.318,0c.721-1.028,1.082-3.1,1.082-6.193q0-4.679-1.082-6.193a3.192,3.192,0,0,0-2.659-1.56,2.961,2.961,0,0,0-2.524,1.33Q102.706,137.544,102.711,142.218Zm0,0" transform="translate(683.224 149.12)"/>
      <g id="Gruppe_11-2" data-name="Gruppe 11" transform="translate(711.853 266.888)" clip-path="url(#clip-path-3)">
        <path id="Pfad_308-2" data-name="Pfad 308" stroke="#000" d="M83.027,295h51.918v52.846H83.027Zm0,0" fill="#fff" transform="translate(-83.027 -295)" stroke-linecap="round" stroke-linejoin="round" stroke-miterlimit="10" stroke-width="2.5" stroke-dasharray="1 4"/>
      </g>
      <path id="Pfad_310-2" data-name="Pfad 310" d="M77.867,142.218a17.833,17.833,0,0,1,.676-5.413,6.749,6.749,0,0,1,1.983-3.165,5.178,5.178,0,0,1,3.38-1.1,5.343,5.343,0,0,1,2.659.642,4.98,4.98,0,0,1,1.848,1.743,9.638,9.638,0,0,1,1.127,2.8,17.948,17.948,0,0,1,.451,4.5,17.632,17.632,0,0,1-.676,5.367,6.832,6.832,0,0,1-2.028,3.165,5.078,5.078,0,0,1-3.38,1.1,5,5,0,0,1-4.191-1.973Q77.863,147.54,77.867,142.218Zm2.344,0c0,3.092.343,5.165,1.037,6.193a3.092,3.092,0,0,0,5.318,0c.721-1.028,1.082-3.1,1.082-6.193q0-4.679-1.082-6.193a3.192,3.192,0,0,0-2.659-1.56,2.961,2.961,0,0,0-2.524,1.33Q80.206,137.544,80.211,142.218Zm0,0" transform="translate(653.806 149.12)"/>
      <g id="Gruppe_12-2" data-name="Gruppe 12" transform="translate(608.017 266.888)" clip-path="url(#clip-path-4)">
        <path id="Pfad_311-2" data-name="Pfad 311" stroke="#000" d="M38.027,295H89.945v52.846H38.027Zm0,0" fill="#fff" transform="translate(-38.027 -295)" stroke-linecap="round" stroke-linejoin="round" stroke-miterlimit="10" stroke-width="2.5" stroke-dasharray="1 4"/>
      </g>
      <path id="Pfad_313-2" data-name="Pfad 313" d="M32.867,142.218a17.834,17.834,0,0,1,.676-5.413,6.749,6.749,0,0,1,1.983-3.165,5.179,5.179,0,0,1,3.38-1.1,5.343,5.343,0,0,1,2.659.642,4.98,4.98,0,0,1,1.848,1.743,9.638,9.638,0,0,1,1.127,2.8,17.948,17.948,0,0,1,.451,4.5,17.632,17.632,0,0,1-.676,5.367,6.832,6.832,0,0,1-2.028,3.165,5.078,5.078,0,0,1-3.38,1.1,5,5,0,0,1-4.191-1.973Q32.863,147.54,32.867,142.218Zm2.344,0c0,3.092.343,5.165,1.037,6.193a3.092,3.092,0,0,0,5.318,0c.721-1.028,1.082-3.1,1.082-6.193q0-4.679-1.082-6.193a3.192,3.192,0,0,0-2.659-1.56,2.961,2.961,0,0,0-2.524,1.33Q35.206,137.544,35.211,142.218Zm0,0" transform="translate(594.97 149.12)"/>
      <g id="Gruppe_13-2" data-name="Gruppe 13" transform="translate(763.771 161.196)" clip-path="url(#clip-path-5)">
        <path id="Pfad_314-2" data-name="Pfad 314" stroke="#000" d="M105.527,250h51.918v52.846H105.527Zm0,0" fill="#fff" transform="translate(-105.527 -250)" stroke-linecap="round" stroke-linejoin="round" stroke-miterlimit="10" stroke-width="2.5" stroke-dasharray="1 4"/>
      </g>
      <path id="Pfad_316-2" data-name="Pfad 316" d="M100.367,97.218a17.834,17.834,0,0,1,.676-5.413,6.749,6.749,0,0,1,1.983-3.165,5.178,5.178,0,0,1,3.38-1.1,5.344,5.344,0,0,1,2.659.642,4.979,4.979,0,0,1,1.848,1.743,9.637,9.637,0,0,1,1.127,2.8,17.949,17.949,0,0,1,.451,4.5,17.633,17.633,0,0,1-.676,5.367,6.832,6.832,0,0,1-2.028,3.165,5.078,5.078,0,0,1-3.38,1.1,5,5,0,0,1-4.191-1.973Q100.363,102.54,100.367,97.218Zm2.344,0c0,3.092.342,5.165,1.037,6.193a3.092,3.092,0,0,0,5.318,0c.721-1.028,1.082-3.1,1.082-6.193q0-4.679-1.082-6.193a3.192,3.192,0,0,0-2.659-1.56,2.961,2.961,0,0,0-2.524,1.33Q102.706,92.544,102.711,97.218Zm0,0" transform="translate(683.224 88.428)"/>
      <g id="Gruppe_14-2" data-name="Gruppe 14" transform="translate(763.771 214.042)" clip-path="url(#clip-path-6)">
        <path id="Pfad_317-2" data-name="Pfad 317" stroke="#000" d="M105.527,272.5h51.918v52.846H105.527Zm0,0" fill="#fff" transform="translate(-105.527 -272.5)" stroke-linecap="round" stroke-linejoin="round" stroke-miterlimit="10" stroke-width="2.5" stroke-dasharray="1 4"/>
      </g>
      <path id="Pfad_319-2" data-name="Pfad 319" d="M100.367,119.718a17.834,17.834,0,0,1,.676-5.413,6.749,6.749,0,0,1,1.983-3.165,5.178,5.178,0,0,1,3.38-1.1,5.344,5.344,0,0,1,2.659.642,4.979,4.979,0,0,1,1.848,1.743,9.637,9.637,0,0,1,1.127,2.8,17.949,17.949,0,0,1,.451,4.5,17.633,17.633,0,0,1-.676,5.367,6.833,6.833,0,0,1-2.028,3.165,5.078,5.078,0,0,1-3.38,1.1,5,5,0,0,1-4.191-1.973Q100.363,125.04,100.367,119.718Zm2.344,0c0,3.092.342,5.165,1.037,6.193a3.092,3.092,0,0,0,5.318,0c.721-1.028,1.082-3.1,1.082-6.193q0-4.679-1.082-6.193a3.192,3.192,0,0,0-2.659-1.56,2.961,2.961,0,0,0-2.524,1.33Q102.706,115.044,102.711,119.718Zm0,0" transform="translate(683.224 118.774)"/>
      <g id="Gruppe_15-2" data-name="Gruppe 15" transform="translate(763.771 108.349)" clip-path="url(#clip-path-7)">
        <path id="Pfad_320-2" data-name="Pfad 320" stroke="#000" d="M105.527,227.5h51.918v52.846H105.527Zm0,0" fill="#fff" transform="translate(-105.527 -227.5)" stroke-linecap="round" stroke-linejoin="round" stroke-miterlimit="10" stroke-width="2.5" stroke-dasharray="1 4"/>
      </g>
      <path id="Pfad_322-2" data-name="Pfad 322" d="M100.367,74.718a17.834,17.834,0,0,1,.676-5.413,6.749,6.749,0,0,1,1.983-3.165,5.178,5.178,0,0,1,3.38-1.1,5.344,5.344,0,0,1,2.659.642,4.979,4.979,0,0,1,1.848,1.743,9.637,9.637,0,0,1,1.127,2.8,17.949,17.949,0,0,1,.451,4.5,17.633,17.633,0,0,1-.676,5.367,6.833,6.833,0,0,1-2.028,3.165,5.078,5.078,0,0,1-3.38,1.1,5,5,0,0,1-4.191-1.973Q100.363,80.04,100.367,74.718Zm2.344,0c0,3.092.342,5.165,1.037,6.193a3.092,3.092,0,0,0,5.318,0c.721-1.028,1.082-3.1,1.082-6.193q0-4.679-1.082-6.193a3.192,3.192,0,0,0-2.659-1.56,2.961,2.961,0,0,0-2.524,1.33Q102.706,70.044,102.711,74.718Zm0,0" transform="translate(683.224 58.082)"/>
      <path id="Pfad_323-2" data-name="Pfad 323" stroke="#000" d="M105.527,205h51.918v52.846H105.527Zm0,0" fill="#fff" transform="translate(658.243 -149.497)" stroke-linecap="round" stroke-linejoin="round" stroke-miterlimit="10" stroke-width="1.25" stroke-dasharray="1 4"/>
      <path id="Pfad_324-2" data-name="Pfad 324" d="M100.367,52.218a17.834,17.834,0,0,1,.676-5.413,6.749,6.749,0,0,1,1.983-3.165,5.178,5.178,0,0,1,3.38-1.1,5.344,5.344,0,0,1,2.659.642,4.98,4.98,0,0,1,1.848,1.743,9.637,9.637,0,0,1,1.127,2.8,17.949,17.949,0,0,1,.451,4.5,17.633,17.633,0,0,1-.676,5.367,6.832,6.832,0,0,1-2.028,3.165,5.078,5.078,0,0,1-3.38,1.1,5,5,0,0,1-4.191-1.973Q100.363,57.54,100.367,52.218Zm2.344,0c0,3.092.342,5.165,1.037,6.193a3.092,3.092,0,0,0,5.318,0c.721-1.028,1.082-3.1,1.082-6.193q0-4.679-1.082-6.193a3.192,3.192,0,0,0-2.659-1.56,2.961,2.961,0,0,0-2.524,1.33Q102.706,47.544,102.711,52.218Zm0,0" transform="translate(683.224 27.735)"/>
      <path id="Pfad_325-2" data-name="Pfad 325" stroke="#000" d="M15.527,250H67.445v52.846H15.527Zm0,0" fill="#fff" transform="translate(540.572 -88.804)" stroke-linecap="round" stroke-linejoin="round" stroke-miterlimit="10" stroke-width="1.25" stroke-dasharray="1 4"/>
      <path id="Pfad_326-2" data-name="Pfad 326" d="M10.367,97.218a17.833,17.833,0,0,1,.676-5.413,6.749,6.749,0,0,1,1.983-3.165,5.178,5.178,0,0,1,3.38-1.1,5.344,5.344,0,0,1,2.659.642,4.979,4.979,0,0,1,1.848,1.743,9.638,9.638,0,0,1,1.127,2.8,17.948,17.948,0,0,1,.451,4.5,17.632,17.632,0,0,1-.676,5.367,6.832,6.832,0,0,1-2.028,3.165,5.078,5.078,0,0,1-3.38,1.1,5,5,0,0,1-4.191-1.973Q10.363,102.54,10.367,97.218Zm2.344,0c0,3.092.343,5.165,1.037,6.193a3.092,3.092,0,0,0,5.318,0c.721-1.028,1.082-3.1,1.082-6.193q0-4.679-1.082-6.193a3.192,3.192,0,0,0-2.659-1.56,2.961,2.961,0,0,0-2.524,1.33Q12.706,92.544,12.711,97.218Zm0,0" transform="translate(565.552 88.428)"/>
      <path id="Pfad_327-2" data-name="Pfad 327" d="M60.527,227.5h51.918v52.846H60.527Zm0,0" transform="translate(599.407 -119.151)" fill="#b2d9ff" stroke="#000" stroke-linecap="round" stroke-linejoin="round" stroke-miterlimit="10" stroke-width="1.25"/>
      <path id="Pfad_328-2" data-name="Pfad 328" d="M62.979,84.031h-2.3V69.214a11.258,11.258,0,0,1-2.163,1.651,13.966,13.966,0,0,1-2.389,1.147V69.764a13.2,13.2,0,0,0,3.335-2.156,8.536,8.536,0,0,0,2.028-2.569h1.487Zm0,0" transform="translate(625.384 58.082)"/>
      <path id="Pfad_329-2" data-name="Pfad 329" stroke="#000" d="M38.027,227.5H89.945v52.846H38.027Zm0,0" fill="#b2d9ff" transform="translate(569.99 -119.151)" stroke-linecap="round" stroke-linejoin="round" stroke-miterlimit="10" stroke-width="1.25" stroke-dasharray="4 4"/>
      <path id="Pfad_330-2" data-name="Pfad 330" d="M32.867,74.718a17.833,17.833,0,0,1,.676-5.413,6.749,6.749,0,0,1,1.983-3.165,5.178,5.178,0,0,1,3.38-1.1,5.343,5.343,0,0,1,2.659.642,4.979,4.979,0,0,1,1.848,1.743,9.638,9.638,0,0,1,1.127,2.8,17.949,17.949,0,0,1,.451,4.5,17.632,17.632,0,0,1-.676,5.367,6.832,6.832,0,0,1-2.028,3.165,5.078,5.078,0,0,1-3.38,1.1,5,5,0,0,1-4.191-1.973Q32.863,80.04,32.867,74.718Zm2.344,0c0,3.092.343,5.165,1.037,6.193a3.092,3.092,0,0,0,5.318,0c.721-1.028,1.082-3.1,1.082-6.193q0-4.679-1.082-6.193a3.192,3.192,0,0,0-2.659-1.56,2.961,2.961,0,0,0-2.524,1.33Q35.206,70.044,35.211,74.718Zm0,0" transform="translate(594.97 58.082)"/>
      <path id="Pfad_331-2" data-name="Pfad 331" stroke="#000" d="M15.527,272.5H67.445v52.846H15.527Zm0,0" fill="#fff" transform="translate(540.572 -58.458)" stroke-linecap="round" stroke-linejoin="round" stroke-miterlimit="10" stroke-width="1.25" stroke-dasharray="1 4"/>
      <path id="Pfad_332-2" data-name="Pfad 332" d="M10.367,119.718a17.834,17.834,0,0,1,.676-5.413,6.749,6.749,0,0,1,1.983-3.165,5.178,5.178,0,0,1,3.38-1.1,5.344,5.344,0,0,1,2.659.642,4.98,4.98,0,0,1,1.848,1.743,9.638,9.638,0,0,1,1.127,2.8,17.949,17.949,0,0,1,.451,4.5,17.632,17.632,0,0,1-.676,5.367,6.832,6.832,0,0,1-2.028,3.165,5.078,5.078,0,0,1-3.38,1.1,5,5,0,0,1-4.191-1.973Q10.363,125.04,10.367,119.718Zm2.344,0c0,3.092.343,5.165,1.037,6.193a3.092,3.092,0,0,0,5.318,0c.721-1.028,1.082-3.1,1.082-6.193q0-4.679-1.082-6.193a3.192,3.192,0,0,0-2.659-1.56,2.961,2.961,0,0,0-2.524,1.33Q12.706,115.044,12.711,119.718Zm0,0" transform="translate(565.552 118.774)"/>
      <path id="Pfad_333-2" data-name="Pfad 333" stroke="#000" d="M38.027,205H89.945v52.846H38.027Zm0,0" fill="#b2d9ff" transform="translate(569.99 -149.497)" stroke-linecap="round" stroke-linejoin="round" stroke-miterlimit="10" stroke-width="1.25" stroke-dasharray="1 4"/>
      <path id="Pfad_334-2" data-name="Pfad 334" d="M32.867,52.218a17.833,17.833,0,0,1,.676-5.413,6.749,6.749,0,0,1,1.983-3.165,5.178,5.178,0,0,1,3.38-1.1,5.344,5.344,0,0,1,2.659.642,4.98,4.98,0,0,1,1.848,1.743,9.638,9.638,0,0,1,1.127,2.8,17.949,17.949,0,0,1,.451,4.5,17.632,17.632,0,0,1-.676,5.367,6.832,6.832,0,0,1-2.028,3.165,5.078,5.078,0,0,1-3.38,1.1,5,5,0,0,1-4.191-1.973Q32.863,57.54,32.867,52.218Zm2.344,0c0,3.092.343,5.165,1.037,6.193a3.092,3.092,0,0,0,5.318,0c.721-1.028,1.082-3.1,1.082-6.193q0-4.679-1.082-6.193a3.192,3.192,0,0,0-2.659-1.56,2.961,2.961,0,0,0-2.524,1.33Q35.206,47.544,35.211,52.218Zm0,0" transform="translate(594.97 27.735)"/>
      <path id="Pfad_335-2" data-name="Pfad 335" d="M38.027,250H89.945v52.846H38.027Zm0,0" transform="translate(569.99 -88.804)" fill="#fff" stroke="#000" stroke-linecap="round" stroke-linejoin="round" stroke-miterlimit="10" stroke-width="1.25"/>
      <path id="Pfad_336-2" data-name="Pfad 336" d="M32.867,101.53l2.3-.321a5.321,5.321,0,0,0,1.307,2.844,3.307,3.307,0,0,0,2.344.872,3.577,3.577,0,0,0,2.659-1.1A3.9,3.9,0,0,0,42.6,100.98a3.5,3.5,0,0,0-1.037-2.615A3.378,3.378,0,0,0,39,97.31a5.962,5.962,0,0,0-1.622.275l.27-2.064a1.525,1.525,0,0,0,.361.046,4.523,4.523,0,0,0,2.614-.78A2.641,2.641,0,0,0,41.791,92.4a2.834,2.834,0,0,0-.856-2.11,3.3,3.3,0,0,0-4.417.046,4.414,4.414,0,0,0-1.127,2.523l-2.3-.413a6.249,6.249,0,0,1,1.893-3.624,5.521,5.521,0,0,1,3.7-1.284,5.74,5.74,0,0,1,2.794.688,4.648,4.648,0,0,1,1.983,1.789,4.737,4.737,0,0,1,.676,2.431,3.923,3.923,0,0,1-.676,2.248A4.318,4.318,0,0,1,41.565,96.3a4.176,4.176,0,0,1,2.569,1.606,4.911,4.911,0,0,1,.9,3.028,5.656,5.656,0,0,1-1.8,4.22,6.136,6.136,0,0,1-4.462,1.7,5.8,5.8,0,0,1-4.056-1.468A5.7,5.7,0,0,1,32.867,101.53Zm0,0" transform="translate(594.97 88.428)"/>
      <path id="Pfad_337-2" data-name="Pfad 337" stroke="#000" d="M15.527,227.5H67.445v52.846H15.527Zm0,0" fill="#fff" transform="translate(540.572 -119.151)" stroke-linecap="round" stroke-linejoin="round" stroke-miterlimit="10" stroke-width="1.25" stroke-dasharray="1 4"/>
      <path id="Pfad_338-2" data-name="Pfad 338" d="M10.367,74.718a17.833,17.833,0,0,1,.676-5.413,6.749,6.749,0,0,1,1.983-3.165,5.178,5.178,0,0,1,3.38-1.1,5.343,5.343,0,0,1,2.659.642,4.979,4.979,0,0,1,1.848,1.743,9.637,9.637,0,0,1,1.127,2.8,17.948,17.948,0,0,1,.451,4.5,17.632,17.632,0,0,1-.676,5.367,6.832,6.832,0,0,1-2.028,3.165,5.078,5.078,0,0,1-3.38,1.1,5,5,0,0,1-4.191-1.973Q10.363,80.04,10.367,74.718Zm2.344,0c0,3.092.343,5.165,1.037,6.193a3.092,3.092,0,0,0,5.318,0c.721-1.028,1.082-3.1,1.082-6.193q0-4.679-1.082-6.193a3.192,3.192,0,0,0-2.659-1.56,2.961,2.961,0,0,0-2.524,1.33Q12.706,70.044,12.711,74.718Zm0,0" transform="translate(565.552 58.082)"/>
      <path id="Pfad_339-2" data-name="Pfad 339" d="M83.027,272.5h51.918v52.846H83.027Zm0,0" transform="translate(628.825 -58.458)" fill="#fff" stroke="#000" stroke-linecap="round" stroke-linejoin="round" stroke-miterlimit="10" stroke-width="1.25"/>
      <path id="Pfad_340-2" data-name="Pfad 340" d="M81.408,118.755a3.745,3.745,0,0,1-2.794-3.853,4.548,4.548,0,0,1,1.442-3.441,5.981,5.981,0,0,1,7.8.046,4.646,4.646,0,0,1,1.487,3.486,3.985,3.985,0,0,1-.676,2.294,4.138,4.138,0,0,1-2.073,1.468,5.2,5.2,0,0,1,2.614,1.881,4.923,4.923,0,0,1,.9,2.982,5.416,5.416,0,0,1-1.713,4.083,6,6,0,0,1-4.417,1.651,6.168,6.168,0,0,1-4.462-1.651,5.585,5.585,0,0,1-1.667-4.129,5.071,5.071,0,0,1,.9-3.074A4.769,4.769,0,0,1,81.408,118.755Zm-.451-3.9a3.1,3.1,0,0,0,.811,2.2,3.044,3.044,0,0,0,2.208.826,2.96,2.96,0,1,0-2.163-5.046A2.717,2.717,0,0,0,80.957,114.856Zm-.766,8.716a4.318,4.318,0,0,0,.451,1.927,3.451,3.451,0,0,0,1.4,1.422,3.874,3.874,0,0,0,1.983.5,3.525,3.525,0,0,0,2.659-1.055,3.607,3.607,0,0,0,1.082-2.707,3.832,3.832,0,0,0-1.082-2.8,3.7,3.7,0,0,0-2.749-1.1,3.635,3.635,0,0,0-2.7,1.1A3.8,3.8,0,0,0,80.191,123.572Zm0,0" transform="translate(653.781 118.774)"/>
      <path id="Pfad_341-2" data-name="Pfad 341" d="M83.027,250h51.918v52.846H83.027Zm0,0" transform="translate(628.825 -88.804)" fill="#fff" stroke="#000" stroke-linecap="round" stroke-linejoin="round" stroke-miterlimit="10" stroke-width="1.25"/>
      <path id="Pfad_342-2" data-name="Pfad 342" d="M77.867,101.392l2.389-.229a4.592,4.592,0,0,0,1.217,2.707,3.4,3.4,0,0,0,2.344.872A3.625,3.625,0,0,0,86.61,103.5a4.741,4.741,0,0,0,1.172-3.349,4.354,4.354,0,0,0-1.127-3.165,3.766,3.766,0,0,0-2.839-1.147,3.828,3.828,0,0,0-2.028.55,4.519,4.519,0,0,0-1.4,1.284L78.273,97.4l1.8-9.725h9.239v2.248H81.878l-.991,5.046A6.18,6.18,0,0,1,84.4,93.823a5.566,5.566,0,0,1,4.1,1.7,6.048,6.048,0,0,1,1.667,4.4,7.047,7.047,0,0,1-1.442,4.45,5.9,5.9,0,0,1-4.912,2.294,6.025,6.025,0,0,1-4.146-1.422A5.779,5.779,0,0,1,77.867,101.392Zm0,0" transform="translate(653.806 88.612)"/>
      <path id="Pfad_343-2" data-name="Pfad 343" stroke="#000" d="M15.527,205H67.445v52.846H15.527Zm0,0" fill="#fff" transform="translate(540.572 -149.497)" stroke-linecap="round" stroke-linejoin="round" stroke-miterlimit="10" stroke-width="1.25" stroke-dasharray="1 4"/>
      <path id="Pfad_344-2" data-name="Pfad 344" d="M10.367,52.218a17.833,17.833,0,0,1,.676-5.413,6.749,6.749,0,0,1,1.983-3.165,5.178,5.178,0,0,1,3.38-1.1,5.344,5.344,0,0,1,2.659.642,4.98,4.98,0,0,1,1.848,1.743,9.637,9.637,0,0,1,1.127,2.8,17.948,17.948,0,0,1,.451,4.5,17.632,17.632,0,0,1-.676,5.367,6.832,6.832,0,0,1-2.028,3.165,5.078,5.078,0,0,1-3.38,1.1,5,5,0,0,1-4.191-1.973Q10.363,57.54,10.367,52.218Zm2.344,0c0,3.092.343,5.165,1.037,6.193a3.092,3.092,0,0,0,5.318,0c.721-1.028,1.082-3.1,1.082-6.193q0-4.679-1.082-6.193a3.192,3.192,0,0,0-2.659-1.56,2.961,2.961,0,0,0-2.524,1.33Q12.706,47.544,12.711,52.218Zm0,0" transform="translate(565.552 27.735)"/>
      <path id="Pfad_345-2" data-name="Pfad 345" d="M83.027,227.5h51.918v52.846H83.027Zm0,0" transform="translate(628.825 -119.151)" fill="#fff" stroke="#000" stroke-linecap="round" stroke-linejoin="round" stroke-miterlimit="10" stroke-width="1.25"/>
      <path id="Pfad_346-2" data-name="Pfad 346" d="M90.034,81.783v2.248H77.73A4.881,4.881,0,0,1,78,82.425,9.052,9.052,0,0,1,79.533,79.9a24.776,24.776,0,0,1,2.974-2.844,25.086,25.086,0,0,0,4.056-4.037,4.756,4.756,0,0,0,1.082-2.8,3.01,3.01,0,0,0-.991-2.294,3.325,3.325,0,0,0-2.479-.963,3.606,3.606,0,0,0-2.659,1.009,3.844,3.844,0,0,0-.991,2.8L78.181,70.5a5.759,5.759,0,0,1,1.8-4.037,6.1,6.1,0,0,1,4.236-1.422,5.694,5.694,0,0,1,4.191,1.514,4.939,4.939,0,0,1,1.577,3.716,5.917,5.917,0,0,1-.451,2.248,8.572,8.572,0,0,1-1.532,2.34,34.653,34.653,0,0,1-3.47,3.3c-1.379,1.174-2.271,1.963-2.659,2.385a9.319,9.319,0,0,0-.946,1.239Zm0,0" transform="translate(653.628 58.082)"/>
      <path id="Pfad_347-2" data-name="Pfad 347" stroke="#000" d="M83.027,205h51.918v52.846H83.027Zm0,0" fill="#fff" transform="translate(628.825 -149.497)" stroke-linecap="round" stroke-linejoin="round" stroke-miterlimit="10" stroke-width="1.25" stroke-dasharray="1 4"/>
      <path id="Pfad_348-2" data-name="Pfad 348" d="M77.867,52.218a17.833,17.833,0,0,1,.676-5.413,6.749,6.749,0,0,1,1.983-3.165,5.178,5.178,0,0,1,3.38-1.1,5.344,5.344,0,0,1,2.659.642,4.98,4.98,0,0,1,1.848,1.743,9.638,9.638,0,0,1,1.127,2.8,17.948,17.948,0,0,1,.451,4.5,17.632,17.632,0,0,1-.676,5.367,6.832,6.832,0,0,1-2.028,3.165,5.078,5.078,0,0,1-3.38,1.1,5,5,0,0,1-4.191-1.973Q77.863,57.54,77.867,52.218Zm2.344,0c0,3.092.343,5.165,1.037,6.193a3.092,3.092,0,0,0,5.318,0c.721-1.028,1.082-3.1,1.082-6.193q0-4.679-1.082-6.193a3.192,3.192,0,0,0-2.659-1.56,2.961,2.961,0,0,0-2.524,1.33Q80.206,47.544,80.211,52.218Zm0,0" transform="translate(653.806 27.735)"/>
      <path id="Pfad_349-2" data-name="Pfad 349" d="M60.527,272.5h51.918v52.846H60.527Zm0,0" transform="translate(599.407 -58.458)" fill="#fff" stroke="#000" stroke-linecap="round" stroke-linejoin="round" stroke-miterlimit="10" stroke-width="1.25"/>
      <path id="Pfad_350-2" data-name="Pfad 350" d="M55.426,112.424v-2.248H67.459v1.789a27,27,0,0,0-3.515,5.138,30.288,30.288,0,0,0-2.7,6.56,24.067,24.067,0,0,0-.856,5.184H58.04a23.693,23.693,0,0,1,.856-5.367,28.652,28.652,0,0,1,2.344-6.1,29.464,29.464,0,0,1,3.29-4.954Zm0,0" transform="translate(624.465 118.958)"/>
      <path id="Pfad_351-2" data-name="Pfad 351" d="M60.527,250h51.918v52.846H60.527Zm0,0" transform="translate(599.407 -88.804)" fill="#fff" stroke="#000" stroke-linecap="round" stroke-linejoin="round" stroke-miterlimit="10" stroke-width="1.25"/>
      <path id="Pfad_352-2" data-name="Pfad 352" d="M63.1,106.478v-4.541H55.035v-2.11l8.473-12.248H65.4V99.826h2.524v2.11H65.4v4.541Zm0-6.652V91.294l-5.814,8.532Zm0,0" transform="translate(623.954 88.48)"/>
      <path id="Pfad_353-2" data-name="Pfad 353" stroke="#000" d="M60.527,205h51.918v52.846H60.527Zm0,0" fill="#b2d9ff" transform="translate(599.407 -149.497)" stroke-linecap="round" stroke-linejoin="round" stroke-miterlimit="10" stroke-width="1.25" stroke-dasharray="1 4"/>
      <path id="Pfad_354-2" data-name="Pfad 354" d="M55.367,52.218a17.834,17.834,0,0,1,.676-5.413,6.749,6.749,0,0,1,1.983-3.165,5.178,5.178,0,0,1,3.38-1.1,5.344,5.344,0,0,1,2.659.642,4.98,4.98,0,0,1,1.848,1.743,9.637,9.637,0,0,1,1.127,2.8,17.948,17.948,0,0,1,.451,4.5,17.632,17.632,0,0,1-.676,5.367,6.832,6.832,0,0,1-2.028,3.165,5.078,5.078,0,0,1-3.38,1.1,5,5,0,0,1-4.191-1.973Q55.363,57.54,55.367,52.218Zm2.344,0c0,3.092.343,5.165,1.037,6.193a3.092,3.092,0,0,0,5.318,0c.721-1.028,1.082-3.1,1.082-6.193q0-4.679-1.082-6.193a3.192,3.192,0,0,0-2.659-1.56,2.961,2.961,0,0,0-2.524,1.33Q57.706,47.544,57.711,52.218Zm0,0" transform="translate(624.388 27.735)"/>
      <path id="Pfad_355-2" data-name="Pfad 355" d="M38.027,272.5H89.945v52.846H38.027Zm0,0" transform="translate(569.99 -58.458)" fill="#fff" stroke="#000" stroke-linecap="round" stroke-linejoin="round" stroke-miterlimit="10" stroke-width="1.25"/>
      <path id="Pfad_356-2" data-name="Pfad 356" d="M44.771,114.764l-2.3.184a4.216,4.216,0,0,0-.856-2.018,2.962,2.962,0,0,0-2.253-.963,3.208,3.208,0,0,0-1.938.6,5.566,5.566,0,0,0-1.713,2.34,13.214,13.214,0,0,0-.631,4.358,5.206,5.206,0,0,1,1.983-1.835,5.4,5.4,0,0,1,2.524-.642,5.132,5.132,0,0,1,3.876,1.7,6.13,6.13,0,0,1,1.622,4.4,7.444,7.444,0,0,1-.766,3.349,5.864,5.864,0,0,1-9.69,1.009q-1.8-2.147-1.8-7.065,0-5.45,1.983-7.982a5.682,5.682,0,0,1,4.687-2.156,5.106,5.106,0,0,1,3.56,1.284A5.447,5.447,0,0,1,44.771,114.764Zm-9.329,8.12a5.586,5.586,0,0,0,.5,2.34,3.9,3.9,0,0,0,1.4,1.651,3.592,3.592,0,0,0,1.893.55,3.21,3.21,0,0,0,2.479-1.147,4.771,4.771,0,0,0,1.037-3.257,4.3,4.3,0,0,0-1.037-3.074,3.267,3.267,0,0,0-2.569-1.147,3.511,3.511,0,0,0-2.614,1.147A4.027,4.027,0,0,0,35.442,122.884Zm0,0" transform="translate(594.919 118.774)"/>
      <text id="input_after_strided_once_horizontal" data-name="input after strided once
horizontal" transform="translate(665 21.361)" font-size="19" font-family="ArialMT, Arial"><tspan x="-96.642" y="0">input after strided once</tspan><tspan x="-41.191" y="22">horizontal</tspan></text>
    </g>
  </g>
</svg>
