<svg xmlns="http://www.w3.org/2000/svg" xmlns:xlink="http://www.w3.org/1999/xlink" width="1193" height="815" viewBox="0 0 1193 815">
  <defs>
    <filter id="Rechteck_7" x="0" y="0" width="1193" height="815" filterUnits="userSpaceOnUse">
      <feOffset dy="3" input="SourceAlpha"/>
      <feGaussianBlur stdDeviation="3" result="blur"/>
      <feFlood flood-opacity="0.161"/>
      <feComposite operator="in" in2="blur"/>
      <feComposite in="SourceGraphic"/>
    </filter>
  </defs>
  <g id="Gruppe_66" data-name="Gruppe 66" transform="translate(440 25)">
    <g transform="matrix(1, 0, 0, 1, -440, -25)" filter="url(#Rechteck_7)">
      <rect id="Rechteck_7-2" data-name="Rechteck 7" width="1175" height="797" transform="translate(9 6)" fill="#fff"/>
    </g>
    <g id="Gruppe_58" data-name="Gruppe 58" transform="translate(0.078 26)">
      <g id="Gruppe_57" data-name="Gruppe 57">
        <g id="Gruppe_6" data-name="Gruppe 6" transform="translate(-393.693 29)">
          <path id="Pfad_60" data-name="Pfad 60" d="M155.625,180H311.379v79.269H155.625Zm0,0" transform="translate(47.72 -84.4)" fill="#fff" stroke="#000" stroke-linecap="round" stroke-linejoin="round" stroke-miterlimit="10" stroke-width="1.25"/>
          <path id="Pfad_61" data-name="Pfad 61" d="M111.378,71.416v2.248h-12.3a4.881,4.881,0,0,1,.27-1.606,8.644,8.644,0,0,1,1.532-2.523,22.844,22.844,0,0,1,2.974-2.844,26.288,26.288,0,0,0,4.056-4.037,4.756,4.756,0,0,0,1.082-2.8A3.042,3.042,0,0,0,108,57.562a3.339,3.339,0,0,0-2.479-.963,3.542,3.542,0,0,0-2.659,1.009,3.806,3.806,0,0,0-.992,2.8l-2.343-.275a5.686,5.686,0,0,1,1.8-4.037,6.072,6.072,0,0,1,4.236-1.422,5.722,5.722,0,0,1,4.191,1.514,4.971,4.971,0,0,1,1.577,3.716,6.1,6.1,0,0,1-.451,2.248,8.79,8.79,0,0,1-1.532,2.34,38.1,38.1,0,0,1-3.47,3.3,32.774,32.774,0,0,0-2.659,2.385,7.586,7.586,0,0,0-.946,1.239Zm0,0" transform="translate(126.652 54.837)"/>
          <path id="Pfad_62" data-name="Pfad 62" d="M108.2,70.634l4.912-7.11-4.552-6.606h2.884l2.073,3.211c.361.615.649,1.138.9,1.56.379-.578.73-1.083,1.037-1.514l2.253-3.257h2.749l-4.642,6.468,5,7.248h-2.794l-2.794-4.266-.721-1.147L111,70.634Zm0,0" transform="translate(138.587 57.867)"/>
          <path id="Pfad_63" data-name="Pfad 63" d="M129.511,71.416v2.248h-12.3a4.88,4.88,0,0,1,.27-1.606,8.643,8.643,0,0,1,1.532-2.523,22.843,22.843,0,0,1,2.974-2.844,26.288,26.288,0,0,0,4.056-4.037,4.756,4.756,0,0,0,1.082-2.8,3.042,3.042,0,0,0-.991-2.294,3.339,3.339,0,0,0-2.479-.963,3.542,3.542,0,0,0-2.659,1.009,3.806,3.806,0,0,0-.991,2.8l-2.344-.275a5.686,5.686,0,0,1,1.8-4.037,6.072,6.072,0,0,1,4.236-1.422,5.722,5.722,0,0,1,4.191,1.514,4.971,4.971,0,0,1,1.577,3.716,6.1,6.1,0,0,1-.451,2.248,8.788,8.788,0,0,1-1.532,2.34,38.1,38.1,0,0,1-3.47,3.3,32.779,32.779,0,0,0-2.659,2.385,7.589,7.589,0,0,0-.946,1.239Zm0,0" transform="translate(150.36 54.837)"/>
          <path id="Pfad_67" data-name="Pfad 67" d="M105.219,86.478v-18.9h7.031a17.964,17.964,0,0,1,2.839.183,5.657,5.657,0,0,1,2.253.872,4.348,4.348,0,0,1,1.487,1.835,5.629,5.629,0,0,1,.586,2.569,5.784,5.784,0,0,1-1.532,4.083q-1.487,1.651-5.408,1.651H107.7v7.707Zm2.479-9.909h4.822a4.8,4.8,0,0,0,3.335-.917,3.173,3.173,0,0,0,1.037-2.523,3.433,3.433,0,0,0-.586-2.018,2.741,2.741,0,0,0-1.577-1.147,9.847,9.847,0,0,0-2.3-.183H107.7Zm0,0" transform="translate(134.685 72.244)"/>
          <path id="Pfad_68" data-name="Pfad 68" d="M112.234,76.824c0-2.532.685-4.413,2.073-5.642a6.262,6.262,0,0,1,4.236-1.514A6.041,6.041,0,0,1,123.1,71.5a7.079,7.079,0,0,1,1.758,5.092,8.9,8.9,0,0,1-.811,4.174,5.7,5.7,0,0,1-2.253,2.385,6.574,6.574,0,0,1-3.245.826,6.054,6.054,0,0,1-4.6-1.835A7.6,7.6,0,0,1,112.234,76.824Zm2.344,0a5.926,5.926,0,0,0,1.127,3.945,3.78,3.78,0,0,0,5.679,0,6.133,6.133,0,0,0,1.127-4.037,5.839,5.839,0,0,0-1.127-3.853,3.7,3.7,0,0,0-5.679,0A5.844,5.844,0,0,0,114.578,76.824Zm0,0" transform="translate(143.858 75.063)"/>
          <path id="Pfad_69" data-name="Pfad 69" d="M118.492,76.824c0-2.532.685-4.413,2.073-5.642a6.262,6.262,0,0,1,4.236-1.514,6.041,6.041,0,0,1,4.552,1.835,7.079,7.079,0,0,1,1.758,5.092,8.9,8.9,0,0,1-.811,4.174,5.7,5.7,0,0,1-2.253,2.385,6.574,6.574,0,0,1-3.245.826,6.054,6.054,0,0,1-4.6-1.835A7.6,7.6,0,0,1,118.492,76.824Zm2.344,0a5.926,5.926,0,0,0,1.127,3.945,3.78,3.78,0,0,0,5.679,0,6.133,6.133,0,0,0,1.127-4.037,5.839,5.839,0,0,0-1.127-3.853,3.7,3.7,0,0,0-5.679,0A5.844,5.844,0,0,0,120.836,76.824Zm0,0" transform="translate(152.04 75.063)"/>
          <path id="Pfad_70" data-name="Pfad 70" d="M125.1,86.478v-18.9h2.253v18.9Zm0,0" transform="translate(160.681 72.244)"/>
          <path id="Pfad_71" data-name="Pfad 71" d="M127.621,70.239V67.578h2.3v2.661Zm0,16.239V72.762h2.3V86.478Zm0,0" transform="translate(163.976 72.244)"/>
          <path id="Pfad_72" data-name="Pfad 72" d="M130.121,83.659V69.943h2.073v1.973a4.776,4.776,0,0,1,4.281-2.248,5.263,5.263,0,0,1,2.208.459,3.386,3.386,0,0,1,1.532,1.147,4.92,4.92,0,0,1,.721,1.7,12.66,12.66,0,0,1,.135,2.248v8.441h-2.3V75.31a6.189,6.189,0,0,0-.27-2.11,2.224,2.224,0,0,0-.946-1.1,2.851,2.851,0,0,0-1.577-.459,3.655,3.655,0,0,0-2.524.963c-.7.615-1.037,1.807-1.037,3.578v7.477Zm0,0" transform="translate(167.244 75.063)"/>
          <path id="Pfad_73" data-name="Pfad 73" d="M136.458,84.806l2.208.321a2.078,2.078,0,0,0,.766,1.514,3.841,3.841,0,0,0,2.344.642,4.061,4.061,0,0,0,2.434-.642,3.381,3.381,0,0,0,1.172-1.789,16.228,16.228,0,0,0,.135-2.982,4.636,4.636,0,0,1-3.7,1.789,5.054,5.054,0,0,1-4.326-2.018,8.166,8.166,0,0,1-1.487-4.908,9.487,9.487,0,0,1,.676-3.624,5.53,5.53,0,0,1,2.028-2.523,5.291,5.291,0,0,1,3.11-.917,4.808,4.808,0,0,1,3.921,1.927V69.943h2.118V81.779a10.914,10.914,0,0,1-.676,4.541,4.928,4.928,0,0,1-2.028,2.11,6.745,6.745,0,0,1-3.38.78,6.433,6.433,0,0,1-3.921-1.1A3.744,3.744,0,0,1,136.458,84.806Zm1.893-8.257a6.028,6.028,0,0,0,1.037,3.945A3.241,3.241,0,0,0,142,81.733a3.4,3.4,0,0,0,2.659-1.239,5.755,5.755,0,0,0,1.082-3.853,5.7,5.7,0,0,0-1.127-3.807,3.3,3.3,0,0,0-5.228,0A5.614,5.614,0,0,0,138.351,76.549Zm0,0" transform="translate(174.941 75.063)"/>
          <path id="Pfad_74" data-name="Pfad 74" d="M183.66,18.093a10.331,10.331,0,0,1,2.479-7.34,8.3,8.3,0,0,1,6.4-2.707,8.759,8.759,0,0,1,4.642,1.284,8.089,8.089,0,0,1,3.155,3.486,11.546,11.546,0,0,1,1.082,5.046,11.625,11.625,0,0,1-1.127,5.184,7.92,7.92,0,0,1-3.245,3.441,9.109,9.109,0,0,1-4.507,1.147,8.641,8.641,0,0,1-4.687-1.284,8.2,8.2,0,0,1-3.155-3.532A11.068,11.068,0,0,1,183.66,18.093Zm2.524.046a7.673,7.673,0,0,0,1.8,5.413,5.953,5.953,0,0,0,4.552,1.927,5.894,5.894,0,0,0,4.552-1.973,8.062,8.062,0,0,0,1.8-5.642,9.766,9.766,0,0,0-.766-3.991,6.07,6.07,0,0,0-2.253-2.707,5.933,5.933,0,0,0-3.29-.963,6.254,6.254,0,0,0-4.507,1.835C186.815,13.267,186.184,15.295,186.184,18.139Zm0,0" transform="translate(237.245 -8.047)"/>
          <path id="Pfad_75" data-name="Pfad 75" d="M201.464,24.126V22.108a4.916,4.916,0,0,1-4.281,2.34,5.415,5.415,0,0,1-2.208-.459A4.33,4.33,0,0,1,193.4,22.8a3.982,3.982,0,0,1-.676-1.7,12.686,12.686,0,0,1-.135-2.2V10.41h2.253v7.615a9.874,9.874,0,0,0,.18,2.431,2.383,2.383,0,0,0,.856,1.468,2.892,2.892,0,0,0,1.758.5,3.8,3.8,0,0,0,1.938-.5,2.959,2.959,0,0,0,1.262-1.468,7.9,7.9,0,0,0,.361-2.707V10.41h2.3V24.126Zm0,0" transform="translate(248.915 -4.859)"/>
          <path id="Pfad_76" data-name="Pfad 76" d="M204.577,24.8l.315,2.018a8.3,8.3,0,0,1-1.713.229,3.729,3.729,0,0,1-1.938-.413,2.407,2.407,0,0,1-.991-1.055,8.457,8.457,0,0,1-.27-2.707v-7.89h-1.667V13.15h1.667V9.755l2.3-1.376V13.15h2.3v1.835h-2.3v7.982a4.789,4.789,0,0,0,.09,1.284,1.156,1.156,0,0,0,.406.459,1.284,1.284,0,0,0,.766.183A7.171,7.171,0,0,0,204.577,24.8Zm0,0" transform="translate(256.402 -7.599)"/>
          <path id="Pfad_77" data-name="Pfad 77" d="M201.984,29.514V10.568h2.073v1.789a5.034,5.034,0,0,1,1.622-1.56,4.9,4.9,0,0,1,2.3-.5,5.187,5.187,0,0,1,3.02.917,5.449,5.449,0,0,1,1.983,2.523,9.354,9.354,0,0,1,.676,3.578,9.219,9.219,0,0,1-.766,3.807,5.426,5.426,0,0,1-5.093,3.486,4.112,4.112,0,0,1-2.028-.5,4.753,4.753,0,0,1-1.487-1.239v6.652ZM204.058,17.5a6.168,6.168,0,0,0,1.037,3.945,3.307,3.307,0,0,0,2.569,1.239,3.245,3.245,0,0,0,2.569-1.284,6.222,6.222,0,0,0,1.127-4.083,5.96,5.96,0,0,0-1.082-3.9,3.124,3.124,0,0,0-2.524-1.33,3.247,3.247,0,0,0-2.569,1.422A6.13,6.13,0,0,0,204.058,17.5Zm0,0" transform="translate(261.203 -5.018)"/>
          <path id="Pfad_78" data-name="Pfad 78" d="M217.1,24.126V22.108a4.927,4.927,0,0,1-4.281,2.34,5.384,5.384,0,0,1-2.208-.459A4.254,4.254,0,0,1,209.03,22.8a3.766,3.766,0,0,1-.676-1.7,12.689,12.689,0,0,1-.135-2.2V10.41h2.253v7.615a9.874,9.874,0,0,0,.18,2.431,2.342,2.342,0,0,0,.856,1.468,2.856,2.856,0,0,0,1.758.5,3.826,3.826,0,0,0,1.938-.5,3,3,0,0,0,1.262-1.468,7.9,7.9,0,0,0,.361-2.707V10.41h2.3V24.126Zm0,0" transform="translate(269.354 -4.859)"/>
          <path id="Pfad_79" data-name="Pfad 79" d="M220.206,24.8l.315,2.018a8.149,8.149,0,0,1-1.713.229,3.751,3.751,0,0,1-1.938-.413,2.459,2.459,0,0,1-.992-1.055,8.458,8.458,0,0,1-.27-2.707v-7.89h-1.668V13.15h1.668V9.755l2.3-1.376V13.15h2.3v1.835h-2.3v7.982a5.223,5.223,0,0,0,.09,1.284,1.156,1.156,0,0,0,.406.459,1.3,1.3,0,0,0,.766.183A7.068,7.068,0,0,0,220.206,24.8Zm0,0" transform="translate(276.836 -7.599)"/>
          <g id="Gruppe_3" data-name="Gruppe 3" transform="translate(0 0.367)">
            <path id="Pfad_1" data-name="Pfad 1" d="M90,208.273h51.918V261.12H90Zm0,0" transform="translate(-38.082 -46.634)" fill="#fff" stroke="#000" stroke-linecap="round" stroke-linejoin="round" stroke-miterlimit="10" stroke-width="1.25"/>
            <path id="Pfad_2" data-name="Pfad 2" d="M32.4,85.7V83.449H44.432v1.789a27,27,0,0,0-3.515,5.138,30.288,30.288,0,0,0-2.7,6.56,24.069,24.069,0,0,0-.856,5.184H35.012a23.771,23.771,0,0,1,.856-5.367,28.179,28.179,0,0,1,2.344-6.1A28.926,28.926,0,0,1,41.5,85.7Zm0,0" transform="translate(39.475 93.283)"/>
            <path id="Pfad_3" data-name="Pfad 3" d="M90,163.273h51.918V216.12H90Zm0,0" transform="translate(-38.082 -107.326)" fill="#b2d9ff" stroke="#000" stroke-linecap="round" stroke-linejoin="round" stroke-miterlimit="10" stroke-width="1.25"/>
            <path id="Pfad_4" data-name="Pfad 4" d="M39.952,57.3h-2.3V42.487a11.256,11.256,0,0,1-2.163,1.651A13.6,13.6,0,0,1,33.1,45.285V43.037a12.956,12.956,0,0,0,3.335-2.156,8.834,8.834,0,0,0,2.028-2.569h1.487Zm0,0" transform="translate(40.395 32.406)"/>
            <path id="Pfad_5" data-name="Pfad 5" d="M90,185.773h51.918V238.62H90Zm0,0" transform="translate(-38.082 -76.98)" fill="#b2d9ff" stroke="#000" stroke-linecap="round" stroke-linejoin="round" stroke-miterlimit="10" stroke-width="1.25"/>
            <path id="Pfad_6" data-name="Pfad 6" d="M40.075,79.751V75.21H32.008V73.1l8.473-12.248h1.893V73.1H44.9v2.11H42.373v4.541Zm0-6.652V64.567L34.261,73.1Zm0,0" transform="translate(38.965 62.805)"/>
            <path id="Pfad_7" data-name="Pfad 7" d="M67.5,208.273h51.918V261.12H67.5Zm0,0" transform="translate(-67.5 -46.634)" fill="#fff" stroke="#000" stroke-linecap="round" stroke-linejoin="round" stroke-miterlimit="10" stroke-width="1.25"/>
            <path id="Pfad_8" data-name="Pfad 8" d="M21.744,88.037l-2.3.183a4.258,4.258,0,0,0-.856-2.018,2.962,2.962,0,0,0-2.253-.963,3.25,3.25,0,0,0-1.938.6,5.492,5.492,0,0,0-1.713,2.34,12.979,12.979,0,0,0-.631,4.358A5.206,5.206,0,0,1,14.037,90.7a5.4,5.4,0,0,1,2.524-.642,5.132,5.132,0,0,1,3.876,1.7,6.13,6.13,0,0,1,1.622,4.4,7.536,7.536,0,0,1-.766,3.349,5.843,5.843,0,0,1-2.073,2.34,5.766,5.766,0,0,1-2.974.78,5.8,5.8,0,0,1-4.642-2.11c-1.208-1.431-1.8-3.78-1.8-7.065q0-5.45,1.983-7.982a5.67,5.67,0,0,1,4.687-2.156,5.122,5.122,0,0,1,3.56,1.284A5.491,5.491,0,0,1,21.744,88.037Zm-9.329,8.12a5.586,5.586,0,0,0,.5,2.34,3.734,3.734,0,0,0,1.4,1.651,3.546,3.546,0,0,0,1.893.55,3.223,3.223,0,0,0,2.479-1.147,4.817,4.817,0,0,0,1.037-3.257,4.355,4.355,0,0,0-1.037-3.074,3.293,3.293,0,0,0-2.569-1.147A3.5,3.5,0,0,0,13.5,93.221,4.027,4.027,0,0,0,12.415,96.157Zm0,0" transform="translate(9.93 93.098)"/>
            <path id="Pfad_9" data-name="Pfad 9" d="M112.5,185.773h51.918V238.62H112.5Zm0,0" transform="translate(-8.664 -76.98)" fill="#fff" stroke="#000" stroke-linecap="round" stroke-linejoin="round" stroke-miterlimit="10" stroke-width="1.25"/>
            <path id="Pfad_10" data-name="Pfad 10" d="M54.84,74.665l2.389-.229a4.592,4.592,0,0,0,1.217,2.707,3.4,3.4,0,0,0,2.344.872,3.638,3.638,0,0,0,2.794-1.239,4.782,4.782,0,0,0,1.172-3.349,4.354,4.354,0,0,0-1.127-3.165,4.057,4.057,0,0,0-4.867-.6,4.529,4.529,0,0,0-1.4,1.284l-2.118-.275,1.8-9.725h9.239V63.2H58.851l-.991,5.046A6.18,6.18,0,0,1,61.375,67.1a5.581,5.581,0,0,1,4.1,1.7,6.048,6.048,0,0,1,1.668,4.4,7.1,7.1,0,0,1-1.442,4.45,5.887,5.887,0,0,1-4.912,2.294,6.025,6.025,0,0,1-4.146-1.422A5.739,5.739,0,0,1,54.84,74.665Zm0,0" transform="translate(68.817 62.937)"/>
            <path id="Pfad_11" data-name="Pfad 11" d="M67.5,185.773h51.918V238.62H67.5Zm0,0" transform="translate(-67.5 -76.98)" fill="#b2d9ff" stroke="#000" stroke-linecap="round" stroke-linejoin="round" stroke-miterlimit="10" stroke-width="1.25"/>
            <path id="Pfad_12" data-name="Pfad 12" d="M9.84,74.8l2.3-.321a5.321,5.321,0,0,0,1.307,2.844,3.292,3.292,0,0,0,2.344.872,3.592,3.592,0,0,0,2.659-1.1,3.881,3.881,0,0,0,1.127-2.844,3.53,3.53,0,0,0-1.037-2.615,3.405,3.405,0,0,0-2.569-1.055,5.962,5.962,0,0,0-1.622.275l.27-2.064a1.473,1.473,0,0,0,.361.046,4.543,4.543,0,0,0,2.614-.78,2.66,2.66,0,0,0,1.172-2.385,2.834,2.834,0,0,0-.856-2.11,3.059,3.059,0,0,0-2.208-.826,3.092,3.092,0,0,0-2.208.872,4.357,4.357,0,0,0-1.127,2.523l-2.3-.413A6.249,6.249,0,0,1,11.958,62.1a5.5,5.5,0,0,1,3.7-1.284,5.765,5.765,0,0,1,2.794.688,4.654,4.654,0,0,1,2.659,4.22,3.923,3.923,0,0,1-.676,2.248,4.26,4.26,0,0,1-1.893,1.606,4.216,4.216,0,0,1,2.569,1.606,4.97,4.97,0,0,1,.9,3.028,5.656,5.656,0,0,1-1.8,4.22,6.136,6.136,0,0,1-4.462,1.7,5.763,5.763,0,0,1-4.056-1.468A5.665,5.665,0,0,1,9.84,74.8Zm0,0" transform="translate(9.981 62.752)"/>
            <path id="Pfad_13" data-name="Pfad 13" d="M112.5,208.273h51.918V261.12H112.5Zm0,0" transform="translate(-8.664 -46.634)" fill="#fff" stroke="#000" stroke-linecap="round" stroke-linejoin="round" stroke-miterlimit="10" stroke-width="1.25"/>
            <path id="Pfad_14" data-name="Pfad 14" d="M58.381,92.028a4.116,4.116,0,0,1-2.118-1.468,4.157,4.157,0,0,1-.676-2.385,4.548,4.548,0,0,1,1.442-3.441A5.423,5.423,0,0,1,60.9,83.313a5.364,5.364,0,0,1,3.921,1.468,4.646,4.646,0,0,1,1.487,3.486,3.985,3.985,0,0,1-.676,2.294,4.138,4.138,0,0,1-2.073,1.468,5.291,5.291,0,0,1,2.614,1.881,4.983,4.983,0,0,1,.9,2.982,5.449,5.449,0,0,1-1.713,4.083,6.017,6.017,0,0,1-4.417,1.651,6.139,6.139,0,0,1-4.462-1.651,5.551,5.551,0,0,1-1.668-4.129,5.089,5.089,0,0,1,.9-3.074A4.768,4.768,0,0,1,58.381,92.028Zm-.451-3.9a2.821,2.821,0,0,0,3.02,3.028,2.963,2.963,0,0,0,2.163-5.046,3.12,3.12,0,0,0-4.326,0A2.684,2.684,0,0,0,57.93,88.129Zm-.766,8.716a4.2,4.2,0,0,0,.451,1.927,3.346,3.346,0,0,0,1.4,1.422,3.851,3.851,0,0,0,1.983.5,3.525,3.525,0,0,0,2.659-1.055,3.607,3.607,0,0,0,1.082-2.707,3.847,3.847,0,0,0-1.082-2.8,3.7,3.7,0,0,0-2.749-1.1,3.635,3.635,0,0,0-2.7,1.1A3.8,3.8,0,0,0,57.164,96.845Zm0,0" transform="translate(68.791 93.098)"/>
            <path id="Pfad_15" data-name="Pfad 15" d="M112.5,163.273h51.918V216.12H112.5Zm0,0" transform="translate(-8.664 -107.326)" fill="#fff" stroke="#000" stroke-linecap="round" stroke-linejoin="round" stroke-miterlimit="10" stroke-width="1.25"/>
            <path id="Pfad_16" data-name="Pfad 16" d="M67.007,55.056V57.3H54.7a4.921,4.921,0,0,1,.27-1.606,8.97,8.97,0,0,1,1.532-2.523,23.472,23.472,0,0,1,2.974-2.844,25.088,25.088,0,0,0,4.056-4.037,4.735,4.735,0,0,0,1.082-2.8,3.024,3.024,0,0,0-.991-2.294,3.325,3.325,0,0,0-2.479-.963,3.592,3.592,0,0,0-2.659,1.009,3.806,3.806,0,0,0-.991,2.8l-2.344-.275a5.74,5.74,0,0,1,1.8-4.037,6.131,6.131,0,0,1,4.236-1.422,5.722,5.722,0,0,1,4.191,1.514,4.972,4.972,0,0,1,1.577,3.716,5.918,5.918,0,0,1-.451,2.248,8.789,8.789,0,0,1-1.532,2.34,34.658,34.658,0,0,1-3.47,3.3c-1.388,1.174-2.271,1.963-2.659,2.385a8.46,8.46,0,0,0-.946,1.239Zm0,0" transform="translate(68.638 32.406)"/>
            <path id="Pfad_17" data-name="Pfad 17" d="M67.5,163.273h51.918V216.12H67.5Zm0,0" transform="translate(-67.5 -107.326)" fill="#b2d9ff" stroke="#000" stroke-linecap="round" stroke-linejoin="round" stroke-miterlimit="10" stroke-width="1.25"/>
            <path id="Pfad_18" data-name="Pfad 18" d="M9.84,47.992a17.875,17.875,0,0,1,.676-5.413A6.749,6.749,0,0,1,12.5,39.413a5.178,5.178,0,0,1,3.38-1.1,5.368,5.368,0,0,1,2.659.642A5.048,5.048,0,0,1,20.386,40.7a9.637,9.637,0,0,1,1.127,2.8,17.948,17.948,0,0,1,.451,4.5,17.632,17.632,0,0,1-.676,5.367,6.785,6.785,0,0,1-2.028,3.165,5.078,5.078,0,0,1-3.38,1.1,5,5,0,0,1-4.191-1.973C10.453,54.093,9.84,51.552,9.84,47.992Zm2.344,0q0,4.652,1.037,6.193a3.092,3.092,0,0,0,5.318,0q1.082-1.541,1.082-6.193,0-4.679-1.082-6.193a3.2,3.2,0,0,0-2.659-1.56,2.961,2.961,0,0,0-2.524,1.33C12.571,42.744,12.183,44.872,12.183,47.992Zm0,0" transform="translate(9.981 32.406)"/>
            <path id="Pfad_47" data-name="Pfad 47" d="M23.543,27.1V8.2h2.434V27.1Zm0,0" transform="translate(27.897 -8.203)"/>
            <path id="Pfad_48" data-name="Pfad 48" d="M26.355,24.284V10.568h2.073v1.973a4.786,4.786,0,0,1,4.281-2.248,5.233,5.233,0,0,1,2.208.459A3.291,3.291,0,0,1,36.451,11.9a4.6,4.6,0,0,1,.721,1.7,12.658,12.658,0,0,1,.135,2.248v8.441h-2.3V15.935a6.189,6.189,0,0,0-.27-2.11,2.224,2.224,0,0,0-.946-1.1,2.829,2.829,0,0,0-1.577-.459,3.671,3.671,0,0,0-2.524.963c-.694.615-1.037,1.807-1.037,3.578v7.477Zm0,0" transform="translate(31.575 -5.385)"/>
            <path id="Pfad_49" data-name="Pfad 49" d="M32.609,29.514V10.568h2.073v1.789A5.035,5.035,0,0,1,36.3,10.8a4.9,4.9,0,0,1,2.3-.5,5.187,5.187,0,0,1,3.02.917,5.449,5.449,0,0,1,1.983,2.523,9.354,9.354,0,0,1,.676,3.578,9.219,9.219,0,0,1-.766,3.807,5.426,5.426,0,0,1-5.093,3.486,4.112,4.112,0,0,1-2.028-.5,4.753,4.753,0,0,1-1.487-1.239v6.652ZM34.682,17.5a6.168,6.168,0,0,0,1.037,3.945,3.307,3.307,0,0,0,2.569,1.239,3.245,3.245,0,0,0,2.569-1.284,6.222,6.222,0,0,0,1.127-4.083,5.96,5.96,0,0,0-1.082-3.9,3.124,3.124,0,0,0-2.524-1.33A3.247,3.247,0,0,0,35.809,13.5,6.13,6.13,0,0,0,34.682,17.5Zm0,0" transform="translate(39.751 -5.385)"/>
            <path id="Pfad_50" data-name="Pfad 50" d="M47.722,24.126V22.108a4.927,4.927,0,0,1-4.281,2.34,5.384,5.384,0,0,1-2.208-.459A4.254,4.254,0,0,1,39.655,22.8a3.767,3.767,0,0,1-.676-1.7,12.691,12.691,0,0,1-.135-2.2V10.41H41.1v7.615a9.875,9.875,0,0,0,.18,2.431,2.342,2.342,0,0,0,.856,1.468,2.856,2.856,0,0,0,1.758.5,3.826,3.826,0,0,0,1.938-.5,3,3,0,0,0,1.262-1.468,7.9,7.9,0,0,0,.361-2.707V10.41h2.3V24.126Zm0,0" transform="translate(47.902 -5.226)"/>
            <path id="Pfad_51" data-name="Pfad 51" d="M50.831,24.8l.315,2.018a8.149,8.149,0,0,1-1.713.229,3.752,3.752,0,0,1-1.938-.413,2.459,2.459,0,0,1-.991-1.055,8.458,8.458,0,0,1-.27-2.707v-7.89H44.566V13.15h1.668V9.755l2.3-1.376V13.15h2.3v1.835h-2.3v7.982a5.221,5.221,0,0,0,.09,1.284,1.156,1.156,0,0,0,.406.459,1.3,1.3,0,0,0,.766.183A7.069,7.069,0,0,0,50.831,24.8Zm0,0" transform="translate(55.385 -7.966)"/>
          </g>
          <text id="MAX" transform="translate(290.542 126.56)" font-size="21" font-family="ArialMT, Arial"><tspan x="0" y="0">MAX</tspan></text>
          <g id="Gruppe_4" data-name="Gruppe 4" transform="translate(404.996 82.737)">
            <path id="Pfad_52" data-name="Pfad 52" d="M243.016,197.023h51.918V249.87H243.016Zm0,0" transform="translate(-243.016 -144.177)" fill="#fff" stroke="#000" stroke-linecap="round" stroke-linejoin="round" stroke-miterlimit="10" stroke-width="1.25"/>
            <path id="Pfad_54" data-name="Pfad 54" d="M265.516,197.023h51.918V249.87H265.516Zm0,0" transform="translate(-213.598 -144.177)" fill="#fff" stroke="#000" stroke-linecap="round" stroke-linejoin="round" stroke-miterlimit="10" stroke-width="1.25"/>
            <path id="Pfad_56" data-name="Pfad 56" d="M265.516,174.523h51.918V227.37H265.516Zm0,0" transform="translate(-213.598 -174.523)" fill="#fff" stroke="#000" stroke-linecap="round" stroke-linejoin="round" stroke-miterlimit="10" stroke-width="1.25"/>
            <path id="Pfad_58" data-name="Pfad 58" d="M243.016,174.523h51.918V227.37H243.016Zm0,0" transform="translate(-243.016 -173.881)" fill="#b2d9ff" stroke="#000" stroke-linecap="round" stroke-linejoin="round" stroke-miterlimit="10" stroke-width="1.25"/>
            <text id="_4" data-name="4" transform="translate(19.546 30.822)" font-size="20" font-family="ArialMT, Arial"><tspan x="0" y="0">4</tspan></text>
            <text id="_5" data-name="5" transform="translate(69.546 30.822)" font-size="20" font-family="ArialMT, Arial"><tspan x="0" y="0">5</tspan></text>
            <text id="_7" data-name="7" transform="translate(19.546 85.822)" font-size="20" font-family="ArialMT, Arial"><tspan x="0" y="0">7</tspan></text>
            <text id="_8" data-name="8" transform="translate(69.546 85.822)" font-size="20" font-family="ArialMT, Arial"><tspan x="0" y="0">8</tspan></text>
          </g>
        </g>
        <text id="_4_3_1_0_4" data-name="4&gt;3&gt;1&gt;0=4" transform="translate(-253.15 319.56)" font-size="32" font-family="ArialMT, Arial"><tspan x="0" y="0">4&gt;3&gt;1&gt;0=4</tspan></text>
      </g>
      <g id="Gruppe_56" data-name="Gruppe 56" transform="translate(591 -352.308)">
        <path id="Pfad_168" data-name="Pfad 168" d="M155.625,180H311.379v79.269H155.625Zm0,0" transform="translate(-345.972 296.908)" fill="#fff" stroke="#000" stroke-linecap="round" stroke-linejoin="round" stroke-miterlimit="10" stroke-width="1.25"/>
        <path id="Pfad_169" data-name="Pfad 169" d="M111.378,71.416v2.248h-12.3a4.881,4.881,0,0,1,.27-1.606,8.644,8.644,0,0,1,1.532-2.523,22.844,22.844,0,0,1,2.974-2.844,26.288,26.288,0,0,0,4.056-4.037,4.756,4.756,0,0,0,1.082-2.8A3.042,3.042,0,0,0,108,57.562a3.339,3.339,0,0,0-2.479-.963,3.542,3.542,0,0,0-2.659,1.009,3.806,3.806,0,0,0-.992,2.8l-2.343-.275a5.686,5.686,0,0,1,1.8-4.037,6.072,6.072,0,0,1,4.236-1.422,5.722,5.722,0,0,1,4.191,1.514,4.971,4.971,0,0,1,1.577,3.716,6.1,6.1,0,0,1-.451,2.248,8.79,8.79,0,0,1-1.532,2.34,38.1,38.1,0,0,1-3.47,3.3,32.774,32.774,0,0,0-2.659,2.385,7.586,7.586,0,0,0-.946,1.239Zm0,0" transform="translate(-267.041 436.145)"/>
        <path id="Pfad_170" data-name="Pfad 170" d="M108.2,70.634l4.912-7.11-4.552-6.606h2.884l2.073,3.211c.361.615.649,1.138.9,1.56.379-.578.73-1.083,1.037-1.514l2.253-3.257h2.749l-4.642,6.468,5,7.248h-2.794l-2.794-4.266-.721-1.147L111,70.634Zm0,0" transform="translate(-255.105 439.174)"/>
        <path id="Pfad_171" data-name="Pfad 171" d="M129.511,71.416v2.248h-12.3a4.88,4.88,0,0,1,.27-1.606,8.643,8.643,0,0,1,1.532-2.523,22.843,22.843,0,0,1,2.974-2.844,26.288,26.288,0,0,0,4.056-4.037,4.756,4.756,0,0,0,1.082-2.8,3.042,3.042,0,0,0-.991-2.294,3.339,3.339,0,0,0-2.479-.963,3.542,3.542,0,0,0-2.659,1.009,3.806,3.806,0,0,0-.991,2.8l-2.344-.275a5.686,5.686,0,0,1,1.8-4.037,6.072,6.072,0,0,1,4.236-1.422,5.722,5.722,0,0,1,4.191,1.514,4.971,4.971,0,0,1,1.577,3.716,6.1,6.1,0,0,1-.451,2.248,8.788,8.788,0,0,1-1.532,2.34,38.1,38.1,0,0,1-3.47,3.3,32.779,32.779,0,0,0-2.659,2.385,7.589,7.589,0,0,0-.946,1.239Zm0,0" transform="translate(-243.333 436.145)"/>
        <path id="Pfad_172" data-name="Pfad 172" d="M105.219,86.478v-18.9h7.031a17.964,17.964,0,0,1,2.839.183,5.657,5.657,0,0,1,2.253.872,4.348,4.348,0,0,1,1.487,1.835,5.629,5.629,0,0,1,.586,2.569,5.784,5.784,0,0,1-1.532,4.083q-1.487,1.651-5.408,1.651H107.7v7.707Zm2.479-9.909h4.822a4.8,4.8,0,0,0,3.335-.917,3.173,3.173,0,0,0,1.037-2.523,3.433,3.433,0,0,0-.586-2.018,2.741,2.741,0,0,0-1.577-1.147,9.847,9.847,0,0,0-2.3-.183H107.7Zm0,0" transform="translate(-259.007 453.552)"/>
        <path id="Pfad_173" data-name="Pfad 173" d="M112.234,76.824c0-2.532.685-4.413,2.073-5.642a6.262,6.262,0,0,1,4.236-1.514A6.041,6.041,0,0,1,123.1,71.5a7.079,7.079,0,0,1,1.758,5.092,8.9,8.9,0,0,1-.811,4.174,5.7,5.7,0,0,1-2.253,2.385,6.574,6.574,0,0,1-3.245.826,6.054,6.054,0,0,1-4.6-1.835A7.6,7.6,0,0,1,112.234,76.824Zm2.344,0a5.926,5.926,0,0,0,1.127,3.945,3.78,3.78,0,0,0,5.679,0,6.133,6.133,0,0,0,1.127-4.037,5.839,5.839,0,0,0-1.127-3.853,3.7,3.7,0,0,0-5.679,0A5.844,5.844,0,0,0,114.578,76.824Zm0,0" transform="translate(-249.834 456.371)"/>
        <path id="Pfad_174" data-name="Pfad 174" d="M118.492,76.824c0-2.532.685-4.413,2.073-5.642a6.262,6.262,0,0,1,4.236-1.514,6.041,6.041,0,0,1,4.552,1.835,7.079,7.079,0,0,1,1.758,5.092,8.9,8.9,0,0,1-.811,4.174,5.7,5.7,0,0,1-2.253,2.385,6.574,6.574,0,0,1-3.245.826,6.054,6.054,0,0,1-4.6-1.835A7.6,7.6,0,0,1,118.492,76.824Zm2.344,0a5.926,5.926,0,0,0,1.127,3.945,3.78,3.78,0,0,0,5.679,0,6.133,6.133,0,0,0,1.127-4.037,5.839,5.839,0,0,0-1.127-3.853,3.7,3.7,0,0,0-5.679,0A5.844,5.844,0,0,0,120.836,76.824Zm0,0" transform="translate(-241.653 456.371)"/>
        <path id="Pfad_175" data-name="Pfad 175" d="M125.1,86.478v-18.9h2.253v18.9Zm0,0" transform="translate(-233.011 453.552)"/>
        <path id="Pfad_176" data-name="Pfad 176" d="M127.621,70.239V67.578h2.3v2.661Zm0,16.239V72.762h2.3V86.478Zm0,0" transform="translate(-229.717 453.552)"/>
        <path id="Pfad_177" data-name="Pfad 177" d="M130.121,83.659V69.943h2.073v1.973a4.776,4.776,0,0,1,4.281-2.248,5.263,5.263,0,0,1,2.208.459,3.386,3.386,0,0,1,1.532,1.147,4.92,4.92,0,0,1,.721,1.7,12.66,12.66,0,0,1,.135,2.248v8.441h-2.3V75.31a6.189,6.189,0,0,0-.27-2.11,2.224,2.224,0,0,0-.946-1.1,2.851,2.851,0,0,0-1.577-.459,3.655,3.655,0,0,0-2.524.963c-.7.615-1.037,1.807-1.037,3.578v7.477Zm0,0" transform="translate(-226.448 456.371)"/>
        <path id="Pfad_178" data-name="Pfad 178" d="M136.458,84.806l2.208.321a2.078,2.078,0,0,0,.766,1.514,3.841,3.841,0,0,0,2.344.642,4.061,4.061,0,0,0,2.434-.642,3.381,3.381,0,0,0,1.172-1.789,16.228,16.228,0,0,0,.135-2.982,4.636,4.636,0,0,1-3.7,1.789,5.054,5.054,0,0,1-4.326-2.018,8.166,8.166,0,0,1-1.487-4.908,9.487,9.487,0,0,1,.676-3.624,5.53,5.53,0,0,1,2.028-2.523,5.291,5.291,0,0,1,3.11-.917,4.808,4.808,0,0,1,3.921,1.927V69.943h2.118V81.779a10.914,10.914,0,0,1-.676,4.541,4.928,4.928,0,0,1-2.028,2.11,6.745,6.745,0,0,1-3.38.78,6.433,6.433,0,0,1-3.921-1.1A3.744,3.744,0,0,1,136.458,84.806Zm1.893-8.257a6.028,6.028,0,0,0,1.037,3.945A3.241,3.241,0,0,0,142,81.733a3.4,3.4,0,0,0,2.659-1.239,5.755,5.755,0,0,0,1.082-3.853,5.7,5.7,0,0,0-1.127-3.807,3.3,3.3,0,0,0-5.228,0A5.614,5.614,0,0,0,138.351,76.549Zm0,0" transform="translate(-218.752 456.371)"/>
        <path id="Pfad_179" data-name="Pfad 179" d="M183.66,18.093a10.331,10.331,0,0,1,2.479-7.34,8.3,8.3,0,0,1,6.4-2.707,8.759,8.759,0,0,1,4.642,1.284,8.089,8.089,0,0,1,3.155,3.486,11.546,11.546,0,0,1,1.082,5.046,11.625,11.625,0,0,1-1.127,5.184,7.92,7.92,0,0,1-3.245,3.441,9.109,9.109,0,0,1-4.507,1.147,8.641,8.641,0,0,1-4.687-1.284,8.2,8.2,0,0,1-3.155-3.532A11.068,11.068,0,0,1,183.66,18.093Zm2.524.046a7.673,7.673,0,0,0,1.8,5.413,5.953,5.953,0,0,0,4.552,1.927,5.894,5.894,0,0,0,4.552-1.973,8.062,8.062,0,0,0,1.8-5.642,9.766,9.766,0,0,0-.766-3.991,6.07,6.07,0,0,0-2.253-2.707,5.933,5.933,0,0,0-3.29-.963,6.254,6.254,0,0,0-4.507,1.835C186.815,13.267,186.184,15.295,186.184,18.139Zm0,0" transform="translate(-156.448 373.261)"/>
        <path id="Pfad_180" data-name="Pfad 180" d="M201.464,24.126V22.108a4.916,4.916,0,0,1-4.281,2.34,5.415,5.415,0,0,1-2.208-.459A4.33,4.33,0,0,1,193.4,22.8a3.982,3.982,0,0,1-.676-1.7,12.686,12.686,0,0,1-.135-2.2V10.41h2.253v7.615a9.874,9.874,0,0,0,.18,2.431,2.383,2.383,0,0,0,.856,1.468,2.892,2.892,0,0,0,1.758.5,3.8,3.8,0,0,0,1.938-.5,2.959,2.959,0,0,0,1.262-1.468,7.9,7.9,0,0,0,.361-2.707V10.41h2.3V24.126Zm0,0" transform="translate(-144.778 376.448)"/>
        <path id="Pfad_181" data-name="Pfad 181" d="M204.577,24.8l.315,2.018a8.3,8.3,0,0,1-1.713.229,3.729,3.729,0,0,1-1.938-.413,2.407,2.407,0,0,1-.991-1.055,8.457,8.457,0,0,1-.27-2.707v-7.89h-1.667V13.15h1.667V9.755l2.3-1.376V13.15h2.3v1.835h-2.3v7.982a4.789,4.789,0,0,0,.09,1.284,1.156,1.156,0,0,0,.406.459,1.284,1.284,0,0,0,.766.183A7.171,7.171,0,0,0,204.577,24.8Zm0,0" transform="translate(-137.29 373.709)"/>
        <path id="Pfad_182" data-name="Pfad 182" d="M201.984,29.514V10.568h2.073v1.789a5.034,5.034,0,0,1,1.622-1.56,4.9,4.9,0,0,1,2.3-.5,5.187,5.187,0,0,1,3.02.917,5.449,5.449,0,0,1,1.983,2.523,9.354,9.354,0,0,1,.676,3.578,9.219,9.219,0,0,1-.766,3.807,5.426,5.426,0,0,1-5.093,3.486,4.112,4.112,0,0,1-2.028-.5,4.753,4.753,0,0,1-1.487-1.239v6.652ZM204.058,17.5a6.168,6.168,0,0,0,1.037,3.945,3.307,3.307,0,0,0,2.569,1.239,3.245,3.245,0,0,0,2.569-1.284,6.222,6.222,0,0,0,1.127-4.083,5.96,5.96,0,0,0-1.082-3.9,3.124,3.124,0,0,0-2.524-1.33,3.247,3.247,0,0,0-2.569,1.422A6.13,6.13,0,0,0,204.058,17.5Zm0,0" transform="translate(-132.49 376.29)"/>
        <path id="Pfad_183" data-name="Pfad 183" d="M217.1,24.126V22.108a4.927,4.927,0,0,1-4.281,2.34,5.384,5.384,0,0,1-2.208-.459A4.254,4.254,0,0,1,209.03,22.8a3.766,3.766,0,0,1-.676-1.7,12.689,12.689,0,0,1-.135-2.2V10.41h2.253v7.615a9.874,9.874,0,0,0,.18,2.431,2.342,2.342,0,0,0,.856,1.468,2.856,2.856,0,0,0,1.758.5,3.826,3.826,0,0,0,1.938-.5,3,3,0,0,0,1.262-1.468,7.9,7.9,0,0,0,.361-2.707V10.41h2.3V24.126Zm0,0" transform="translate(-124.338 376.448)"/>
        <path id="Pfad_184" data-name="Pfad 184" d="M220.206,24.8l.315,2.018a8.149,8.149,0,0,1-1.713.229,3.751,3.751,0,0,1-1.938-.413,2.459,2.459,0,0,1-.992-1.055,8.458,8.458,0,0,1-.27-2.707v-7.89h-1.668V13.15h1.668V9.755l2.3-1.376V13.15h2.3v1.835h-2.3v7.982a5.223,5.223,0,0,0,.09,1.284,1.156,1.156,0,0,0,.406.459,1.3,1.3,0,0,0,.766.183A7.068,7.068,0,0,0,220.206,24.8Zm0,0" transform="translate(-116.856 373.709)"/>
        <path id="Pfad_185" data-name="Pfad 185" d="M90,208.273h51.918V261.12H90Zm0,0" transform="translate(-431.775 335.041)" fill="#fff" stroke="#000" stroke-linecap="round" stroke-linejoin="round" stroke-miterlimit="10" stroke-width="1.25"/>
        <path id="Pfad_186" data-name="Pfad 186" d="M32.4,85.7V83.449H44.432v1.789a27,27,0,0,0-3.515,5.138,30.288,30.288,0,0,0-2.7,6.56,24.069,24.069,0,0,0-.856,5.184H35.012a23.771,23.771,0,0,1,.856-5.367,28.179,28.179,0,0,1,2.344-6.1A28.926,28.926,0,0,1,41.5,85.7Zm0,0" transform="translate(-354.217 474.958)"/>
        <path id="Pfad_187" data-name="Pfad 187" d="M90,163.273h51.918V216.12H90Zm0,0" transform="translate(-431.775 274.349)" fill="#b2d9ff" stroke="#000" stroke-linecap="round" stroke-linejoin="round" stroke-miterlimit="10" stroke-width="1.25"/>
        <path id="Pfad_188" data-name="Pfad 188" d="M39.952,57.3h-2.3V42.487a11.256,11.256,0,0,1-2.163,1.651A13.6,13.6,0,0,1,33.1,45.285V43.037a12.956,12.956,0,0,0,3.335-2.156,8.834,8.834,0,0,0,2.028-2.569h1.487Zm0,0" transform="translate(-353.298 414.081)"/>
        <path id="Pfad_189" data-name="Pfad 189" d="M90,185.773h51.918V238.62H90Zm0,0" transform="translate(-431.775 304.695)" fill="#b2d9ff" stroke="#000" stroke-linecap="round" stroke-linejoin="round" stroke-miterlimit="10" stroke-width="1.25"/>
        <path id="Pfad_190" data-name="Pfad 190" d="M40.075,79.751V75.21H32.008V73.1l8.473-12.248h1.893V73.1H44.9v2.11H42.373v4.541Zm0-6.652V64.567L34.261,73.1Zm0,0" transform="translate(-354.728 444.48)"/>
        <path id="Pfad_191" data-name="Pfad 191" d="M67.5,208.273h51.918V261.12H67.5Zm0,0" transform="translate(-461.193 335.041)" fill="#fff" stroke="#000" stroke-linecap="round" stroke-linejoin="round" stroke-miterlimit="10" stroke-width="1.25"/>
        <path id="Pfad_192" data-name="Pfad 192" d="M21.744,88.037l-2.3.183a4.258,4.258,0,0,0-.856-2.018,2.962,2.962,0,0,0-2.253-.963,3.25,3.25,0,0,0-1.938.6,5.492,5.492,0,0,0-1.713,2.34,12.979,12.979,0,0,0-.631,4.358A5.206,5.206,0,0,1,14.037,90.7a5.4,5.4,0,0,1,2.524-.642,5.132,5.132,0,0,1,3.876,1.7,6.13,6.13,0,0,1,1.622,4.4,7.536,7.536,0,0,1-.766,3.349,5.843,5.843,0,0,1-2.073,2.34,5.766,5.766,0,0,1-2.974.78,5.8,5.8,0,0,1-4.642-2.11c-1.208-1.431-1.8-3.78-1.8-7.065q0-5.45,1.983-7.982a5.67,5.67,0,0,1,4.687-2.156,5.122,5.122,0,0,1,3.56,1.284A5.491,5.491,0,0,1,21.744,88.037Zm-9.329,8.12a5.586,5.586,0,0,0,.5,2.34,3.734,3.734,0,0,0,1.4,1.651,3.546,3.546,0,0,0,1.893.55,3.223,3.223,0,0,0,2.479-1.147,4.817,4.817,0,0,0,1.037-3.257,4.355,4.355,0,0,0-1.037-3.074,3.293,3.293,0,0,0-2.569-1.147A3.5,3.5,0,0,0,13.5,93.221,4.027,4.027,0,0,0,12.415,96.157Zm0,0" transform="translate(-383.763 474.773)"/>
        <path id="Pfad_193" data-name="Pfad 193" d="M112.5,185.773h51.918V238.62H112.5Zm0,0" transform="translate(-402.357 304.695)" fill="#b2d9ff" stroke="#000" stroke-linecap="round" stroke-linejoin="round" stroke-miterlimit="10" stroke-width="1.25"/>
        <path id="Pfad_194" data-name="Pfad 194" d="M54.84,74.665l2.389-.229a4.592,4.592,0,0,0,1.217,2.707,3.4,3.4,0,0,0,2.344.872,3.638,3.638,0,0,0,2.794-1.239,4.782,4.782,0,0,0,1.172-3.349,4.354,4.354,0,0,0-1.127-3.165,4.057,4.057,0,0,0-4.867-.6,4.529,4.529,0,0,0-1.4,1.284l-2.118-.275,1.8-9.725h9.239V63.2H58.851l-.991,5.046A6.18,6.18,0,0,1,61.375,67.1a5.581,5.581,0,0,1,4.1,1.7,6.048,6.048,0,0,1,1.668,4.4,7.1,7.1,0,0,1-1.442,4.45,5.887,5.887,0,0,1-4.912,2.294,6.025,6.025,0,0,1-4.146-1.422A5.739,5.739,0,0,1,54.84,74.665Zm0,0" transform="translate(-324.876 444.611)"/>
        <path id="Pfad_195" data-name="Pfad 195" d="M67.5,185.773h51.918V238.62H67.5Zm0,0" transform="translate(-461.193 304.695)" fill="#fff" stroke="#000" stroke-linecap="round" stroke-linejoin="round" stroke-miterlimit="10" stroke-width="1.25"/>
        <path id="Pfad_196" data-name="Pfad 196" d="M9.84,74.8l2.3-.321a5.321,5.321,0,0,0,1.307,2.844,3.292,3.292,0,0,0,2.344.872,3.592,3.592,0,0,0,2.659-1.1,3.881,3.881,0,0,0,1.127-2.844,3.53,3.53,0,0,0-1.037-2.615,3.405,3.405,0,0,0-2.569-1.055,5.962,5.962,0,0,0-1.622.275l.27-2.064a1.473,1.473,0,0,0,.361.046,4.543,4.543,0,0,0,2.614-.78,2.66,2.66,0,0,0,1.172-2.385,2.834,2.834,0,0,0-.856-2.11,3.059,3.059,0,0,0-2.208-.826,3.092,3.092,0,0,0-2.208.872,4.357,4.357,0,0,0-1.127,2.523l-2.3-.413A6.249,6.249,0,0,1,11.958,62.1a5.5,5.5,0,0,1,3.7-1.284,5.765,5.765,0,0,1,2.794.688,4.654,4.654,0,0,1,2.659,4.22,3.923,3.923,0,0,1-.676,2.248,4.26,4.26,0,0,1-1.893,1.606,4.216,4.216,0,0,1,2.569,1.606,4.97,4.97,0,0,1,.9,3.028,5.656,5.656,0,0,1-1.8,4.22,6.136,6.136,0,0,1-4.462,1.7,5.763,5.763,0,0,1-4.056-1.468A5.665,5.665,0,0,1,9.84,74.8Zm0,0" transform="translate(-383.712 444.427)"/>
        <path id="Pfad_197" data-name="Pfad 197" d="M112.5,208.273h51.918V261.12H112.5Zm0,0" transform="translate(-402.357 335.041)" fill="#fff" stroke="#000" stroke-linecap="round" stroke-linejoin="round" stroke-miterlimit="10" stroke-width="1.25"/>
        <path id="Pfad_198" data-name="Pfad 198" d="M58.381,92.028a4.116,4.116,0,0,1-2.118-1.468,4.157,4.157,0,0,1-.676-2.385,4.548,4.548,0,0,1,1.442-3.441A5.423,5.423,0,0,1,60.9,83.313a5.364,5.364,0,0,1,3.921,1.468,4.646,4.646,0,0,1,1.487,3.486,3.985,3.985,0,0,1-.676,2.294,4.138,4.138,0,0,1-2.073,1.468,5.291,5.291,0,0,1,2.614,1.881,4.983,4.983,0,0,1,.9,2.982,5.449,5.449,0,0,1-1.713,4.083,6.017,6.017,0,0,1-4.417,1.651,6.139,6.139,0,0,1-4.462-1.651,5.551,5.551,0,0,1-1.668-4.129,5.089,5.089,0,0,1,.9-3.074A4.768,4.768,0,0,1,58.381,92.028Zm-.451-3.9a2.821,2.821,0,0,0,3.02,3.028,2.963,2.963,0,0,0,2.163-5.046,3.12,3.12,0,0,0-4.326,0A2.684,2.684,0,0,0,57.93,88.129Zm-.766,8.716a4.2,4.2,0,0,0,.451,1.927,3.346,3.346,0,0,0,1.4,1.422,3.851,3.851,0,0,0,1.983.5,3.525,3.525,0,0,0,2.659-1.055,3.607,3.607,0,0,0,1.082-2.707,3.847,3.847,0,0,0-1.082-2.8,3.7,3.7,0,0,0-2.749-1.1,3.635,3.635,0,0,0-2.7,1.1A3.8,3.8,0,0,0,57.164,96.845Zm0,0" transform="translate(-324.901 474.773)"/>
        <path id="Pfad_199" data-name="Pfad 199" d="M112.5,163.273h51.918V216.12H112.5Zm0,0" transform="translate(-402.357 274.349)" fill="#b2d9ff" stroke="#000" stroke-linecap="round" stroke-linejoin="round" stroke-miterlimit="10" stroke-width="1.25"/>
        <path id="Pfad_200" data-name="Pfad 200" d="M67.007,55.056V57.3H54.7a4.921,4.921,0,0,1,.27-1.606,8.97,8.97,0,0,1,1.532-2.523,23.472,23.472,0,0,1,2.974-2.844,25.088,25.088,0,0,0,4.056-4.037,4.735,4.735,0,0,0,1.082-2.8,3.024,3.024,0,0,0-.991-2.294,3.325,3.325,0,0,0-2.479-.963,3.592,3.592,0,0,0-2.659,1.009,3.806,3.806,0,0,0-.991,2.8l-2.344-.275a5.74,5.74,0,0,1,1.8-4.037,6.131,6.131,0,0,1,4.236-1.422,5.722,5.722,0,0,1,4.191,1.514,4.972,4.972,0,0,1,1.577,3.716,5.918,5.918,0,0,1-.451,2.248,8.789,8.789,0,0,1-1.532,2.34,34.658,34.658,0,0,1-3.47,3.3c-1.388,1.174-2.271,1.963-2.659,2.385a8.46,8.46,0,0,0-.946,1.239Zm0,0" transform="translate(-325.055 414.081)"/>
        <path id="Pfad_201" data-name="Pfad 201" d="M67.5,163.273h51.918V216.12H67.5Zm0,0" transform="translate(-461.193 274.349)" fill="#fff" stroke="#000" stroke-linecap="round" stroke-linejoin="round" stroke-miterlimit="10" stroke-width="1.25"/>
        <path id="Pfad_202" data-name="Pfad 202" d="M9.84,47.992a17.875,17.875,0,0,1,.676-5.413A6.749,6.749,0,0,1,12.5,39.413a5.178,5.178,0,0,1,3.38-1.1,5.368,5.368,0,0,1,2.659.642A5.048,5.048,0,0,1,20.386,40.7a9.637,9.637,0,0,1,1.127,2.8,17.948,17.948,0,0,1,.451,4.5,17.632,17.632,0,0,1-.676,5.367,6.785,6.785,0,0,1-2.028,3.165,5.078,5.078,0,0,1-3.38,1.1,5,5,0,0,1-4.191-1.973C10.453,54.093,9.84,51.552,9.84,47.992Zm2.344,0q0,4.652,1.037,6.193a3.092,3.092,0,0,0,5.318,0q1.082-1.541,1.082-6.193,0-4.679-1.082-6.193a3.2,3.2,0,0,0-2.659-1.56,2.961,2.961,0,0,0-2.524,1.33C12.571,42.744,12.183,44.872,12.183,47.992Zm0,0" transform="translate(-383.712 414.081)"/>
        <path id="Pfad_203" data-name="Pfad 203" d="M23.543,27.1V8.2h2.434V27.1Zm0,0" transform="translate(-365.795 373.472)"/>
        <path id="Pfad_204" data-name="Pfad 204" d="M26.355,24.284V10.568h2.073v1.973a4.786,4.786,0,0,1,4.281-2.248,5.233,5.233,0,0,1,2.208.459A3.291,3.291,0,0,1,36.451,11.9a4.6,4.6,0,0,1,.721,1.7,12.658,12.658,0,0,1,.135,2.248v8.441h-2.3V15.935a6.189,6.189,0,0,0-.27-2.11,2.224,2.224,0,0,0-.946-1.1,2.829,2.829,0,0,0-1.577-.459,3.671,3.671,0,0,0-2.524.963c-.694.615-1.037,1.807-1.037,3.578v7.477Zm0,0" transform="translate(-362.118 376.29)"/>
        <path id="Pfad_205" data-name="Pfad 205" d="M32.609,29.514V10.568h2.073v1.789A5.035,5.035,0,0,1,36.3,10.8a4.9,4.9,0,0,1,2.3-.5,5.187,5.187,0,0,1,3.02.917,5.449,5.449,0,0,1,1.983,2.523,9.354,9.354,0,0,1,.676,3.578,9.219,9.219,0,0,1-.766,3.807,5.426,5.426,0,0,1-5.093,3.486,4.112,4.112,0,0,1-2.028-.5,4.753,4.753,0,0,1-1.487-1.239v6.652ZM34.682,17.5a6.168,6.168,0,0,0,1.037,3.945,3.307,3.307,0,0,0,2.569,1.239,3.245,3.245,0,0,0,2.569-1.284,6.222,6.222,0,0,0,1.127-4.083,5.96,5.96,0,0,0-1.082-3.9,3.124,3.124,0,0,0-2.524-1.33A3.247,3.247,0,0,0,35.809,13.5,6.13,6.13,0,0,0,34.682,17.5Zm0,0" transform="translate(-353.941 376.29)"/>
        <path id="Pfad_206" data-name="Pfad 206" d="M47.722,24.126V22.108a4.927,4.927,0,0,1-4.281,2.34,5.384,5.384,0,0,1-2.208-.459A4.254,4.254,0,0,1,39.655,22.8a3.767,3.767,0,0,1-.676-1.7,12.691,12.691,0,0,1-.135-2.2V10.41H41.1v7.615a9.875,9.875,0,0,0,.18,2.431,2.342,2.342,0,0,0,.856,1.468,2.856,2.856,0,0,0,1.758.5,3.826,3.826,0,0,0,1.938-.5,3,3,0,0,0,1.262-1.468,7.9,7.9,0,0,0,.361-2.707V10.41h2.3V24.126Zm0,0" transform="translate(-345.79 376.448)"/>
        <path id="Pfad_207" data-name="Pfad 207" d="M50.831,24.8l.315,2.018a8.149,8.149,0,0,1-1.713.229,3.752,3.752,0,0,1-1.938-.413,2.459,2.459,0,0,1-.991-1.055,8.458,8.458,0,0,1-.27-2.707v-7.89H44.566V13.15h1.668V9.755l2.3-1.376V13.15h2.3v1.835h-2.3v7.982a5.221,5.221,0,0,0,.09,1.284,1.156,1.156,0,0,0,.406.459,1.3,1.3,0,0,0,.766.183A7.069,7.069,0,0,0,50.831,24.8Zm0,0" transform="translate(-338.308 373.709)"/>
        <text id="MAX-2" data-name="MAX" transform="translate(-103.15 508.56)" font-size="21" font-family="ArialMT, Arial"><tspan x="0" y="0">MAX</tspan></text>
        <path id="Pfad_208" data-name="Pfad 208" d="M243.016,197.023h51.918V249.87H243.016Zm0,0" transform="translate(-231.712 319.868)" fill="#fff" stroke="#000" stroke-linecap="round" stroke-linejoin="round" stroke-miterlimit="10" stroke-width="1.25"/>
        <path id="Pfad_209" data-name="Pfad 209" d="M265.516,197.023h51.918V249.87H265.516Zm0,0" transform="translate(-202.294 319.868)" fill="#fff" stroke="#000" stroke-linecap="round" stroke-linejoin="round" stroke-miterlimit="10" stroke-width="1.25"/>
        <path id="Pfad_210" data-name="Pfad 210" d="M265.516,174.523h51.918V227.37H265.516Zm0,0" transform="translate(-202.294 289.522)" fill="#b2d9ff" stroke="#000" stroke-linecap="round" stroke-linejoin="round" stroke-miterlimit="10" stroke-width="1.25"/>
        <path id="Pfad_211" data-name="Pfad 211" d="M243.016,174.523h51.918V227.37H243.016Zm0,0" transform="translate(-231.712 290.164)" fill="#fff" stroke="#000" stroke-linecap="round" stroke-linejoin="round" stroke-miterlimit="10" stroke-width="1.25"/>
        <text id="_4-2" data-name="4" transform="translate(30.85 495.56)" font-size="20" font-family="ArialMT, Arial"><tspan x="0" y="0">4</tspan></text>
        <text id="_5-2" data-name="5" transform="translate(80.85 495.56)" font-size="20" font-family="ArialMT, Arial"><tspan x="0" y="0">5</tspan></text>
        <text id="_7-2" data-name="7" transform="translate(30.85 550.56)" font-size="20" font-family="ArialMT, Arial"><tspan x="0" y="0">7</tspan></text>
        <text id="_8-2" data-name="8" transform="translate(80.85 550.56)" font-size="20" font-family="ArialMT, Arial"><tspan x="0" y="0">8</tspan></text>
        <text id="_5_4_2_1_5" data-name="5&gt;4&gt;2&gt;1=5" transform="translate(-253.15 669.56)" font-size="32" font-family="ArialMT, Arial"><tspan x="0" y="0">5&gt;4&gt;2&gt;1=5</tspan></text>
      </g>
      <g id="Gruppe_55" data-name="Gruppe 55" transform="translate(-5 -352.616)">
        <path id="Pfad_212" data-name="Pfad 212" d="M155.625,180H311.379v79.269H155.625Zm0,0" transform="translate(-341.357 649.216)" fill="#fff" stroke="#000" stroke-linecap="round" stroke-linejoin="round" stroke-miterlimit="10" stroke-width="1.25"/>
        <path id="Pfad_213" data-name="Pfad 213" d="M111.378,71.416v2.248h-12.3a4.881,4.881,0,0,1,.27-1.606,8.644,8.644,0,0,1,1.532-2.523,22.844,22.844,0,0,1,2.974-2.844,26.288,26.288,0,0,0,4.056-4.037,4.756,4.756,0,0,0,1.082-2.8A3.042,3.042,0,0,0,108,57.562a3.339,3.339,0,0,0-2.479-.963,3.542,3.542,0,0,0-2.659,1.009,3.806,3.806,0,0,0-.992,2.8l-2.343-.275a5.686,5.686,0,0,1,1.8-4.037,6.072,6.072,0,0,1,4.236-1.422,5.722,5.722,0,0,1,4.191,1.514,4.971,4.971,0,0,1,1.577,3.716,6.1,6.1,0,0,1-.451,2.248,8.79,8.79,0,0,1-1.532,2.34,38.1,38.1,0,0,1-3.47,3.3,32.774,32.774,0,0,0-2.659,2.385,7.586,7.586,0,0,0-.946,1.239Zm0,0" transform="translate(-262.426 788.453)"/>
        <path id="Pfad_214" data-name="Pfad 214" d="M108.2,70.634l4.912-7.11-4.552-6.606h2.884l2.073,3.211c.361.615.649,1.138.9,1.56.379-.578.73-1.083,1.037-1.514l2.253-3.257h2.749l-4.642,6.468,5,7.248h-2.794l-2.794-4.266-.721-1.147L111,70.634Zm0,0" transform="translate(-250.49 791.482)"/>
        <path id="Pfad_215" data-name="Pfad 215" d="M129.511,71.416v2.248h-12.3a4.88,4.88,0,0,1,.27-1.606,8.643,8.643,0,0,1,1.532-2.523,22.843,22.843,0,0,1,2.974-2.844,26.288,26.288,0,0,0,4.056-4.037,4.756,4.756,0,0,0,1.082-2.8,3.042,3.042,0,0,0-.991-2.294,3.339,3.339,0,0,0-2.479-.963,3.542,3.542,0,0,0-2.659,1.009,3.806,3.806,0,0,0-.991,2.8l-2.344-.275a5.686,5.686,0,0,1,1.8-4.037,6.072,6.072,0,0,1,4.236-1.422,5.722,5.722,0,0,1,4.191,1.514,4.971,4.971,0,0,1,1.577,3.716,6.1,6.1,0,0,1-.451,2.248,8.788,8.788,0,0,1-1.532,2.34,38.1,38.1,0,0,1-3.47,3.3,32.779,32.779,0,0,0-2.659,2.385,7.589,7.589,0,0,0-.946,1.239Zm0,0" transform="translate(-238.718 788.453)"/>
        <path id="Pfad_216" data-name="Pfad 216" d="M105.219,86.478v-18.9h7.031a17.964,17.964,0,0,1,2.839.183,5.657,5.657,0,0,1,2.253.872,4.348,4.348,0,0,1,1.487,1.835,5.629,5.629,0,0,1,.586,2.569,5.784,5.784,0,0,1-1.532,4.083q-1.487,1.651-5.408,1.651H107.7v7.707Zm2.479-9.909h4.822a4.8,4.8,0,0,0,3.335-.917,3.173,3.173,0,0,0,1.037-2.523,3.433,3.433,0,0,0-.586-2.018,2.741,2.741,0,0,0-1.577-1.147,9.847,9.847,0,0,0-2.3-.183H107.7Zm0,0" transform="translate(-254.392 805.86)"/>
        <path id="Pfad_217" data-name="Pfad 217" d="M112.234,76.824c0-2.532.685-4.413,2.073-5.642a6.262,6.262,0,0,1,4.236-1.514A6.041,6.041,0,0,1,123.1,71.5a7.079,7.079,0,0,1,1.758,5.092,8.9,8.9,0,0,1-.811,4.174,5.7,5.7,0,0,1-2.253,2.385,6.574,6.574,0,0,1-3.245.826,6.054,6.054,0,0,1-4.6-1.835A7.6,7.6,0,0,1,112.234,76.824Zm2.344,0a5.926,5.926,0,0,0,1.127,3.945,3.78,3.78,0,0,0,5.679,0,6.133,6.133,0,0,0,1.127-4.037,5.839,5.839,0,0,0-1.127-3.853,3.7,3.7,0,0,0-5.679,0A5.844,5.844,0,0,0,114.578,76.824Zm0,0" transform="translate(-245.22 808.678)"/>
        <path id="Pfad_218" data-name="Pfad 218" d="M118.492,76.824c0-2.532.685-4.413,2.073-5.642a6.262,6.262,0,0,1,4.236-1.514,6.041,6.041,0,0,1,4.552,1.835,7.079,7.079,0,0,1,1.758,5.092,8.9,8.9,0,0,1-.811,4.174,5.7,5.7,0,0,1-2.253,2.385,6.574,6.574,0,0,1-3.245.826,6.054,6.054,0,0,1-4.6-1.835A7.6,7.6,0,0,1,118.492,76.824Zm2.344,0a5.926,5.926,0,0,0,1.127,3.945,3.78,3.78,0,0,0,5.679,0,6.133,6.133,0,0,0,1.127-4.037,5.839,5.839,0,0,0-1.127-3.853,3.7,3.7,0,0,0-5.679,0A5.844,5.844,0,0,0,120.836,76.824Zm0,0" transform="translate(-237.038 808.678)"/>
        <path id="Pfad_219" data-name="Pfad 219" d="M125.1,86.478v-18.9h2.253v18.9Zm0,0" transform="translate(-228.396 805.86)"/>
        <path id="Pfad_220" data-name="Pfad 220" d="M127.621,70.239V67.578h2.3v2.661Zm0,16.239V72.762h2.3V86.478Zm0,0" transform="translate(-225.102 805.86)"/>
        <path id="Pfad_221" data-name="Pfad 221" d="M130.121,83.659V69.943h2.073v1.973a4.776,4.776,0,0,1,4.281-2.248,5.263,5.263,0,0,1,2.208.459,3.386,3.386,0,0,1,1.532,1.147,4.92,4.92,0,0,1,.721,1.7,12.66,12.66,0,0,1,.135,2.248v8.441h-2.3V75.31a6.189,6.189,0,0,0-.27-2.11,2.224,2.224,0,0,0-.946-1.1,2.851,2.851,0,0,0-1.577-.459,3.655,3.655,0,0,0-2.524.963c-.7.615-1.037,1.807-1.037,3.578v7.477Zm0,0" transform="translate(-221.833 808.678)"/>
        <path id="Pfad_222" data-name="Pfad 222" d="M136.458,84.806l2.208.321a2.078,2.078,0,0,0,.766,1.514,3.841,3.841,0,0,0,2.344.642,4.061,4.061,0,0,0,2.434-.642,3.381,3.381,0,0,0,1.172-1.789,16.228,16.228,0,0,0,.135-2.982,4.636,4.636,0,0,1-3.7,1.789,5.054,5.054,0,0,1-4.326-2.018,8.166,8.166,0,0,1-1.487-4.908,9.487,9.487,0,0,1,.676-3.624,5.53,5.53,0,0,1,2.028-2.523,5.291,5.291,0,0,1,3.11-.917,4.808,4.808,0,0,1,3.921,1.927V69.943h2.118V81.779a10.914,10.914,0,0,1-.676,4.541,4.928,4.928,0,0,1-2.028,2.11,6.745,6.745,0,0,1-3.38.78,6.433,6.433,0,0,1-3.921-1.1A3.744,3.744,0,0,1,136.458,84.806Zm1.893-8.257a6.028,6.028,0,0,0,1.037,3.945A3.241,3.241,0,0,0,142,81.733a3.4,3.4,0,0,0,2.659-1.239,5.755,5.755,0,0,0,1.082-3.853,5.7,5.7,0,0,0-1.127-3.807,3.3,3.3,0,0,0-5.228,0A5.614,5.614,0,0,0,138.351,76.549Zm0,0" transform="translate(-214.137 808.678)"/>
        <path id="Pfad_223" data-name="Pfad 223" d="M183.66,18.093a10.331,10.331,0,0,1,2.479-7.34,8.3,8.3,0,0,1,6.4-2.707,8.759,8.759,0,0,1,4.642,1.284,8.089,8.089,0,0,1,3.155,3.486,11.546,11.546,0,0,1,1.082,5.046,11.625,11.625,0,0,1-1.127,5.184,7.92,7.92,0,0,1-3.245,3.441,9.109,9.109,0,0,1-4.507,1.147,8.641,8.641,0,0,1-4.687-1.284,8.2,8.2,0,0,1-3.155-3.532A11.068,11.068,0,0,1,183.66,18.093Zm2.524.046a7.673,7.673,0,0,0,1.8,5.413,5.953,5.953,0,0,0,4.552,1.927,5.894,5.894,0,0,0,4.552-1.973,8.062,8.062,0,0,0,1.8-5.642,9.766,9.766,0,0,0-.766-3.991,6.07,6.07,0,0,0-2.253-2.707,5.933,5.933,0,0,0-3.29-.963,6.254,6.254,0,0,0-4.507,1.835C186.815,13.267,186.184,15.295,186.184,18.139Zm0,0" transform="translate(-151.833 725.569)"/>
        <path id="Pfad_224" data-name="Pfad 224" d="M201.464,24.126V22.108a4.916,4.916,0,0,1-4.281,2.34,5.415,5.415,0,0,1-2.208-.459A4.33,4.33,0,0,1,193.4,22.8a3.982,3.982,0,0,1-.676-1.7,12.686,12.686,0,0,1-.135-2.2V10.41h2.253v7.615a9.874,9.874,0,0,0,.18,2.431,2.383,2.383,0,0,0,.856,1.468,2.892,2.892,0,0,0,1.758.5,3.8,3.8,0,0,0,1.938-.5,2.959,2.959,0,0,0,1.262-1.468,7.9,7.9,0,0,0,.361-2.707V10.41h2.3V24.126Zm0,0" transform="translate(-140.163 728.756)"/>
        <path id="Pfad_225" data-name="Pfad 225" d="M204.577,24.8l.315,2.018a8.3,8.3,0,0,1-1.713.229,3.729,3.729,0,0,1-1.938-.413,2.407,2.407,0,0,1-.991-1.055,8.457,8.457,0,0,1-.27-2.707v-7.89h-1.667V13.15h1.667V9.755l2.3-1.376V13.15h2.3v1.835h-2.3v7.982a4.789,4.789,0,0,0,.09,1.284,1.156,1.156,0,0,0,.406.459,1.284,1.284,0,0,0,.766.183A7.171,7.171,0,0,0,204.577,24.8Zm0,0" transform="translate(-132.675 726.017)"/>
        <path id="Pfad_226" data-name="Pfad 226" d="M201.984,29.514V10.568h2.073v1.789a5.034,5.034,0,0,1,1.622-1.56,4.9,4.9,0,0,1,2.3-.5,5.187,5.187,0,0,1,3.02.917,5.449,5.449,0,0,1,1.983,2.523,9.354,9.354,0,0,1,.676,3.578,9.219,9.219,0,0,1-.766,3.807,5.426,5.426,0,0,1-5.093,3.486,4.112,4.112,0,0,1-2.028-.5,4.753,4.753,0,0,1-1.487-1.239v6.652ZM204.058,17.5a6.168,6.168,0,0,0,1.037,3.945,3.307,3.307,0,0,0,2.569,1.239,3.245,3.245,0,0,0,2.569-1.284,6.222,6.222,0,0,0,1.127-4.083,5.96,5.96,0,0,0-1.082-3.9,3.124,3.124,0,0,0-2.524-1.33,3.247,3.247,0,0,0-2.569,1.422A6.13,6.13,0,0,0,204.058,17.5Zm0,0" transform="translate(-127.875 728.598)"/>
        <path id="Pfad_227" data-name="Pfad 227" d="M217.1,24.126V22.108a4.927,4.927,0,0,1-4.281,2.34,5.384,5.384,0,0,1-2.208-.459A4.254,4.254,0,0,1,209.03,22.8a3.766,3.766,0,0,1-.676-1.7,12.689,12.689,0,0,1-.135-2.2V10.41h2.253v7.615a9.874,9.874,0,0,0,.18,2.431,2.342,2.342,0,0,0,.856,1.468,2.856,2.856,0,0,0,1.758.5,3.826,3.826,0,0,0,1.938-.5,3,3,0,0,0,1.262-1.468,7.9,7.9,0,0,0,.361-2.707V10.41h2.3V24.126Zm0,0" transform="translate(-119.723 728.756)"/>
        <path id="Pfad_228" data-name="Pfad 228" d="M220.206,24.8l.315,2.018a8.149,8.149,0,0,1-1.713.229,3.751,3.751,0,0,1-1.938-.413,2.459,2.459,0,0,1-.992-1.055,8.458,8.458,0,0,1-.27-2.707v-7.89h-1.668V13.15h1.668V9.755l2.3-1.376V13.15h2.3v1.835h-2.3v7.982a5.223,5.223,0,0,0,.09,1.284,1.156,1.156,0,0,0,.406.459,1.3,1.3,0,0,0,.766.183A7.068,7.068,0,0,0,220.206,24.8Zm0,0" transform="translate(-112.241 726.017)"/>
        <path id="Pfad_229" data-name="Pfad 229" d="M90,208.273h51.918V261.12H90Zm0,0" transform="translate(-427.16 687.349)" fill="#b2d9ff" stroke="#000" stroke-linecap="round" stroke-linejoin="round" stroke-miterlimit="10" stroke-width="1.25"/>
        <path id="Pfad_230" data-name="Pfad 230" d="M32.4,85.7V83.449H44.432v1.789a27,27,0,0,0-3.515,5.138,30.288,30.288,0,0,0-2.7,6.56,24.069,24.069,0,0,0-.856,5.184H35.012a23.771,23.771,0,0,1,.856-5.367,28.179,28.179,0,0,1,2.344-6.1A28.926,28.926,0,0,1,41.5,85.7Zm0,0" transform="translate(-349.602 827.265)"/>
        <path id="Pfad_231" data-name="Pfad 231" d="M90,163.273h51.918V216.12H90Zm0,0" transform="translate(-427.16 626.656)" fill="#fff" stroke="#000" stroke-linecap="round" stroke-linejoin="round" stroke-miterlimit="10" stroke-width="1.25"/>
        <path id="Pfad_232" data-name="Pfad 232" d="M39.952,57.3h-2.3V42.487a11.256,11.256,0,0,1-2.163,1.651A13.6,13.6,0,0,1,33.1,45.285V43.037a12.956,12.956,0,0,0,3.335-2.156,8.834,8.834,0,0,0,2.028-2.569h1.487Zm0,0" transform="translate(-348.683 766.389)"/>
        <path id="Pfad_233" data-name="Pfad 233" d="M90,185.773h51.918V238.62H90Zm0,0" transform="translate(-427.16 657.003)" fill="#b2d9ff" stroke="#000" stroke-linecap="round" stroke-linejoin="round" stroke-miterlimit="10" stroke-width="1.25"/>
        <path id="Pfad_234" data-name="Pfad 234" d="M40.075,79.751V75.21H32.008V73.1l8.473-12.248h1.893V73.1H44.9v2.11H42.373v4.541Zm0-6.652V64.567L34.261,73.1Zm0,0" transform="translate(-350.113 796.788)"/>
        <path id="Pfad_235" data-name="Pfad 235" d="M67.5,208.273h51.918V261.12H67.5Zm0,0" transform="translate(-456.578 687.349)" fill="#b2d9ff" stroke="#000" stroke-linecap="round" stroke-linejoin="round" stroke-miterlimit="10" stroke-width="1.25"/>
        <path id="Pfad_236" data-name="Pfad 236" d="M21.744,88.037l-2.3.183a4.258,4.258,0,0,0-.856-2.018,2.962,2.962,0,0,0-2.253-.963,3.25,3.25,0,0,0-1.938.6,5.492,5.492,0,0,0-1.713,2.34,12.979,12.979,0,0,0-.631,4.358A5.206,5.206,0,0,1,14.037,90.7a5.4,5.4,0,0,1,2.524-.642,5.132,5.132,0,0,1,3.876,1.7,6.13,6.13,0,0,1,1.622,4.4,7.536,7.536,0,0,1-.766,3.349,5.843,5.843,0,0,1-2.073,2.34,5.766,5.766,0,0,1-2.974.78,5.8,5.8,0,0,1-4.642-2.11c-1.208-1.431-1.8-3.78-1.8-7.065q0-5.45,1.983-7.982a5.67,5.67,0,0,1,4.687-2.156,5.122,5.122,0,0,1,3.56,1.284A5.491,5.491,0,0,1,21.744,88.037Zm-9.329,8.12a5.586,5.586,0,0,0,.5,2.34,3.734,3.734,0,0,0,1.4,1.651,3.546,3.546,0,0,0,1.893.55,3.223,3.223,0,0,0,2.479-1.147,4.817,4.817,0,0,0,1.037-3.257,4.355,4.355,0,0,0-1.037-3.074,3.293,3.293,0,0,0-2.569-1.147A3.5,3.5,0,0,0,13.5,93.221,4.027,4.027,0,0,0,12.415,96.157Zm0,0" transform="translate(-379.148 827.081)"/>
        <path id="Pfad_237" data-name="Pfad 237" d="M112.5,185.773h51.918V238.62H112.5Zm0,0" transform="translate(-397.742 657.003)" fill="#fff" stroke="#000" stroke-linecap="round" stroke-linejoin="round" stroke-miterlimit="10" stroke-width="1.25"/>
        <path id="Pfad_238" data-name="Pfad 238" d="M54.84,74.665l2.389-.229a4.592,4.592,0,0,0,1.217,2.707,3.4,3.4,0,0,0,2.344.872,3.638,3.638,0,0,0,2.794-1.239,4.782,4.782,0,0,0,1.172-3.349,4.354,4.354,0,0,0-1.127-3.165,4.057,4.057,0,0,0-4.867-.6,4.529,4.529,0,0,0-1.4,1.284l-2.118-.275,1.8-9.725h9.239V63.2H58.851l-.991,5.046A6.18,6.18,0,0,1,61.375,67.1a5.581,5.581,0,0,1,4.1,1.7,6.048,6.048,0,0,1,1.668,4.4,7.1,7.1,0,0,1-1.442,4.45,5.887,5.887,0,0,1-4.912,2.294,6.025,6.025,0,0,1-4.146-1.422A5.739,5.739,0,0,1,54.84,74.665Zm0,0" transform="translate(-320.261 796.919)"/>
        <path id="Pfad_239" data-name="Pfad 239" d="M67.5,185.773h51.918V238.62H67.5Zm0,0" transform="translate(-456.578 657.003)" fill="#b2d9ff" stroke="#000" stroke-linecap="round" stroke-linejoin="round" stroke-miterlimit="10" stroke-width="1.25"/>
        <path id="Pfad_240" data-name="Pfad 240" d="M9.84,74.8l2.3-.321a5.321,5.321,0,0,0,1.307,2.844,3.292,3.292,0,0,0,2.344.872,3.592,3.592,0,0,0,2.659-1.1,3.881,3.881,0,0,0,1.127-2.844,3.53,3.53,0,0,0-1.037-2.615,3.405,3.405,0,0,0-2.569-1.055,5.962,5.962,0,0,0-1.622.275l.27-2.064a1.473,1.473,0,0,0,.361.046,4.543,4.543,0,0,0,2.614-.78,2.66,2.66,0,0,0,1.172-2.385,2.834,2.834,0,0,0-.856-2.11,3.059,3.059,0,0,0-2.208-.826,3.092,3.092,0,0,0-2.208.872,4.357,4.357,0,0,0-1.127,2.523l-2.3-.413A6.249,6.249,0,0,1,11.958,62.1a5.5,5.5,0,0,1,3.7-1.284,5.765,5.765,0,0,1,2.794.688,4.654,4.654,0,0,1,2.659,4.22,3.923,3.923,0,0,1-.676,2.248,4.26,4.26,0,0,1-1.893,1.606,4.216,4.216,0,0,1,2.569,1.606,4.97,4.97,0,0,1,.9,3.028,5.656,5.656,0,0,1-1.8,4.22,6.136,6.136,0,0,1-4.462,1.7,5.763,5.763,0,0,1-4.056-1.468A5.665,5.665,0,0,1,9.84,74.8Zm0,0" transform="translate(-379.097 796.735)"/>
        <path id="Pfad_241" data-name="Pfad 241" d="M112.5,208.273h51.918V261.12H112.5Zm0,0" transform="translate(-397.742 687.349)" fill="#fff" stroke="#000" stroke-linecap="round" stroke-linejoin="round" stroke-miterlimit="10" stroke-width="1.25"/>
        <path id="Pfad_242" data-name="Pfad 242" d="M58.381,92.028a4.116,4.116,0,0,1-2.118-1.468,4.157,4.157,0,0,1-.676-2.385,4.548,4.548,0,0,1,1.442-3.441A5.423,5.423,0,0,1,60.9,83.313a5.364,5.364,0,0,1,3.921,1.468,4.646,4.646,0,0,1,1.487,3.486,3.985,3.985,0,0,1-.676,2.294,4.138,4.138,0,0,1-2.073,1.468,5.291,5.291,0,0,1,2.614,1.881,4.983,4.983,0,0,1,.9,2.982,5.449,5.449,0,0,1-1.713,4.083,6.017,6.017,0,0,1-4.417,1.651,6.139,6.139,0,0,1-4.462-1.651,5.551,5.551,0,0,1-1.668-4.129,5.089,5.089,0,0,1,.9-3.074A4.768,4.768,0,0,1,58.381,92.028Zm-.451-3.9a2.821,2.821,0,0,0,3.02,3.028,2.963,2.963,0,0,0,2.163-5.046,3.12,3.12,0,0,0-4.326,0A2.684,2.684,0,0,0,57.93,88.129Zm-.766,8.716a4.2,4.2,0,0,0,.451,1.927,3.346,3.346,0,0,0,1.4,1.422,3.851,3.851,0,0,0,1.983.5,3.525,3.525,0,0,0,2.659-1.055,3.607,3.607,0,0,0,1.082-2.707,3.847,3.847,0,0,0-1.082-2.8,3.7,3.7,0,0,0-2.749-1.1,3.635,3.635,0,0,0-2.7,1.1A3.8,3.8,0,0,0,57.164,96.845Zm0,0" transform="translate(-320.286 827.081)"/>
        <path id="Pfad_243" data-name="Pfad 243" d="M112.5,163.273h51.918V216.12H112.5Zm0,0" transform="translate(-397.742 626.656)" fill="#fff" stroke="#000" stroke-linecap="round" stroke-linejoin="round" stroke-miterlimit="10" stroke-width="1.25"/>
        <path id="Pfad_244" data-name="Pfad 244" d="M67.007,55.056V57.3H54.7a4.921,4.921,0,0,1,.27-1.606,8.97,8.97,0,0,1,1.532-2.523,23.472,23.472,0,0,1,2.974-2.844,25.088,25.088,0,0,0,4.056-4.037,4.735,4.735,0,0,0,1.082-2.8,3.024,3.024,0,0,0-.991-2.294,3.325,3.325,0,0,0-2.479-.963,3.592,3.592,0,0,0-2.659,1.009,3.806,3.806,0,0,0-.991,2.8l-2.344-.275a5.74,5.74,0,0,1,1.8-4.037,6.131,6.131,0,0,1,4.236-1.422,5.722,5.722,0,0,1,4.191,1.514,4.972,4.972,0,0,1,1.577,3.716,5.918,5.918,0,0,1-.451,2.248,8.789,8.789,0,0,1-1.532,2.34,34.658,34.658,0,0,1-3.47,3.3c-1.388,1.174-2.271,1.963-2.659,2.385a8.46,8.46,0,0,0-.946,1.239Zm0,0" transform="translate(-320.44 766.389)"/>
        <path id="Pfad_245" data-name="Pfad 245" d="M67.5,163.273h51.918V216.12H67.5Zm0,0" transform="translate(-456.578 626.656)" fill="#fff" stroke="#000" stroke-linecap="round" stroke-linejoin="round" stroke-miterlimit="10" stroke-width="1.25"/>
        <path id="Pfad_246" data-name="Pfad 246" d="M9.84,47.992a17.875,17.875,0,0,1,.676-5.413A6.749,6.749,0,0,1,12.5,39.413a5.178,5.178,0,0,1,3.38-1.1,5.368,5.368,0,0,1,2.659.642A5.048,5.048,0,0,1,20.386,40.7a9.637,9.637,0,0,1,1.127,2.8,17.948,17.948,0,0,1,.451,4.5,17.632,17.632,0,0,1-.676,5.367,6.785,6.785,0,0,1-2.028,3.165,5.078,5.078,0,0,1-3.38,1.1,5,5,0,0,1-4.191-1.973C10.453,54.093,9.84,51.552,9.84,47.992Zm2.344,0q0,4.652,1.037,6.193a3.092,3.092,0,0,0,5.318,0q1.082-1.541,1.082-6.193,0-4.679-1.082-6.193a3.2,3.2,0,0,0-2.659-1.56,2.961,2.961,0,0,0-2.524,1.33C12.571,42.744,12.183,44.872,12.183,47.992Zm0,0" transform="translate(-379.097 766.389)"/>
        <path id="Pfad_247" data-name="Pfad 247" d="M23.543,27.1V8.2h2.434V27.1Zm0,0" transform="translate(-361.18 725.78)"/>
        <path id="Pfad_248" data-name="Pfad 248" d="M26.355,24.284V10.568h2.073v1.973a4.786,4.786,0,0,1,4.281-2.248,5.233,5.233,0,0,1,2.208.459A3.291,3.291,0,0,1,36.451,11.9a4.6,4.6,0,0,1,.721,1.7,12.658,12.658,0,0,1,.135,2.248v8.441h-2.3V15.935a6.189,6.189,0,0,0-.27-2.11,2.224,2.224,0,0,0-.946-1.1,2.829,2.829,0,0,0-1.577-.459,3.671,3.671,0,0,0-2.524.963c-.694.615-1.037,1.807-1.037,3.578v7.477Zm0,0" transform="translate(-357.503 728.598)"/>
        <path id="Pfad_249" data-name="Pfad 249" d="M32.609,29.514V10.568h2.073v1.789A5.035,5.035,0,0,1,36.3,10.8a4.9,4.9,0,0,1,2.3-.5,5.187,5.187,0,0,1,3.02.917,5.449,5.449,0,0,1,1.983,2.523,9.354,9.354,0,0,1,.676,3.578,9.219,9.219,0,0,1-.766,3.807,5.426,5.426,0,0,1-5.093,3.486,4.112,4.112,0,0,1-2.028-.5,4.753,4.753,0,0,1-1.487-1.239v6.652ZM34.682,17.5a6.168,6.168,0,0,0,1.037,3.945,3.307,3.307,0,0,0,2.569,1.239,3.245,3.245,0,0,0,2.569-1.284,6.222,6.222,0,0,0,1.127-4.083,5.96,5.96,0,0,0-1.082-3.9,3.124,3.124,0,0,0-2.524-1.33A3.247,3.247,0,0,0,35.809,13.5,6.13,6.13,0,0,0,34.682,17.5Zm0,0" transform="translate(-349.326 728.598)"/>
        <path id="Pfad_250" data-name="Pfad 250" d="M47.722,24.126V22.108a4.927,4.927,0,0,1-4.281,2.34,5.384,5.384,0,0,1-2.208-.459A4.254,4.254,0,0,1,39.655,22.8a3.767,3.767,0,0,1-.676-1.7,12.691,12.691,0,0,1-.135-2.2V10.41H41.1v7.615a9.875,9.875,0,0,0,.18,2.431,2.342,2.342,0,0,0,.856,1.468,2.856,2.856,0,0,0,1.758.5,3.826,3.826,0,0,0,1.938-.5,3,3,0,0,0,1.262-1.468,7.9,7.9,0,0,0,.361-2.707V10.41h2.3V24.126Zm0,0" transform="translate(-341.175 728.756)"/>
        <path id="Pfad_251" data-name="Pfad 251" d="M50.831,24.8l.315,2.018a8.149,8.149,0,0,1-1.713.229,3.752,3.752,0,0,1-1.938-.413,2.459,2.459,0,0,1-.991-1.055,8.458,8.458,0,0,1-.27-2.707v-7.89H44.566V13.15h1.668V9.755l2.3-1.376V13.15h2.3v1.835h-2.3v7.982a5.221,5.221,0,0,0,.09,1.284,1.156,1.156,0,0,0,.406.459,1.3,1.3,0,0,0,.766.183A7.069,7.069,0,0,0,50.831,24.8Zm0,0" transform="translate(-333.693 726.017)"/>
        <text id="MAX-3" data-name="MAX" transform="translate(-97.15 859.56)" font-size="21" font-family="ArialMT, Arial"><tspan x="0" y="0">MAX</tspan></text>
        <path id="Pfad_252" data-name="Pfad 252" d="M243.016,197.023h51.918V249.87H243.016Zm0,0" transform="translate(-227.097 672.176)" fill="#b2d9ff" stroke="#000" stroke-linecap="round" stroke-linejoin="round" stroke-miterlimit="10" stroke-width="1.25"/>
        <path id="Pfad_253" data-name="Pfad 253" d="M265.516,197.023h51.918V249.87H265.516Zm0,0" transform="translate(-197.679 672.176)" fill="#fff" stroke="#000" stroke-linecap="round" stroke-linejoin="round" stroke-miterlimit="10" stroke-width="1.25"/>
        <path id="Pfad_254" data-name="Pfad 254" d="M265.516,174.523h51.918V227.37H265.516Zm0,0" transform="translate(-197.679 641.83)" fill="#fff" stroke="#000" stroke-linecap="round" stroke-linejoin="round" stroke-miterlimit="10" stroke-width="1.25"/>
        <path id="Pfad_255" data-name="Pfad 255" d="M243.016,174.523h51.918V227.37H243.016Zm0,0" transform="translate(-227.097 642.472)" fill="#fff" stroke="#000" stroke-linecap="round" stroke-linejoin="round" stroke-miterlimit="10" stroke-width="1.25"/>
        <text id="_4-3" data-name="4" transform="translate(35.85 848.56)" font-size="20" font-family="ArialMT, Arial"><tspan x="0" y="0">4</tspan></text>
        <text id="_5-3" data-name="5" transform="translate(85.85 848.56)" font-size="20" font-family="ArialMT, Arial"><tspan x="0" y="0">5</tspan></text>
        <text id="_7-3" data-name="7" transform="translate(35.85 901.56)" font-size="20" font-family="ArialMT, Arial"><tspan x="0" y="0">7</tspan></text>
        <text id="_8-3" data-name="8" transform="translate(85.85 901.56)" font-size="20" font-family="ArialMT, Arial"><tspan x="0" y="0">8</tspan></text>
        <text id="_7_6_4_3_7" data-name="7&gt;6&gt;4&gt;3=7" transform="translate(-248.15 1023.56)" font-size="32" font-family="ArialMT, Arial"><tspan x="0" y="0">7&gt;6&gt;4&gt;3=7</tspan></text>
      </g>
      <g id="Gruppe_54" data-name="Gruppe 54" transform="translate(593 -704.924)">
        <path id="Pfad_256" data-name="Pfad 256" d="M155.625,180H311.379v79.269H155.625Zm0,0" transform="translate(-348.28 1001.524)" fill="#fff" stroke="#000" stroke-linecap="round" stroke-linejoin="round" stroke-miterlimit="10" stroke-width="1.25"/>
        <path id="Pfad_257" data-name="Pfad 257" d="M111.378,71.416v2.248h-12.3a4.881,4.881,0,0,1,.27-1.606,8.644,8.644,0,0,1,1.532-2.523,22.844,22.844,0,0,1,2.974-2.844,26.288,26.288,0,0,0,4.056-4.037,4.756,4.756,0,0,0,1.082-2.8A3.042,3.042,0,0,0,108,57.562a3.339,3.339,0,0,0-2.479-.963,3.542,3.542,0,0,0-2.659,1.009,3.806,3.806,0,0,0-.992,2.8l-2.343-.275a5.686,5.686,0,0,1,1.8-4.037,6.072,6.072,0,0,1,4.236-1.422,5.722,5.722,0,0,1,4.191,1.514,4.971,4.971,0,0,1,1.577,3.716,6.1,6.1,0,0,1-.451,2.248,8.79,8.79,0,0,1-1.532,2.34,38.1,38.1,0,0,1-3.47,3.3,32.774,32.774,0,0,0-2.659,2.385,7.586,7.586,0,0,0-.946,1.239Zm0,0" transform="translate(-269.348 1140.761)"/>
        <path id="Pfad_258" data-name="Pfad 258" d="M108.2,70.634l4.912-7.11-4.552-6.606h2.884l2.073,3.211c.361.615.649,1.138.9,1.56.379-.578.73-1.083,1.037-1.514l2.253-3.257h2.749l-4.642,6.468,5,7.248h-2.794l-2.794-4.266-.721-1.147L111,70.634Zm0,0" transform="translate(-257.413 1143.79)"/>
        <path id="Pfad_259" data-name="Pfad 259" d="M129.511,71.416v2.248h-12.3a4.88,4.88,0,0,1,.27-1.606,8.643,8.643,0,0,1,1.532-2.523,22.843,22.843,0,0,1,2.974-2.844,26.288,26.288,0,0,0,4.056-4.037,4.756,4.756,0,0,0,1.082-2.8,3.042,3.042,0,0,0-.991-2.294,3.339,3.339,0,0,0-2.479-.963,3.542,3.542,0,0,0-2.659,1.009,3.806,3.806,0,0,0-.991,2.8l-2.344-.275a5.686,5.686,0,0,1,1.8-4.037,6.072,6.072,0,0,1,4.236-1.422,5.722,5.722,0,0,1,4.191,1.514,4.971,4.971,0,0,1,1.577,3.716,6.1,6.1,0,0,1-.451,2.248,8.788,8.788,0,0,1-1.532,2.34,38.1,38.1,0,0,1-3.47,3.3,32.779,32.779,0,0,0-2.659,2.385,7.589,7.589,0,0,0-.946,1.239Zm0,0" transform="translate(-245.64 1140.761)"/>
        <path id="Pfad_260" data-name="Pfad 260" d="M105.219,86.478v-18.9h7.031a17.964,17.964,0,0,1,2.839.183,5.657,5.657,0,0,1,2.253.872,4.348,4.348,0,0,1,1.487,1.835,5.629,5.629,0,0,1,.586,2.569,5.784,5.784,0,0,1-1.532,4.083q-1.487,1.651-5.408,1.651H107.7v7.707Zm2.479-9.909h4.822a4.8,4.8,0,0,0,3.335-.917,3.173,3.173,0,0,0,1.037-2.523,3.433,3.433,0,0,0-.586-2.018,2.741,2.741,0,0,0-1.577-1.147,9.847,9.847,0,0,0-2.3-.183H107.7Zm0,0" transform="translate(-261.315 1158.168)"/>
        <path id="Pfad_261" data-name="Pfad 261" d="M112.234,76.824c0-2.532.685-4.413,2.073-5.642a6.262,6.262,0,0,1,4.236-1.514A6.041,6.041,0,0,1,123.1,71.5a7.079,7.079,0,0,1,1.758,5.092,8.9,8.9,0,0,1-.811,4.174,5.7,5.7,0,0,1-2.253,2.385,6.574,6.574,0,0,1-3.245.826,6.054,6.054,0,0,1-4.6-1.835A7.6,7.6,0,0,1,112.234,76.824Zm2.344,0a5.926,5.926,0,0,0,1.127,3.945,3.78,3.78,0,0,0,5.679,0,6.133,6.133,0,0,0,1.127-4.037,5.839,5.839,0,0,0-1.127-3.853,3.7,3.7,0,0,0-5.679,0A5.844,5.844,0,0,0,114.578,76.824Zm0,0" transform="translate(-252.142 1160.986)"/>
        <path id="Pfad_262" data-name="Pfad 262" d="M118.492,76.824c0-2.532.685-4.413,2.073-5.642a6.262,6.262,0,0,1,4.236-1.514,6.041,6.041,0,0,1,4.552,1.835,7.079,7.079,0,0,1,1.758,5.092,8.9,8.9,0,0,1-.811,4.174,5.7,5.7,0,0,1-2.253,2.385,6.574,6.574,0,0,1-3.245.826,6.054,6.054,0,0,1-4.6-1.835A7.6,7.6,0,0,1,118.492,76.824Zm2.344,0a5.926,5.926,0,0,0,1.127,3.945,3.78,3.78,0,0,0,5.679,0,6.133,6.133,0,0,0,1.127-4.037,5.839,5.839,0,0,0-1.127-3.853,3.7,3.7,0,0,0-5.679,0A5.844,5.844,0,0,0,120.836,76.824Zm0,0" transform="translate(-243.96 1160.986)"/>
        <path id="Pfad_263" data-name="Pfad 263" d="M125.1,86.478v-18.9h2.253v18.9Zm0,0" transform="translate(-235.319 1158.168)"/>
        <path id="Pfad_264" data-name="Pfad 264" d="M127.621,70.239V67.578h2.3v2.661Zm0,16.239V72.762h2.3V86.478Zm0,0" transform="translate(-232.024 1158.168)"/>
        <path id="Pfad_265" data-name="Pfad 265" d="M130.121,83.659V69.943h2.073v1.973a4.776,4.776,0,0,1,4.281-2.248,5.263,5.263,0,0,1,2.208.459,3.386,3.386,0,0,1,1.532,1.147,4.92,4.92,0,0,1,.721,1.7,12.66,12.66,0,0,1,.135,2.248v8.441h-2.3V75.31a6.189,6.189,0,0,0-.27-2.11,2.224,2.224,0,0,0-.946-1.1,2.851,2.851,0,0,0-1.577-.459,3.655,3.655,0,0,0-2.524.963c-.7.615-1.037,1.807-1.037,3.578v7.477Zm0,0" transform="translate(-228.756 1160.986)"/>
        <path id="Pfad_266" data-name="Pfad 266" d="M136.458,84.806l2.208.321a2.078,2.078,0,0,0,.766,1.514,3.841,3.841,0,0,0,2.344.642,4.061,4.061,0,0,0,2.434-.642,3.381,3.381,0,0,0,1.172-1.789,16.228,16.228,0,0,0,.135-2.982,4.636,4.636,0,0,1-3.7,1.789,5.054,5.054,0,0,1-4.326-2.018,8.166,8.166,0,0,1-1.487-4.908,9.487,9.487,0,0,1,.676-3.624,5.53,5.53,0,0,1,2.028-2.523,5.291,5.291,0,0,1,3.11-.917,4.808,4.808,0,0,1,3.921,1.927V69.943h2.118V81.779a10.914,10.914,0,0,1-.676,4.541,4.928,4.928,0,0,1-2.028,2.11,6.745,6.745,0,0,1-3.38.78,6.433,6.433,0,0,1-3.921-1.1A3.744,3.744,0,0,1,136.458,84.806Zm1.893-8.257a6.028,6.028,0,0,0,1.037,3.945A3.241,3.241,0,0,0,142,81.733a3.4,3.4,0,0,0,2.659-1.239,5.755,5.755,0,0,0,1.082-3.853,5.7,5.7,0,0,0-1.127-3.807,3.3,3.3,0,0,0-5.228,0A5.614,5.614,0,0,0,138.351,76.549Zm0,0" transform="translate(-221.059 1160.986)"/>
        <path id="Pfad_267" data-name="Pfad 267" d="M183.66,18.093a10.331,10.331,0,0,1,2.479-7.34,8.3,8.3,0,0,1,6.4-2.707,8.759,8.759,0,0,1,4.642,1.284,8.089,8.089,0,0,1,3.155,3.486,11.546,11.546,0,0,1,1.082,5.046,11.625,11.625,0,0,1-1.127,5.184,7.92,7.92,0,0,1-3.245,3.441,9.109,9.109,0,0,1-4.507,1.147,8.641,8.641,0,0,1-4.687-1.284,8.2,8.2,0,0,1-3.155-3.532A11.068,11.068,0,0,1,183.66,18.093Zm2.524.046a7.673,7.673,0,0,0,1.8,5.413,5.953,5.953,0,0,0,4.552,1.927,5.894,5.894,0,0,0,4.552-1.973,8.062,8.062,0,0,0,1.8-5.642,9.766,9.766,0,0,0-.766-3.991,6.07,6.07,0,0,0-2.253-2.707,5.933,5.933,0,0,0-3.29-.963,6.254,6.254,0,0,0-4.507,1.835C186.815,13.267,186.184,15.295,186.184,18.139Zm0,0" transform="translate(-158.755 1077.877)"/>
        <path id="Pfad_268" data-name="Pfad 268" d="M201.464,24.126V22.108a4.916,4.916,0,0,1-4.281,2.34,5.415,5.415,0,0,1-2.208-.459A4.33,4.33,0,0,1,193.4,22.8a3.982,3.982,0,0,1-.676-1.7,12.686,12.686,0,0,1-.135-2.2V10.41h2.253v7.615a9.874,9.874,0,0,0,.18,2.431,2.383,2.383,0,0,0,.856,1.468,2.892,2.892,0,0,0,1.758.5,3.8,3.8,0,0,0,1.938-.5,2.959,2.959,0,0,0,1.262-1.468,7.9,7.9,0,0,0,.361-2.707V10.41h2.3V24.126Zm0,0" transform="translate(-147.085 1081.064)"/>
        <path id="Pfad_269" data-name="Pfad 269" d="M204.577,24.8l.315,2.018a8.3,8.3,0,0,1-1.713.229,3.729,3.729,0,0,1-1.938-.413,2.407,2.407,0,0,1-.991-1.055,8.457,8.457,0,0,1-.27-2.707v-7.89h-1.667V13.15h1.667V9.755l2.3-1.376V13.15h2.3v1.835h-2.3v7.982a4.789,4.789,0,0,0,.09,1.284,1.156,1.156,0,0,0,.406.459,1.284,1.284,0,0,0,.766.183A7.171,7.171,0,0,0,204.577,24.8Zm0,0" transform="translate(-139.598 1078.325)"/>
        <path id="Pfad_270" data-name="Pfad 270" d="M201.984,29.514V10.568h2.073v1.789a5.034,5.034,0,0,1,1.622-1.56,4.9,4.9,0,0,1,2.3-.5,5.187,5.187,0,0,1,3.02.917,5.449,5.449,0,0,1,1.983,2.523,9.354,9.354,0,0,1,.676,3.578,9.219,9.219,0,0,1-.766,3.807,5.426,5.426,0,0,1-5.093,3.486,4.112,4.112,0,0,1-2.028-.5,4.753,4.753,0,0,1-1.487-1.239v6.652ZM204.058,17.5a6.168,6.168,0,0,0,1.037,3.945,3.307,3.307,0,0,0,2.569,1.239,3.245,3.245,0,0,0,2.569-1.284,6.222,6.222,0,0,0,1.127-4.083,5.96,5.96,0,0,0-1.082-3.9,3.124,3.124,0,0,0-2.524-1.33,3.247,3.247,0,0,0-2.569,1.422A6.13,6.13,0,0,0,204.058,17.5Zm0,0" transform="translate(-134.797 1080.906)"/>
        <path id="Pfad_271" data-name="Pfad 271" d="M217.1,24.126V22.108a4.927,4.927,0,0,1-4.281,2.34,5.384,5.384,0,0,1-2.208-.459A4.254,4.254,0,0,1,209.03,22.8a3.766,3.766,0,0,1-.676-1.7,12.689,12.689,0,0,1-.135-2.2V10.41h2.253v7.615a9.874,9.874,0,0,0,.18,2.431,2.342,2.342,0,0,0,.856,1.468,2.856,2.856,0,0,0,1.758.5,3.826,3.826,0,0,0,1.938-.5,3,3,0,0,0,1.262-1.468,7.9,7.9,0,0,0,.361-2.707V10.41h2.3V24.126Zm0,0" transform="translate(-126.646 1081.064)"/>
        <path id="Pfad_272" data-name="Pfad 272" d="M220.206,24.8l.315,2.018a8.149,8.149,0,0,1-1.713.229,3.751,3.751,0,0,1-1.938-.413,2.459,2.459,0,0,1-.992-1.055,8.458,8.458,0,0,1-.27-2.707v-7.89h-1.668V13.15h1.668V9.755l2.3-1.376V13.15h2.3v1.835h-2.3v7.982a5.223,5.223,0,0,0,.09,1.284,1.156,1.156,0,0,0,.406.459,1.3,1.3,0,0,0,.766.183A7.068,7.068,0,0,0,220.206,24.8Zm0,0" transform="translate(-119.164 1078.325)"/>
        <path id="Pfad_273" data-name="Pfad 273" d="M90,208.273h51.918V261.12H90Zm0,0" transform="translate(-434.082 1039.657)" fill="#b2d9ff" stroke="#000" stroke-linecap="round" stroke-linejoin="round" stroke-miterlimit="10" stroke-width="1.25"/>
        <path id="Pfad_274" data-name="Pfad 274" d="M32.4,85.7V83.449H44.432v1.789a27,27,0,0,0-3.515,5.138,30.288,30.288,0,0,0-2.7,6.56,24.069,24.069,0,0,0-.856,5.184H35.012a23.771,23.771,0,0,1,.856-5.367,28.179,28.179,0,0,1,2.344-6.1A28.926,28.926,0,0,1,41.5,85.7Zm0,0" transform="translate(-356.525 1179.573)"/>
        <path id="Pfad_275" data-name="Pfad 275" d="M90,163.273h51.918V216.12H90Zm0,0" transform="translate(-434.082 978.964)" fill="#fff" stroke="#000" stroke-linecap="round" stroke-linejoin="round" stroke-miterlimit="10" stroke-width="1.25"/>
        <path id="Pfad_276" data-name="Pfad 276" d="M39.952,57.3h-2.3V42.487a11.256,11.256,0,0,1-2.163,1.651A13.6,13.6,0,0,1,33.1,45.285V43.037a12.956,12.956,0,0,0,3.335-2.156,8.834,8.834,0,0,0,2.028-2.569h1.487Zm0,0" transform="translate(-355.605 1118.697)"/>
        <path id="Pfad_277" data-name="Pfad 277" d="M90,185.773h51.918V238.62H90Zm0,0" transform="translate(-434.082 1009.311)" fill="#b2d9ff" stroke="#000" stroke-linecap="round" stroke-linejoin="round" stroke-miterlimit="10" stroke-width="1.25"/>
        <path id="Pfad_278" data-name="Pfad 278" d="M40.075,79.751V75.21H32.008V73.1l8.473-12.248h1.893V73.1H44.9v2.11H42.373v4.541Zm0-6.652V64.567L34.261,73.1Zm0,0" transform="translate(-357.035 1149.095)"/>
        <path id="Pfad_279" data-name="Pfad 279" d="M67.5,208.273h51.918V261.12H67.5Zm0,0" transform="translate(-463.5 1039.657)" fill="#fff" stroke="#000" stroke-linecap="round" stroke-linejoin="round" stroke-miterlimit="10" stroke-width="1.25"/>
        <path id="Pfad_280" data-name="Pfad 280" d="M21.744,88.037l-2.3.183a4.258,4.258,0,0,0-.856-2.018,2.962,2.962,0,0,0-2.253-.963,3.25,3.25,0,0,0-1.938.6,5.492,5.492,0,0,0-1.713,2.34,12.979,12.979,0,0,0-.631,4.358A5.206,5.206,0,0,1,14.037,90.7a5.4,5.4,0,0,1,2.524-.642,5.132,5.132,0,0,1,3.876,1.7,6.13,6.13,0,0,1,1.622,4.4,7.536,7.536,0,0,1-.766,3.349,5.843,5.843,0,0,1-2.073,2.34,5.766,5.766,0,0,1-2.974.78,5.8,5.8,0,0,1-4.642-2.11c-1.208-1.431-1.8-3.78-1.8-7.065q0-5.45,1.983-7.982a5.67,5.67,0,0,1,4.687-2.156,5.122,5.122,0,0,1,3.56,1.284A5.491,5.491,0,0,1,21.744,88.037Zm-9.329,8.12a5.586,5.586,0,0,0,.5,2.34,3.734,3.734,0,0,0,1.4,1.651,3.546,3.546,0,0,0,1.893.55,3.223,3.223,0,0,0,2.479-1.147,4.817,4.817,0,0,0,1.037-3.257,4.355,4.355,0,0,0-1.037-3.074,3.293,3.293,0,0,0-2.569-1.147A3.5,3.5,0,0,0,13.5,93.221,4.027,4.027,0,0,0,12.415,96.157Zm0,0" transform="translate(-386.07 1179.389)"/>
        <path id="Pfad_281" data-name="Pfad 281" d="M112.5,185.773h51.918V238.62H112.5Zm0,0" transform="translate(-404.664 1009.311)" fill="#b2d9ff" stroke="#000" stroke-linecap="round" stroke-linejoin="round" stroke-miterlimit="10" stroke-width="1.25"/>
        <path id="Pfad_282" data-name="Pfad 282" d="M54.84,74.665l2.389-.229a4.592,4.592,0,0,0,1.217,2.707,3.4,3.4,0,0,0,2.344.872,3.638,3.638,0,0,0,2.794-1.239,4.782,4.782,0,0,0,1.172-3.349,4.354,4.354,0,0,0-1.127-3.165,4.057,4.057,0,0,0-4.867-.6,4.529,4.529,0,0,0-1.4,1.284l-2.118-.275,1.8-9.725h9.239V63.2H58.851l-.991,5.046A6.18,6.18,0,0,1,61.375,67.1a5.581,5.581,0,0,1,4.1,1.7,6.048,6.048,0,0,1,1.668,4.4,7.1,7.1,0,0,1-1.442,4.45,5.887,5.887,0,0,1-4.912,2.294,6.025,6.025,0,0,1-4.146-1.422A5.739,5.739,0,0,1,54.84,74.665Zm0,0" transform="translate(-327.183 1149.227)"/>
        <path id="Pfad_283" data-name="Pfad 283" d="M67.5,185.773h51.918V238.62H67.5Zm0,0" transform="translate(-463.5 1009.311)" fill="#fff" stroke="#000" stroke-linecap="round" stroke-linejoin="round" stroke-miterlimit="10" stroke-width="1.25"/>
        <path id="Pfad_284" data-name="Pfad 284" d="M9.84,74.8l2.3-.321a5.321,5.321,0,0,0,1.307,2.844,3.292,3.292,0,0,0,2.344.872,3.592,3.592,0,0,0,2.659-1.1,3.881,3.881,0,0,0,1.127-2.844,3.53,3.53,0,0,0-1.037-2.615,3.405,3.405,0,0,0-2.569-1.055,5.962,5.962,0,0,0-1.622.275l.27-2.064a1.473,1.473,0,0,0,.361.046,4.543,4.543,0,0,0,2.614-.78,2.66,2.66,0,0,0,1.172-2.385,2.834,2.834,0,0,0-.856-2.11,3.059,3.059,0,0,0-2.208-.826,3.092,3.092,0,0,0-2.208.872,4.357,4.357,0,0,0-1.127,2.523l-2.3-.413A6.249,6.249,0,0,1,11.958,62.1a5.5,5.5,0,0,1,3.7-1.284,5.765,5.765,0,0,1,2.794.688,4.654,4.654,0,0,1,2.659,4.22,3.923,3.923,0,0,1-.676,2.248,4.26,4.26,0,0,1-1.893,1.606,4.216,4.216,0,0,1,2.569,1.606,4.97,4.97,0,0,1,.9,3.028,5.656,5.656,0,0,1-1.8,4.22,6.136,6.136,0,0,1-4.462,1.7,5.763,5.763,0,0,1-4.056-1.468A5.665,5.665,0,0,1,9.84,74.8Zm0,0" transform="translate(-386.019 1149.043)"/>
        <path id="Pfad_285" data-name="Pfad 285" d="M112.5,208.273h51.918V261.12H112.5Zm0,0" transform="translate(-404.664 1039.657)" fill="#b2d9ff" stroke="#000" stroke-linecap="round" stroke-linejoin="round" stroke-miterlimit="10" stroke-width="1.25"/>
        <path id="Pfad_286" data-name="Pfad 286" d="M58.381,92.028a4.116,4.116,0,0,1-2.118-1.468,4.157,4.157,0,0,1-.676-2.385,4.548,4.548,0,0,1,1.442-3.441A5.423,5.423,0,0,1,60.9,83.313a5.364,5.364,0,0,1,3.921,1.468,4.646,4.646,0,0,1,1.487,3.486,3.985,3.985,0,0,1-.676,2.294,4.138,4.138,0,0,1-2.073,1.468,5.291,5.291,0,0,1,2.614,1.881,4.983,4.983,0,0,1,.9,2.982,5.449,5.449,0,0,1-1.713,4.083,6.017,6.017,0,0,1-4.417,1.651,6.139,6.139,0,0,1-4.462-1.651,5.551,5.551,0,0,1-1.668-4.129,5.089,5.089,0,0,1,.9-3.074A4.768,4.768,0,0,1,58.381,92.028Zm-.451-3.9a2.821,2.821,0,0,0,3.02,3.028,2.963,2.963,0,0,0,2.163-5.046,3.12,3.12,0,0,0-4.326,0A2.684,2.684,0,0,0,57.93,88.129Zm-.766,8.716a4.2,4.2,0,0,0,.451,1.927,3.346,3.346,0,0,0,1.4,1.422,3.851,3.851,0,0,0,1.983.5,3.525,3.525,0,0,0,2.659-1.055,3.607,3.607,0,0,0,1.082-2.707,3.847,3.847,0,0,0-1.082-2.8,3.7,3.7,0,0,0-2.749-1.1,3.635,3.635,0,0,0-2.7,1.1A3.8,3.8,0,0,0,57.164,96.845Zm0,0" transform="translate(-327.209 1179.389)"/>
        <path id="Pfad_287" data-name="Pfad 287" d="M112.5,163.273h51.918V216.12H112.5Zm0,0" transform="translate(-404.664 978.964)" fill="#fff" stroke="#000" stroke-linecap="round" stroke-linejoin="round" stroke-miterlimit="10" stroke-width="1.25"/>
        <path id="Pfad_288" data-name="Pfad 288" d="M67.007,55.056V57.3H54.7a4.921,4.921,0,0,1,.27-1.606,8.97,8.97,0,0,1,1.532-2.523,23.472,23.472,0,0,1,2.974-2.844,25.088,25.088,0,0,0,4.056-4.037,4.735,4.735,0,0,0,1.082-2.8,3.024,3.024,0,0,0-.991-2.294,3.325,3.325,0,0,0-2.479-.963,3.592,3.592,0,0,0-2.659,1.009,3.806,3.806,0,0,0-.991,2.8l-2.344-.275a5.74,5.74,0,0,1,1.8-4.037,6.131,6.131,0,0,1,4.236-1.422,5.722,5.722,0,0,1,4.191,1.514,4.972,4.972,0,0,1,1.577,3.716,5.918,5.918,0,0,1-.451,2.248,8.789,8.789,0,0,1-1.532,2.34,34.658,34.658,0,0,1-3.47,3.3c-1.388,1.174-2.271,1.963-2.659,2.385a8.46,8.46,0,0,0-.946,1.239Zm0,0" transform="translate(-327.362 1118.697)"/>
        <path id="Pfad_289" data-name="Pfad 289" d="M67.5,163.273h51.918V216.12H67.5Zm0,0" transform="translate(-463.5 978.964)" fill="#fff" stroke="#000" stroke-linecap="round" stroke-linejoin="round" stroke-miterlimit="10" stroke-width="1.25"/>
        <path id="Pfad_290" data-name="Pfad 290" d="M9.84,47.992a17.875,17.875,0,0,1,.676-5.413A6.749,6.749,0,0,1,12.5,39.413a5.178,5.178,0,0,1,3.38-1.1,5.368,5.368,0,0,1,2.659.642A5.048,5.048,0,0,1,20.386,40.7a9.637,9.637,0,0,1,1.127,2.8,17.948,17.948,0,0,1,.451,4.5,17.632,17.632,0,0,1-.676,5.367,6.785,6.785,0,0,1-2.028,3.165,5.078,5.078,0,0,1-3.38,1.1,5,5,0,0,1-4.191-1.973C10.453,54.093,9.84,51.552,9.84,47.992Zm2.344,0q0,4.652,1.037,6.193a3.092,3.092,0,0,0,5.318,0q1.082-1.541,1.082-6.193,0-4.679-1.082-6.193a3.2,3.2,0,0,0-2.659-1.56,2.961,2.961,0,0,0-2.524,1.33C12.571,42.744,12.183,44.872,12.183,47.992Zm0,0" transform="translate(-386.019 1118.697)"/>
        <path id="Pfad_291" data-name="Pfad 291" d="M23.543,27.1V8.2h2.434V27.1Zm0,0" transform="translate(-368.103 1078.087)"/>
        <path id="Pfad_292" data-name="Pfad 292" d="M26.355,24.284V10.568h2.073v1.973a4.786,4.786,0,0,1,4.281-2.248,5.233,5.233,0,0,1,2.208.459A3.291,3.291,0,0,1,36.451,11.9a4.6,4.6,0,0,1,.721,1.7,12.658,12.658,0,0,1,.135,2.248v8.441h-2.3V15.935a6.189,6.189,0,0,0-.27-2.11,2.224,2.224,0,0,0-.946-1.1,2.829,2.829,0,0,0-1.577-.459,3.671,3.671,0,0,0-2.524.963c-.694.615-1.037,1.807-1.037,3.578v7.477Zm0,0" transform="translate(-364.426 1080.906)"/>
        <path id="Pfad_293" data-name="Pfad 293" d="M32.609,29.514V10.568h2.073v1.789A5.035,5.035,0,0,1,36.3,10.8a4.9,4.9,0,0,1,2.3-.5,5.187,5.187,0,0,1,3.02.917,5.449,5.449,0,0,1,1.983,2.523,9.354,9.354,0,0,1,.676,3.578,9.219,9.219,0,0,1-.766,3.807,5.426,5.426,0,0,1-5.093,3.486,4.112,4.112,0,0,1-2.028-.5,4.753,4.753,0,0,1-1.487-1.239v6.652ZM34.682,17.5a6.168,6.168,0,0,0,1.037,3.945,3.307,3.307,0,0,0,2.569,1.239,3.245,3.245,0,0,0,2.569-1.284,6.222,6.222,0,0,0,1.127-4.083,5.96,5.96,0,0,0-1.082-3.9,3.124,3.124,0,0,0-2.524-1.33A3.247,3.247,0,0,0,35.809,13.5,6.13,6.13,0,0,0,34.682,17.5Zm0,0" transform="translate(-356.249 1080.906)"/>
        <path id="Pfad_294" data-name="Pfad 294" d="M47.722,24.126V22.108a4.927,4.927,0,0,1-4.281,2.34,5.384,5.384,0,0,1-2.208-.459A4.254,4.254,0,0,1,39.655,22.8a3.767,3.767,0,0,1-.676-1.7,12.691,12.691,0,0,1-.135-2.2V10.41H41.1v7.615a9.875,9.875,0,0,0,.18,2.431,2.342,2.342,0,0,0,.856,1.468,2.856,2.856,0,0,0,1.758.5,3.826,3.826,0,0,0,1.938-.5,3,3,0,0,0,1.262-1.468,7.9,7.9,0,0,0,.361-2.707V10.41h2.3V24.126Zm0,0" transform="translate(-348.098 1081.064)"/>
        <path id="Pfad_295" data-name="Pfad 295" d="M50.831,24.8l.315,2.018a8.149,8.149,0,0,1-1.713.229,3.752,3.752,0,0,1-1.938-.413,2.459,2.459,0,0,1-.991-1.055,8.458,8.458,0,0,1-.27-2.707v-7.89H44.566V13.15h1.668V9.755l2.3-1.376V13.15h2.3v1.835h-2.3v7.982a5.221,5.221,0,0,0,.09,1.284,1.156,1.156,0,0,0,.406.459,1.3,1.3,0,0,0,.766.183A7.069,7.069,0,0,0,50.831,24.8Zm0,0" transform="translate(-340.615 1078.325)"/>
        <text id="MAX-4" data-name="MAX" transform="translate(-105.15 1212.56)" font-size="21" font-family="ArialMT, Arial"><tspan x="0" y="0">MAX</tspan></text>
        <path id="Pfad_296" data-name="Pfad 296" d="M243.016,197.023h51.918V249.87H243.016Zm0,0" transform="translate(-234.02 1024.484)" fill="#fff" stroke="#000" stroke-linecap="round" stroke-linejoin="round" stroke-miterlimit="10" stroke-width="1.25"/>
        <path id="Pfad_297" data-name="Pfad 297" d="M265.516,197.023h51.918V249.87H265.516Zm0,0" transform="translate(-204.602 1024.484)" fill="#b2d9ff" stroke="#000" stroke-linecap="round" stroke-linejoin="round" stroke-miterlimit="10" stroke-width="1.25"/>
        <path id="Pfad_298" data-name="Pfad 298" d="M265.516,174.523h51.918V227.37H265.516Zm0,0" transform="translate(-204.602 994.138)" fill="#fff" stroke="#000" stroke-linecap="round" stroke-linejoin="round" stroke-miterlimit="10" stroke-width="1.25"/>
        <path id="Pfad_299" data-name="Pfad 299" d="M243.016,174.523h51.918V227.37H243.016Zm0,0" transform="translate(-234.02 994.78)" fill="#fff" stroke="#000" stroke-linecap="round" stroke-linejoin="round" stroke-miterlimit="10" stroke-width="1.25"/>
        <text id="_4-4" data-name="4" transform="translate(29.85 1199.56)" font-size="20" font-family="ArialMT, Arial"><tspan x="0" y="0">4</tspan></text>
        <text id="_5-4" data-name="5" transform="translate(79.85 1199.56)" font-size="20" font-family="ArialMT, Arial"><tspan x="0" y="0">5</tspan></text>
        <text id="_7-4" data-name="7" transform="translate(29.85 1254.56)" font-size="20" font-family="ArialMT, Arial"><tspan x="0" y="0">7</tspan></text>
        <text id="_8-4" data-name="8" transform="translate(79.85 1254.56)" font-size="20" font-family="ArialMT, Arial"><tspan x="0" y="0">8</tspan></text>
        <text id="_8_7_5_4_8" data-name="8&gt;7&gt;5&gt;4=8" transform="translate(-255.15 1375.56)" font-size="32" font-family="ArialMT, Arial"><tspan x="0" y="0">8&gt;7&gt;5&gt;4=8</tspan></text>
      </g>
    </g>
  </g>
</svg>
