<svg xmlns="http://www.w3.org/2000/svg" xmlns:xlink="http://www.w3.org/1999/xlink" width="620" height="343" viewBox="0 0 620 343">
  <defs>
    <filter id="Rechteck_6" x="0" y="0" width="620" height="343" filterUnits="userSpaceOnUse">
      <feOffset dy="3" input="SourceAlpha"/>
      <feGaussianBlur stdDeviation="3" result="blur"/>
      <feFlood flood-opacity="0.161"/>
      <feComposite operator="in" in2="blur"/>
      <feComposite in="SourceGraphic"/>
    </filter>
  </defs>
  <g id="Gruppe_53" data-name="Gruppe 53" transform="translate(-2370 446)">
    <g transform="matrix(1, 0, 0, 1, 2370, -446)" filter="url(#Rechteck_6)">
      <rect id="Rechteck_6-2" data-name="Rechteck 6" width="602" height="325" transform="translate(9 6)" fill="#fff"/>
    </g>
    <g id="Gruppe_52" data-name="Gruppe 52">
      <g id="Gruppe_50" data-name="Gruppe 50">
        <g id="Gruppe_49" data-name="Gruppe 49" transform="translate(-373 -8)">
          <path id="Pfad_1" data-name="Pfad 1" d="M90,208.273h51.918V261.12H90Zm0,0" transform="translate(2758.918 -428.634)" fill="#fff" stroke="#000" stroke-linecap="round" stroke-linejoin="round" stroke-miterlimit="10" stroke-width="1.25"/>
          <path id="Pfad_2" data-name="Pfad 2" d="M32.4,85.7V83.449H44.432v1.789a27,27,0,0,0-3.515,5.138,30.288,30.288,0,0,0-2.7,6.56,24.069,24.069,0,0,0-.856,5.184H35.012a23.771,23.771,0,0,1,.856-5.367,28.179,28.179,0,0,1,2.344-6.1A28.926,28.926,0,0,1,41.5,85.7Zm0,0" transform="translate(2836.476 -288.717)"/>
          <path id="Pfad_3" data-name="Pfad 3" d="M90,163.273h51.918V216.12H90Zm0,0" transform="translate(2758.918 -489.326)" fill="#b2d9ff" stroke="#000" stroke-linecap="round" stroke-linejoin="round" stroke-miterlimit="10" stroke-width="1.25"/>
          <path id="Pfad_4" data-name="Pfad 4" d="M39.952,57.3h-2.3V42.487a11.256,11.256,0,0,1-2.163,1.651A13.6,13.6,0,0,1,33.1,45.285V43.037a12.956,12.956,0,0,0,3.335-2.156,8.834,8.834,0,0,0,2.028-2.569h1.487Zm0,0" transform="translate(2837.395 -349.594)"/>
          <path id="Pfad_5" data-name="Pfad 5" d="M90,185.773h51.918V238.62H90Zm0,0" transform="translate(2758.918 -458.98)" fill="#b2d9ff" stroke="#000" stroke-linecap="round" stroke-linejoin="round" stroke-miterlimit="10" stroke-width="1.25"/>
          <path id="Pfad_6" data-name="Pfad 6" d="M40.075,79.751V75.21H32.008V73.1l8.473-12.248h1.893V73.1H44.9v2.11H42.373v4.541Zm0-6.652V64.567L34.261,73.1Zm0,0" transform="translate(2835.965 -319.195)"/>
          <path id="Pfad_7" data-name="Pfad 7" d="M67.5,208.273h51.918V261.12H67.5Zm0,0" transform="translate(2729.5 -428.634)" fill="#fff" stroke="#000" stroke-linecap="round" stroke-linejoin="round" stroke-miterlimit="10" stroke-width="1.25"/>
          <path id="Pfad_8" data-name="Pfad 8" d="M21.744,88.037l-2.3.183a4.258,4.258,0,0,0-.856-2.018,2.962,2.962,0,0,0-2.253-.963,3.25,3.25,0,0,0-1.938.6,5.492,5.492,0,0,0-1.713,2.34,12.979,12.979,0,0,0-.631,4.358A5.206,5.206,0,0,1,14.037,90.7a5.4,5.4,0,0,1,2.524-.642,5.132,5.132,0,0,1,3.876,1.7,6.13,6.13,0,0,1,1.622,4.4,7.536,7.536,0,0,1-.766,3.349,5.843,5.843,0,0,1-2.073,2.34,5.766,5.766,0,0,1-2.974.78,5.8,5.8,0,0,1-4.642-2.11c-1.208-1.431-1.8-3.78-1.8-7.065q0-5.45,1.983-7.982a5.67,5.67,0,0,1,4.687-2.156,5.122,5.122,0,0,1,3.56,1.284A5.491,5.491,0,0,1,21.744,88.037Zm-9.329,8.12a5.586,5.586,0,0,0,.5,2.34,3.734,3.734,0,0,0,1.4,1.651,3.546,3.546,0,0,0,1.893.55,3.223,3.223,0,0,0,2.479-1.147,4.817,4.817,0,0,0,1.037-3.257,4.355,4.355,0,0,0-1.037-3.074,3.293,3.293,0,0,0-2.569-1.147A3.5,3.5,0,0,0,13.5,93.221,4.027,4.027,0,0,0,12.415,96.157Zm0,0" transform="translate(2806.93 -288.902)"/>
          <path id="Pfad_9" data-name="Pfad 9" d="M112.5,185.773h51.918V238.62H112.5Zm0,0" transform="translate(2788.336 -458.98)" fill="#fff" stroke="#000" stroke-linecap="round" stroke-linejoin="round" stroke-miterlimit="10" stroke-width="1.25"/>
          <path id="Pfad_10" data-name="Pfad 10" d="M54.84,74.665l2.389-.229a4.592,4.592,0,0,0,1.217,2.707,3.4,3.4,0,0,0,2.344.872,3.638,3.638,0,0,0,2.794-1.239,4.782,4.782,0,0,0,1.172-3.349,4.354,4.354,0,0,0-1.127-3.165,4.057,4.057,0,0,0-4.867-.6,4.529,4.529,0,0,0-1.4,1.284l-2.118-.275,1.8-9.725h9.239V63.2H58.851l-.991,5.046A6.18,6.18,0,0,1,61.375,67.1a5.581,5.581,0,0,1,4.1,1.7,6.048,6.048,0,0,1,1.668,4.4,7.1,7.1,0,0,1-1.442,4.45,5.887,5.887,0,0,1-4.912,2.294,6.025,6.025,0,0,1-4.146-1.422A5.739,5.739,0,0,1,54.84,74.665Zm0,0" transform="translate(2865.817 -319.063)"/>
          <path id="Pfad_11" data-name="Pfad 11" d="M67.5,185.773h51.918V238.62H67.5Zm0,0" transform="translate(2729.5 -458.98)" fill="#b2d9ff" stroke="#000" stroke-linecap="round" stroke-linejoin="round" stroke-miterlimit="10" stroke-width="1.25"/>
          <path id="Pfad_12" data-name="Pfad 12" d="M9.84,74.8l2.3-.321a5.321,5.321,0,0,0,1.307,2.844,3.292,3.292,0,0,0,2.344.872,3.592,3.592,0,0,0,2.659-1.1,3.881,3.881,0,0,0,1.127-2.844,3.53,3.53,0,0,0-1.037-2.615,3.405,3.405,0,0,0-2.569-1.055,5.962,5.962,0,0,0-1.622.275l.27-2.064a1.473,1.473,0,0,0,.361.046,4.543,4.543,0,0,0,2.614-.78,2.66,2.66,0,0,0,1.172-2.385,2.834,2.834,0,0,0-.856-2.11,3.059,3.059,0,0,0-2.208-.826,3.092,3.092,0,0,0-2.208.872,4.357,4.357,0,0,0-1.127,2.523l-2.3-.413A6.249,6.249,0,0,1,11.958,62.1a5.5,5.5,0,0,1,3.7-1.284,5.765,5.765,0,0,1,2.794.688,4.654,4.654,0,0,1,2.659,4.22,3.923,3.923,0,0,1-.676,2.248,4.26,4.26,0,0,1-1.893,1.606,4.216,4.216,0,0,1,2.569,1.606,4.97,4.97,0,0,1,.9,3.028,5.656,5.656,0,0,1-1.8,4.22,6.136,6.136,0,0,1-4.462,1.7,5.763,5.763,0,0,1-4.056-1.468A5.665,5.665,0,0,1,9.84,74.8Zm0,0" transform="translate(2806.981 -319.248)"/>
          <path id="Pfad_13" data-name="Pfad 13" d="M112.5,208.273h51.918V261.12H112.5Zm0,0" transform="translate(2788.336 -428.634)" fill="#fff" stroke="#000" stroke-linecap="round" stroke-linejoin="round" stroke-miterlimit="10" stroke-width="1.25"/>
          <path id="Pfad_14" data-name="Pfad 14" d="M58.381,92.028a4.116,4.116,0,0,1-2.118-1.468,4.157,4.157,0,0,1-.676-2.385,4.548,4.548,0,0,1,1.442-3.441A5.423,5.423,0,0,1,60.9,83.313a5.364,5.364,0,0,1,3.921,1.468,4.646,4.646,0,0,1,1.487,3.486,3.985,3.985,0,0,1-.676,2.294,4.138,4.138,0,0,1-2.073,1.468,5.291,5.291,0,0,1,2.614,1.881,4.983,4.983,0,0,1,.9,2.982,5.449,5.449,0,0,1-1.713,4.083,6.017,6.017,0,0,1-4.417,1.651,6.139,6.139,0,0,1-4.462-1.651,5.551,5.551,0,0,1-1.668-4.129,5.089,5.089,0,0,1,.9-3.074A4.768,4.768,0,0,1,58.381,92.028Zm-.451-3.9a2.821,2.821,0,0,0,3.02,3.028,2.963,2.963,0,0,0,2.163-5.046,3.12,3.12,0,0,0-4.326,0A2.684,2.684,0,0,0,57.93,88.129Zm-.766,8.716a4.2,4.2,0,0,0,.451,1.927,3.346,3.346,0,0,0,1.4,1.422,3.851,3.851,0,0,0,1.983.5,3.525,3.525,0,0,0,2.659-1.055,3.607,3.607,0,0,0,1.082-2.707,3.847,3.847,0,0,0-1.082-2.8,3.7,3.7,0,0,0-2.749-1.1,3.635,3.635,0,0,0-2.7,1.1A3.8,3.8,0,0,0,57.164,96.845Zm0,0" transform="translate(2865.791 -288.902)"/>
          <path id="Pfad_15" data-name="Pfad 15" d="M112.5,163.273h51.918V216.12H112.5Zm0,0" transform="translate(2788.336 -489.326)" fill="#fff" stroke="#000" stroke-linecap="round" stroke-linejoin="round" stroke-miterlimit="10" stroke-width="1.25"/>
          <path id="Pfad_16" data-name="Pfad 16" d="M67.007,55.056V57.3H54.7a4.921,4.921,0,0,1,.27-1.606,8.97,8.97,0,0,1,1.532-2.523,23.472,23.472,0,0,1,2.974-2.844,25.088,25.088,0,0,0,4.056-4.037,4.735,4.735,0,0,0,1.082-2.8,3.024,3.024,0,0,0-.991-2.294,3.325,3.325,0,0,0-2.479-.963,3.592,3.592,0,0,0-2.659,1.009,3.806,3.806,0,0,0-.991,2.8l-2.344-.275a5.74,5.74,0,0,1,1.8-4.037,6.131,6.131,0,0,1,4.236-1.422,5.722,5.722,0,0,1,4.191,1.514,4.972,4.972,0,0,1,1.577,3.716,5.918,5.918,0,0,1-.451,2.248,8.789,8.789,0,0,1-1.532,2.34,34.658,34.658,0,0,1-3.47,3.3c-1.388,1.174-2.271,1.963-2.659,2.385a8.46,8.46,0,0,0-.946,1.239Zm0,0" transform="translate(2865.638 -349.594)"/>
          <path id="Pfad_17" data-name="Pfad 17" d="M67.5,163.273h51.918V216.12H67.5Zm0,0" transform="translate(2729.5 -489.326)" fill="#b2d9ff" stroke="#000" stroke-linecap="round" stroke-linejoin="round" stroke-miterlimit="10" stroke-width="1.25"/>
          <path id="Pfad_18" data-name="Pfad 18" d="M9.84,47.992a17.875,17.875,0,0,1,.676-5.413A6.749,6.749,0,0,1,12.5,39.413a5.178,5.178,0,0,1,3.38-1.1,5.368,5.368,0,0,1,2.659.642A5.048,5.048,0,0,1,20.386,40.7a9.637,9.637,0,0,1,1.127,2.8,17.948,17.948,0,0,1,.451,4.5,17.632,17.632,0,0,1-.676,5.367,6.785,6.785,0,0,1-2.028,3.165,5.078,5.078,0,0,1-3.38,1.1,5,5,0,0,1-4.191-1.973C10.453,54.093,9.84,51.552,9.84,47.992Zm2.344,0q0,4.652,1.037,6.193a3.092,3.092,0,0,0,5.318,0q1.082-1.541,1.082-6.193,0-4.679-1.082-6.193a3.2,3.2,0,0,0-2.659-1.56,2.961,2.961,0,0,0-2.524,1.33C12.571,42.744,12.183,44.872,12.183,47.992Zm0,0" transform="translate(2806.981 -349.594)"/>
        </g>
        <text id="_2x2_Pooling_Window" data-name="2x2 Pooling Window" transform="translate(2411 -375)" font-size="20" font-family="ArialMT, Arial"><tspan x="0" y="0">2x2 Pooling Window</tspan></text>
      </g>
      <g id="Gruppe_51" data-name="Gruppe 51">
        <g id="Gruppe_48" data-name="Gruppe 48" transform="translate(340 -8)">
          <path id="Pfad_1-2" data-name="Pfad 1" d="M90,208.273h51.918V261.12H90Zm0,0" transform="translate(2402.918 -428.634)" fill="#fff" stroke="#000" stroke-linecap="round" stroke-linejoin="round" stroke-miterlimit="10" stroke-width="1.25"/>
          <path id="Pfad_2-2" data-name="Pfad 2" d="M32.4,85.7V83.449H44.432v1.789a27,27,0,0,0-3.515,5.138,30.288,30.288,0,0,0-2.7,6.56,24.069,24.069,0,0,0-.856,5.184H35.012a23.771,23.771,0,0,1,.856-5.367,28.179,28.179,0,0,1,2.344-6.1A28.926,28.926,0,0,1,41.5,85.7Zm0,0" transform="translate(2480.476 -288.717)"/>
          <path id="Pfad_3-2" data-name="Pfad 3" d="M90,163.273h51.918V216.12H90Zm0,0" transform="translate(2402.918 -489.326)" fill="#b2d9ff" stroke="#000" stroke-linecap="round" stroke-linejoin="round" stroke-miterlimit="10" stroke-width="1.25"/>
          <path id="Pfad_4-2" data-name="Pfad 4" d="M39.952,57.3h-2.3V42.487a11.256,11.256,0,0,1-2.163,1.651A13.6,13.6,0,0,1,33.1,45.285V43.037a12.956,12.956,0,0,0,3.335-2.156,8.834,8.834,0,0,0,2.028-2.569h1.487Zm0,0" transform="translate(2481.395 -349.594)"/>
          <path id="Pfad_5-2" data-name="Pfad 5" d="M90,185.773h51.918V238.62H90Zm0,0" transform="translate(2402.918 -458.98)" fill="#b2d9ff" stroke="#000" stroke-linecap="round" stroke-linejoin="round" stroke-miterlimit="10" stroke-width="1.25"/>
          <path id="Pfad_6-2" data-name="Pfad 6" d="M40.075,79.751V75.21H32.008V73.1l8.473-12.248h1.893V73.1H44.9v2.11H42.373v4.541Zm0-6.652V64.567L34.261,73.1Zm0,0" transform="translate(2479.965 -319.195)"/>
          <path id="Pfad_7-2" data-name="Pfad 7" d="M67.5,208.273h51.918V261.12H67.5Zm0,0" transform="translate(2373.5 -428.634)" fill="#fff" stroke="#000" stroke-linecap="round" stroke-linejoin="round" stroke-miterlimit="10" stroke-width="1.25"/>
          <path id="Pfad_8-2" data-name="Pfad 8" d="M21.744,88.037l-2.3.183a4.258,4.258,0,0,0-.856-2.018,2.962,2.962,0,0,0-2.253-.963,3.25,3.25,0,0,0-1.938.6,5.492,5.492,0,0,0-1.713,2.34,12.979,12.979,0,0,0-.631,4.358A5.206,5.206,0,0,1,14.037,90.7a5.4,5.4,0,0,1,2.524-.642,5.132,5.132,0,0,1,3.876,1.7,6.13,6.13,0,0,1,1.622,4.4,7.536,7.536,0,0,1-.766,3.349,5.843,5.843,0,0,1-2.073,2.34,5.766,5.766,0,0,1-2.974.78,5.8,5.8,0,0,1-4.642-2.11c-1.208-1.431-1.8-3.78-1.8-7.065q0-5.45,1.983-7.982a5.67,5.67,0,0,1,4.687-2.156,5.122,5.122,0,0,1,3.56,1.284A5.491,5.491,0,0,1,21.744,88.037Zm-9.329,8.12a5.586,5.586,0,0,0,.5,2.34,3.734,3.734,0,0,0,1.4,1.651,3.546,3.546,0,0,0,1.893.55,3.223,3.223,0,0,0,2.479-1.147,4.817,4.817,0,0,0,1.037-3.257,4.355,4.355,0,0,0-1.037-3.074,3.293,3.293,0,0,0-2.569-1.147A3.5,3.5,0,0,0,13.5,93.221,4.027,4.027,0,0,0,12.415,96.157Zm0,0" transform="translate(2450.93 -288.902)"/>
          <path id="Pfad_9-2" data-name="Pfad 9" d="M112.5,185.773h51.918V238.62H112.5Zm0,0" transform="translate(2432.336 -458.98)" fill="#b2d9ff" stroke="#000" stroke-linecap="round" stroke-linejoin="round" stroke-miterlimit="10" stroke-width="1.25"/>
          <path id="Pfad_10-2" data-name="Pfad 10" d="M54.84,74.665l2.389-.229a4.592,4.592,0,0,0,1.217,2.707,3.4,3.4,0,0,0,2.344.872,3.638,3.638,0,0,0,2.794-1.239,4.782,4.782,0,0,0,1.172-3.349,4.354,4.354,0,0,0-1.127-3.165,4.057,4.057,0,0,0-4.867-.6,4.529,4.529,0,0,0-1.4,1.284l-2.118-.275,1.8-9.725h9.239V63.2H58.851l-.991,5.046A6.18,6.18,0,0,1,61.375,67.1a5.581,5.581,0,0,1,4.1,1.7,6.048,6.048,0,0,1,1.668,4.4,7.1,7.1,0,0,1-1.442,4.45,5.887,5.887,0,0,1-4.912,2.294,6.025,6.025,0,0,1-4.146-1.422A5.739,5.739,0,0,1,54.84,74.665Zm0,0" transform="translate(2509.817 -319.063)"/>
          <path id="Pfad_11-2" data-name="Pfad 11" d="M67.5,185.773h51.918V238.62H67.5Zm0,0" transform="translate(2373.5 -458.98)" fill="#b2d9ff" stroke="#000" stroke-linecap="round" stroke-linejoin="round" stroke-miterlimit="10" stroke-width="1.25"/>
          <path id="Pfad_12-2" data-name="Pfad 12" d="M9.84,74.8l2.3-.321a5.321,5.321,0,0,0,1.307,2.844,3.292,3.292,0,0,0,2.344.872,3.592,3.592,0,0,0,2.659-1.1,3.881,3.881,0,0,0,1.127-2.844,3.53,3.53,0,0,0-1.037-2.615,3.405,3.405,0,0,0-2.569-1.055,5.962,5.962,0,0,0-1.622.275l.27-2.064a1.473,1.473,0,0,0,.361.046,4.543,4.543,0,0,0,2.614-.78,2.66,2.66,0,0,0,1.172-2.385,2.834,2.834,0,0,0-.856-2.11,3.059,3.059,0,0,0-2.208-.826,3.092,3.092,0,0,0-2.208.872,4.357,4.357,0,0,0-1.127,2.523l-2.3-.413A6.249,6.249,0,0,1,11.958,62.1a5.5,5.5,0,0,1,3.7-1.284,5.765,5.765,0,0,1,2.794.688,4.654,4.654,0,0,1,2.659,4.22,3.923,3.923,0,0,1-.676,2.248,4.26,4.26,0,0,1-1.893,1.606,4.216,4.216,0,0,1,2.569,1.606,4.97,4.97,0,0,1,.9,3.028,5.656,5.656,0,0,1-1.8,4.22,6.136,6.136,0,0,1-4.462,1.7,5.763,5.763,0,0,1-4.056-1.468A5.665,5.665,0,0,1,9.84,74.8Zm0,0" transform="translate(2450.981 -319.248)"/>
          <path id="Pfad_13-2" data-name="Pfad 13" d="M112.5,208.273h51.918V261.12H112.5Zm0,0" transform="translate(2432.336 -428.634)" fill="#fff" stroke="#000" stroke-linecap="round" stroke-linejoin="round" stroke-miterlimit="10" stroke-width="1.25"/>
          <path id="Pfad_14-2" data-name="Pfad 14" d="M58.381,92.028a4.116,4.116,0,0,1-2.118-1.468,4.157,4.157,0,0,1-.676-2.385,4.548,4.548,0,0,1,1.442-3.441A5.423,5.423,0,0,1,60.9,83.313a5.364,5.364,0,0,1,3.921,1.468,4.646,4.646,0,0,1,1.487,3.486,3.985,3.985,0,0,1-.676,2.294,4.138,4.138,0,0,1-2.073,1.468,5.291,5.291,0,0,1,2.614,1.881,4.983,4.983,0,0,1,.9,2.982,5.449,5.449,0,0,1-1.713,4.083,6.017,6.017,0,0,1-4.417,1.651,6.139,6.139,0,0,1-4.462-1.651,5.551,5.551,0,0,1-1.668-4.129,5.089,5.089,0,0,1,.9-3.074A4.768,4.768,0,0,1,58.381,92.028Zm-.451-3.9a2.821,2.821,0,0,0,3.02,3.028,2.963,2.963,0,0,0,2.163-5.046,3.12,3.12,0,0,0-4.326,0A2.684,2.684,0,0,0,57.93,88.129Zm-.766,8.716a4.2,4.2,0,0,0,.451,1.927,3.346,3.346,0,0,0,1.4,1.422,3.851,3.851,0,0,0,1.983.5,3.525,3.525,0,0,0,2.659-1.055,3.607,3.607,0,0,0,1.082-2.707,3.847,3.847,0,0,0-1.082-2.8,3.7,3.7,0,0,0-2.749-1.1,3.635,3.635,0,0,0-2.7,1.1A3.8,3.8,0,0,0,57.164,96.845Zm0,0" transform="translate(2509.791 -288.902)"/>
          <path id="Pfad_15-2" data-name="Pfad 15" d="M112.5,163.273h51.918V216.12H112.5Zm0,0" transform="translate(2432.336 -489.326)" fill="#b2d9ff" stroke="#000" stroke-linecap="round" stroke-linejoin="round" stroke-miterlimit="10" stroke-width="1.25"/>
          <path id="Pfad_16-2" data-name="Pfad 16" d="M67.007,55.056V57.3H54.7a4.921,4.921,0,0,1,.27-1.606,8.97,8.97,0,0,1,1.532-2.523,23.472,23.472,0,0,1,2.974-2.844,25.088,25.088,0,0,0,4.056-4.037,4.735,4.735,0,0,0,1.082-2.8,3.024,3.024,0,0,0-.991-2.294,3.325,3.325,0,0,0-2.479-.963,3.592,3.592,0,0,0-2.659,1.009,3.806,3.806,0,0,0-.991,2.8l-2.344-.275a5.74,5.74,0,0,1,1.8-4.037,6.131,6.131,0,0,1,4.236-1.422,5.722,5.722,0,0,1,4.191,1.514,4.972,4.972,0,0,1,1.577,3.716,5.918,5.918,0,0,1-.451,2.248,8.789,8.789,0,0,1-1.532,2.34,34.658,34.658,0,0,1-3.47,3.3c-1.388,1.174-2.271,1.963-2.659,2.385a8.46,8.46,0,0,0-.946,1.239Zm0,0" transform="translate(2509.638 -349.594)"/>
          <path id="Pfad_17-2" data-name="Pfad 17" d="M67.5,163.273h51.918V216.12H67.5Zm0,0" transform="translate(2373.5 -489.326)" fill="#b2d9ff" stroke="#000" stroke-linecap="round" stroke-linejoin="round" stroke-miterlimit="10" stroke-width="1.25"/>
          <path id="Pfad_18-2" data-name="Pfad 18" d="M9.84,47.992a17.875,17.875,0,0,1,.676-5.413A6.749,6.749,0,0,1,12.5,39.413a5.178,5.178,0,0,1,3.38-1.1,5.368,5.368,0,0,1,2.659.642A5.048,5.048,0,0,1,20.386,40.7a9.637,9.637,0,0,1,1.127,2.8,17.948,17.948,0,0,1,.451,4.5,17.632,17.632,0,0,1-.676,5.367,6.785,6.785,0,0,1-2.028,3.165,5.078,5.078,0,0,1-3.38,1.1,5,5,0,0,1-4.191-1.973C10.453,54.093,9.84,51.552,9.84,47.992Zm2.344,0q0,4.652,1.037,6.193a3.092,3.092,0,0,0,5.318,0q1.082-1.541,1.082-6.193,0-4.679-1.082-6.193a3.2,3.2,0,0,0-2.659-1.56,2.961,2.961,0,0,0-2.524,1.33C12.571,42.744,12.183,44.872,12.183,47.992Zm0,0" transform="translate(2450.981 -349.594)"/>
        </g>
        <text id="_2x3_Pooling_Window" data-name="2x3 Pooling Window" transform="translate(2768 -372)" font-size="20" font-family="ArialMT, Arial"><tspan x="0" y="0">2x3 Pooling Window</tspan></text>
      </g>
    </g>
  </g>
</svg>
